<?xml version="1.0" encoding="UTF-8" standalone="no"?>
<svg
   xmlns:dc="http://purl.org/dc/elements/1.1/"
   xmlns:cc="http://creativecommons.org/ns#"
   xmlns:rdf="http://www.w3.org/1999/02/22-rdf-syntax-ns#"
   xmlns:svg="http://www.w3.org/2000/svg"
   xmlns="http://www.w3.org/2000/svg"
   xmlns:xlink="http://www.w3.org/1999/xlink"
   xmlns:sodipodi="http://sodipodi.sourceforge.net/DTD/sodipodi-0.dtd"
   xmlns:inkscape="http://www.inkscape.org/namespaces/inkscape"
   width="512"
   height="512"
   viewBox="0 0 135.46667 135.46667"
   version="1.1"
   id="svg2314"
   inkscape:version="1.0.1 (3bc2e813f5, 2020-09-07)"
   sodipodi:docname="DITIC podcast.svg">
  <defs
     id="defs2308">
    <filter
       height="1.006"
       y="-0.003"
       width="1.006"
       x="-0.003"
       id="filter2145"
       style="color-interpolation-filters:sRGB"
       inkscape:collect="always">
      <feGaussianBlur
         id="feGaussianBlur2147"
         stdDeviation="0.16637688"
         inkscape:collect="always" />
    </filter>
    <linearGradient
       gradientUnits="userSpaceOnUse"
       y2="2197.1001"
       x2="3240.0876"
       y1="2310.3416"
       x1="3169.1792"
       id="linearGradient2173"
       xlink:href="#linearGradient2171"
       inkscape:collect="always" />
    <linearGradient
       id="linearGradient2171"
       inkscape:collect="always">
      <stop
         id="stop2167"
         offset="0"
         style="stop-color:#ffffff;stop-opacity:1;" />
      <stop
         id="stop2169"
         offset="1"
         style="stop-color:#ffffff;stop-opacity:0;" />
    </linearGradient>
    <clipPath
       id="clipPath2163"
       clipPathUnits="userSpaceOnUse">
      <rect
         inkscape:export-ydpi="96"
         inkscape:export-xdpi="96"
         y="2140.8503"
         x="3130.1475"
         height="165.10001"
         width="175.81445"
         id="rect2165"
         style="fill:#aa0200;fill-opacity:1;stroke:none;stroke-width:10.6482;stroke-miterlimit:4;stroke-dasharray:none;stroke-opacity:1" />
    </clipPath>
  </defs>
  <sodipodi:namedview
     id="base"
     pagecolor="#ffffff"
     bordercolor="#666666"
     borderopacity="1.0"
     inkscape:pageopacity="0.0"
     inkscape:pageshadow="2"
     inkscape:zoom="0.35"
     inkscape:cx="400"
     inkscape:cy="560"
     inkscape:document-units="mm"
     inkscape:current-layer="layer1"
     inkscape:document-rotation="0"
     showgrid="false"
     units="px"
     inkscape:window-width="1758"
     inkscape:window-height="977"
     inkscape:window-x="144"
     inkscape:window-y="6"
     inkscape:window-maximized="0" />
  <metadata
     id="metadata2311">
    <rdf:RDF>
      <cc:Work
         rdf:about="">
        <dc:format>image/svg+xml</dc:format>
        <dc:type
           rdf:resource="http://purl.org/dc/dcmitype/StillImage" />
        <dc:title></dc:title>
      </cc:Work>
    </rdf:RDF>
  </metadata>
  <g
     inkscape:label="Layer 1"
     inkscape:groupmode="layer"
     id="layer1">
    <g
       id="g2285"
       transform="matrix(0.77050927,0,0,0.77050927,-2411.8078,-1645.4172)">
      <rect
         inkscape:export-ydpi="96"
         inkscape:export-xdpi="96"
         y="2140.8503"
         x="3130.1477"
         height="165.10001"
         width="175.81445"
         id="rect2149"
         style="fill:#aa0200;fill-opacity:1;stroke:none;stroke-width:10.6482;stroke-miterlimit:4;stroke-dasharray:none;stroke-opacity:1" />
      <path
         d="m 3217.1512,2159.779 c -36.6983,0 -66.5509,29.8529 -66.5509,66.551 0,36.6982 29.8526,66.5505 66.5509,66.5505 36.6982,0 66.5506,-29.8522 66.5506,-66.5505 0,-36.6982 -29.8524,-66.5511 -66.5506,-66.551 z m 0,15.5706 c 28.2059,0 50.9783,22.7745 50.9783,50.9804 0,26.6128 -20.2737,48.3846 -46.255,50.7597 v -10.3508 c 11.2525,-2.1878 19.762,-12.0375 19.762,-23.8694 V 2220.86 c -1.0242,-2.5218 -4.6072,-2.4897 -5.4343,0 v 11.4489 c -1.0779,-0.649 -2.3069,-1.0261 -3.6208,-1.05 v -39.2788 c 0,-8.4845 -6.8815,-15.3148 -15.4292,-15.3148 -8.5476,0 -15.4289,6.8303 -15.4289,15.3148 v 39.2757 h -0.5815 c -1.0816,0 -2.1077,0.2416 -3.0422,0.6759 V 2220.86 c -0.4397,-1.3839 -1.6301,-2.041 -2.7945,-2.0236 -1.1645,0.017 -2.3035,0.7096 -2.6403,2.0236 v 22.0095 c 0,12.1959 9.0408,22.2867 20.8076,24.0502 v 10.2563 c -26.4808,-1.8786 -47.3019,-23.8775 -47.3019,-50.846 0,-28.2059 22.7748,-50.9804 50.9807,-50.9804 z m -0.083,6.7443 h 0.01 c 2.5609,0 4.9075,1.0794 6.7609,2.8851 h -2.3161 c -1.1475,0 -2.0707,0.8134 -2.0707,1.8237 0,1.0106 0.9232,1.8247 2.0707,1.8247 h 4.9098 c 0.4456,0.924 0.8033,1.9197 1.0584,2.9714 h -5.3642 c -1.3023,0 -2.3508,0.8131 -2.3508,1.8236 0,1.01 1.0485,1.8242 2.3508,1.8242 h 5.8148 v 0.186 2.7854 h -5.8182 c -1.3026,0 -2.3508,0.8132 -2.3508,1.8237 0,1.0102 1.0482,1.8241 2.3508,1.8241 h 5.8182 v 2.9715 h -5.8182 c -1.3026,0 -2.3508,0.8136 -2.3508,1.8241 0,1.0104 1.0482,1.8242 2.3508,1.8242 h 5.8182 v 2.9719 h -5.8182 c -1.3026,0 -2.3508,0.813 -2.3508,1.8237 0,1.0103 1.0482,1.8241 2.3508,1.8241 h 5.8182 v 2.9714 h -5.8182 c -1.3026,0 -2.3508,0.8137 -2.3508,1.8242 0,1.0105 1.0482,1.8242 2.3508,1.8242 h 5.8182 v 2.9714 h -5.8182 c -1.3026,0 -2.3508,0.8134 -2.3508,1.8236 0,1.0105 1.0482,1.8242 2.3508,1.8242 h 5.8182 v 2.9115 h -21.7342 v -2.9115 h 5.7764 c 1.3025,0 2.3513,-0.8137 2.3513,-1.8242 0,-1.0102 -1.0488,-1.8236 -2.3513,-1.8236 h -5.7764 v -2.9714 h 5.7764 c 1.3025,0 2.3513,-0.8137 2.3513,-1.8242 0,-1.0105 -1.0488,-1.8242 -2.3513,-1.8242 h -5.7764 v -2.9714 h 5.7764 c 1.3025,0 2.3513,-0.8138 2.3513,-1.8241 0,-1.0107 -1.0488,-1.8237 -2.3513,-1.8237 h -5.7764 v -2.9719 h 5.7764 c 1.3025,0 2.3513,-0.8138 2.3513,-1.8242 0,-1.0105 -1.0488,-1.8241 -2.3513,-1.8241 h -5.7764 v -2.9715 h 5.7764 c 1.3025,0 2.3513,-0.8139 2.3513,-1.8241 0,-1.0105 -1.0488,-1.8237 -2.3513,-1.8237 h -5.7764 v -2.7854 -0.186 h 5.7729 c 1.3023,0 2.3511,-0.8142 2.3511,-1.8242 0,-1.0105 -1.0488,-1.8236 -2.3511,-1.8236 h -5.3223 c 0.2553,-1.0517 0.6122,-2.0474 1.0578,-2.9714 h 4.868 c 1.1475,0 2.0712,-0.8141 2.0712,-1.8247 0,-1.0103 -0.9237,-1.8237 -2.0712,-1.8237 h -2.2738 c 1.8534,-1.8057 4.2,-2.8851 6.7609,-2.8851 z m -15.9266,50.5256 h 31.3081 c 3.6248,0 6.616,3.3606 6.616,7.6636 0,4.303 -2.9912,7.6636 -6.616,7.6636 h -31.3081 c -3.6248,0 -6.6162,-3.3606 -6.6162,-7.6636 0,-4.303 2.9914,-7.6636 6.6162,-7.6636 z m -0.3567,2.543 -0.4368,3.1006 4.4614,-0.013 v 0.013 h 0.9054 l -0.4553,3.238 h -2.743 l 0.245,-1.7404 -2.6289,0.013 -0.681,4.8385 h 7.9984 l 1.3303,-9.4444 z m 9.6732,0 -1.33,9.4444 h 2.8397 l 1.3296,-9.4444 z m 3.869,0 -0.4262,3.0293 h 2.6082 l -0.9038,6.4151 h 2.9647 l 0.9038,-6.4151 h 2.4262 l 0.4263,-3.0293 z m 9.0287,0 -1.3304,9.4444 h 2.8398 l 1.3301,-9.4444 z m 3.8695,0 -1.3303,9.4444 h 7.9986 l 0.4365,-3.099 h -5.3908 l 0.4564,-3.2422 h 5.3908 l 0.4371,-3.1032 z m 8.0542,13.5692 c -2.4599,7.5939 -9.5888,13.0282 -18.1288,13.0282 -8.4306,0 -15.4879,-5.296 -18.034,-12.7383 0.6451,0.1895 1.323,0.291 2.0249,0.291 h 3.1112 c 2.7525,4.1592 7.4901,6.8977 12.8995,6.8977 5.4097,0 10.1471,-2.7383 12.8995,-6.8977 h 2.3979 c 1.0007,0 1.9529,-0.2066 2.8298,-0.5809 z m -24.0223,0.5809 h 11.6363 c -1.6801,1.3062 -3.6737,2.0644 -5.8182,2.0644 -2.1444,0 -4.1378,-0.7582 -5.8181,-2.0644 z m 32.354,26.7797 0.4683,1.3245 -2.6186,0.9255 2.0868,5.9046 -1.801,0.6361 -2.0865,-5.904 -2.6186,0.9255 -0.4681,-1.325 z m -50.8249,0.308 3.2227,1.1431 c 0.731,0.2594 1.2366,0.6776 1.5171,1.2547 0.2807,0.577 0.3183,1.1554 0.1127,1.7348 -0.2127,0.6001 -0.6086,1.0377 -1.188,1.3136 -0.5757,0.2771 -1.2314,0.2853 -1.9658,0.025 l -1.4325,-0.508 -1.0298,2.9017 -1.7999,-0.6388 z m 1.3304,1.9627 -0.5948,1.6758 0.8382,0.2972 c 0.7482,0.2655 1.2216,0.1189 1.42,-0.4398 0.1111,-0.3137 0.088,-0.5665 -0.069,-0.7581 -0.1559,-0.1951 -0.4752,-0.3785 -0.9581,-0.5498 z m 40.8826,0.6144 c 0.4439,-0.01 0.9104,0.031 1.3999,0.1142 l 0.3577,1.4552 c -1.097,-0.2016 -1.9386,-0.2306 -2.5249,-0.086 -0.3339,0.082 -0.5869,0.2044 -0.758,0.3669 -0.1686,0.1582 -0.23,0.3295 -0.1847,0.5142 0.035,0.1422 0.1397,0.2599 0.3127,0.353 0.1736,0.092 0.5607,0.1729 1.1613,0.2408 0.6003,0.067 1.0871,0.1471 1.4602,0.2403 0.3733,0.093 0.7178,0.2691 1.0337,0.5265 0.3191,0.257 0.5382,0.6268 0.6567,1.1101 0.1691,0.6893 0.041,1.3029 -0.3844,1.8407 -0.422,0.5369 -1.0613,0.9102 -1.9177,1.1203 -0.9239,0.2269 -1.878,0.2069 -2.8631,-0.06 l -0.3937,-1.6041 c 0.5797,0.212 1.0795,0.3471 1.5007,0.4057 0.4215,0.059 0.847,0.035 1.2769,-0.071 0.7287,-0.1788 1.0367,-0.4971 0.9239,-0.9555 -0.038,-0.1563 -0.1468,-0.2862 -0.327,-0.3891 -0.1796,-0.1028 -0.5725,-0.185 -1.1792,-0.2471 -0.6033,-0.063 -1.0896,-0.1394 -1.4584,-0.2299 -0.3651,-0.091 -0.7054,-0.2657 -1.021,-0.5235 -0.3122,-0.2587 -0.5289,-0.6352 -0.6501,-1.1291 -0.1572,-0.6396 -0.026,-1.218 0.3932,-1.7353 0.4185,-0.5209 1.0593,-0.8872 1.9229,-1.0992 0.398,-0.098 0.8187,-0.1504 1.2624,-0.1576 z m -33.5513,0.2646 c 0.4352,-0.013 0.8922,0.035 1.3708,0.1452 1.2729,0.293 2.2151,0.9155 2.8257,1.8671 0.6118,0.948 0.7996,1.9319 0.5649,2.9517 -0.2381,1.0341 -0.8437,1.8388 -1.8174,2.4144 -0.9737,0.5756 -2.0857,0.7195 -3.3374,0.4315 -1.2658,-0.2914 -2.2096,-0.9069 -2.8308,-1.8459 -0.621,-0.9389 -0.8118,-1.9286 -0.572,-2.9699 0.2354,-1.0233 0.8355,-1.828 1.7999,-2.4133 0.6051,-0.3652 1.2708,-0.5586 1.9963,-0.5808 z m 26.3311,1.1855 4.4159,7.1318 -2.0336,0.2801 -0.8314,-1.4149 -3.3988,0.4677 -0.3588,1.5782 -2.0066,0.2759 2.0167,-8.0165 z m -20.2965,0.061 3.3642,0.3353 c 1.2999,0.1302 2.291,0.5898 2.9734,1.3782 0.6866,0.7856 0.9731,1.7425 0.8604,2.8712 -0.1177,1.1833 -0.5948,2.0753 -1.4309,2.6758 -0.8318,0.5973 -1.9576,0.8249 -3.3774,0.6831 l -3.1514,-0.3141 z m -5.7825,0.372 c -0.4016,0.011 -0.7688,0.115 -1.1006,0.3132 -0.5276,0.3178 -0.8697,0.8192 -1.0274,1.5038 -0.1566,0.681 -0.068,1.2813 0.2667,1.8014 0.3389,0.5173 0.8633,0.8578 1.5729,1.0211 0.706,0.1626 1.3227,0.085 1.85,-0.233 0.5284,-0.3214 0.871,-0.8228 1.0279,-1.5038 0.1577,-0.6846 0.068,-1.2849 -0.2672,-1.8015 -0.3352,-0.5164 -0.8557,-0.856 -1.5616,-1.0185 -0.2662,-0.061 -0.5196,-0.089 -0.7607,-0.083 z m 18.1425,0.1928 c 1.0938,-0.021 2.0238,0.1851 2.79,0.6201 l 0.034,1.7069 c -0.9396,-0.5049 -1.8246,-0.7491 -2.6551,-0.7328 -0.8157,0.016 -1.4788,0.2485 -1.9897,0.6976 -0.5072,0.4456 -0.7543,1.0064 -0.7408,1.6831 0.013,0.6805 0.2786,1.237 0.7956,1.6697 0.521,0.4326 1.18,0.6415 1.9777,0.6258 0.3951,-0.01 0.7742,-0.066 1.138,-0.1762 0.3636,-0.1132 0.9044,-0.3542 1.6211,-0.723 v -5e-4 0 c -5e-4,2e-4 -8e-4,3e-4 0,5e-4 l 0.033,1.6728 c -0.9485,0.5273 -1.9479,0.8016 -2.9977,0.8222 -1.361,0.027 -2.4527,-0.327 -3.2758,-1.0609 -0.8197,-0.7379 -1.2404,-1.6574 -1.2621,-2.7585 -0.021,-1.1012 0.3847,-2.0444 1.2181,-2.8293 0.8372,-0.785 1.9416,-1.1905 3.3134,-1.2175 z m -10.5992,1.0227 -0.4823,4.8333 1.2398,0.1235 c 0.8046,0.08 1.442,-0.079 1.9119,-0.477 0.4704,-0.4016 0.7416,-0.9643 0.8141,-1.6888 0.075,-0.7501 -0.083,-1.3617 -0.4733,-1.8345 -0.3866,-0.4762 -0.984,-0.7544 -1.7923,-0.8351 z m 17.7141,0.3141 -0.7085,3.1058 2.3384,-0.3214 z"
         style="opacity:0.362538;fill:#000000;fill-opacity:1;stroke-width:0.0574244;filter:url(#filter2145)"
         id="path2151" />
      <path
         d="m 3216.622,2159.624 c -36.6983,0 -66.5509,29.8529 -66.5509,66.551 0,36.6982 29.8526,66.5505 66.5509,66.5505 36.6982,0 66.5506,-29.8522 66.5506,-66.5505 0,-36.6982 -29.8524,-66.5511 -66.5506,-66.551 z m 0,15.5706 c 28.2059,0 50.9783,22.7745 50.9783,50.9804 0,26.6128 -20.2737,48.3846 -46.255,50.7597 v -10.3508 c 11.2525,-2.1878 19.762,-12.0375 19.762,-23.8694 v -22.0095 c -1.0242,-2.5218 -4.6072,-2.4897 -5.4343,0 v 11.4489 c -1.0779,-0.649 -2.3069,-1.0261 -3.6208,-1.05 v -39.2788 c 0,-8.4845 -6.8815,-15.3148 -15.4292,-15.3148 -8.5476,0 -15.4289,6.8303 -15.4289,15.3148 v 39.2757 h -0.5815 c -1.0816,0 -2.1077,0.2416 -3.0422,0.6759 v -11.0717 c -0.4397,-1.3839 -1.6301,-2.041 -2.7945,-2.0236 -1.1645,0.017 -2.3035,0.7096 -2.6403,2.0236 v 22.0095 c 0,12.1959 9.0408,22.2867 20.8076,24.0502 v 10.2563 c -26.4808,-1.8786 -47.3019,-23.8775 -47.3019,-50.846 0,-28.2059 22.7748,-50.9804 50.9807,-50.9804 z m -0.083,6.7443 h 0.01 c 2.5609,0 4.9075,1.0794 6.7609,2.8851 h -2.3161 c -1.1475,0 -2.0707,0.8134 -2.0707,1.8237 0,1.0106 0.9232,1.8247 2.0707,1.8247 h 4.9098 c 0.4456,0.924 0.8033,1.9197 1.0584,2.9714 h -5.3642 c -1.3023,0 -2.3508,0.8131 -2.3508,1.8236 0,1.01 1.0485,1.8242 2.3508,1.8242 h 5.8148 v 0.186 2.7854 h -5.8182 c -1.3026,0 -2.3508,0.8132 -2.3508,1.8237 0,1.0102 1.0482,1.8241 2.3508,1.8241 h 5.8182 v 2.9715 h -5.8182 c -1.3026,0 -2.3508,0.8136 -2.3508,1.8241 0,1.0104 1.0482,1.8242 2.3508,1.8242 h 5.8182 v 2.9719 h -5.8182 c -1.3026,0 -2.3508,0.813 -2.3508,1.8237 0,1.0103 1.0482,1.8241 2.3508,1.8241 h 5.8182 v 2.9714 h -5.8182 c -1.3026,0 -2.3508,0.8137 -2.3508,1.8242 0,1.0105 1.0482,1.8242 2.3508,1.8242 h 5.8182 v 2.9714 h -5.8182 c -1.3026,0 -2.3508,0.8134 -2.3508,1.8236 0,1.0105 1.0482,1.8242 2.3508,1.8242 h 5.8182 v 2.9115 h -21.7342 v -2.9115 h 5.7764 c 1.3025,0 2.3513,-0.8137 2.3513,-1.8242 0,-1.0102 -1.0488,-1.8236 -2.3513,-1.8236 h -5.7764 v -2.9714 h 5.7764 c 1.3025,0 2.3513,-0.8137 2.3513,-1.8242 0,-1.0105 -1.0488,-1.8242 -2.3513,-1.8242 h -5.7764 v -2.9714 h 5.7764 c 1.3025,0 2.3513,-0.8138 2.3513,-1.8241 0,-1.0107 -1.0488,-1.8237 -2.3513,-1.8237 h -5.7764 v -2.9719 h 5.7764 c 1.3025,0 2.3513,-0.8138 2.3513,-1.8242 0,-1.0105 -1.0488,-1.8241 -2.3513,-1.8241 h -5.7764 v -2.9715 h 5.7764 c 1.3025,0 2.3513,-0.8139 2.3513,-1.8241 0,-1.0105 -1.0488,-1.8237 -2.3513,-1.8237 h -5.7764 v -2.7854 -0.186 h 5.7729 c 1.3023,0 2.3511,-0.8142 2.3511,-1.8242 0,-1.0105 -1.0488,-1.8236 -2.3511,-1.8236 h -5.3223 c 0.2553,-1.0517 0.6122,-2.0474 1.0578,-2.9714 h 4.868 c 1.1475,0 2.0712,-0.8141 2.0712,-1.8247 0,-1.0103 -0.9237,-1.8237 -2.0712,-1.8237 h -2.2738 c 1.8534,-1.8057 4.2,-2.8851 6.7609,-2.8851 z m -15.9266,50.5256 h 31.3081 c 3.6248,0 6.616,3.3606 6.616,7.6636 0,4.303 -2.9912,7.6636 -6.616,7.6636 h -31.3081 c -3.6248,0 -6.6162,-3.3606 -6.6162,-7.6636 0,-4.303 2.9914,-7.6636 6.6162,-7.6636 z m -0.3567,2.543 -0.4368,3.1006 4.4614,-0.013 v 0.013 h 0.9054 l -0.4553,3.238 h -2.743 l 0.245,-1.7404 -2.6289,0.013 -0.681,4.8385 h 7.9984 l 1.3303,-9.4444 z m 9.6732,0 -1.33,9.4444 h 2.8397 l 1.3296,-9.4444 z m 3.869,0 -0.4262,3.0293 h 2.6082 l -0.9038,6.4151 h 2.9647 l 0.9038,-6.4151 h 2.4262 l 0.4263,-3.0293 z m 9.0287,0 -1.3304,9.4444 h 2.8398 l 1.3301,-9.4444 z m 3.8695,0 -1.3303,9.4444 h 7.9986 l 0.4365,-3.099 h -5.3908 l 0.4564,-3.2422 h 5.3908 l 0.4371,-3.1032 z m 8.0542,13.5692 c -2.4599,7.5939 -9.5888,13.0282 -18.1288,13.0282 -8.4306,0 -15.4879,-5.296 -18.034,-12.7383 0.6451,0.1895 1.323,0.291 2.0249,0.291 h 3.1112 c 2.7525,4.1592 7.4901,6.8977 12.8995,6.8977 5.4097,0 10.1471,-2.7383 12.8995,-6.8977 h 2.3979 c 1.0007,0 1.9529,-0.2066 2.8298,-0.5809 z m -24.0223,0.5809 h 11.6363 c -1.6801,1.3062 -3.6737,2.0644 -5.8182,2.0644 -2.1444,0 -4.1378,-0.7582 -5.8181,-2.0644 z m 32.354,26.7797 0.4683,1.3245 -2.6186,0.9255 2.0868,5.9046 -1.801,0.6361 -2.0865,-5.904 -2.6186,0.9255 -0.4681,-1.325 z m -50.8249,0.308 3.2227,1.1431 c 0.731,0.2594 1.2366,0.6776 1.5171,1.2547 0.2807,0.577 0.3183,1.1554 0.1127,1.7348 -0.2127,0.6001 -0.6086,1.0377 -1.188,1.3136 -0.5757,0.2771 -1.2314,0.2853 -1.9658,0.025 l -1.4325,-0.508 -1.0298,2.9017 -1.7999,-0.6388 z m 1.3304,1.9627 -0.5948,1.6758 0.8382,0.2972 c 0.7482,0.2655 1.2216,0.1189 1.42,-0.4398 0.1111,-0.3137 0.088,-0.5665 -0.069,-0.7581 -0.1559,-0.1951 -0.4752,-0.3785 -0.9581,-0.5498 z m 40.8826,0.6144 c 0.4439,-0.01 0.9104,0.031 1.3999,0.1142 l 0.3577,1.4552 c -1.097,-0.2016 -1.9386,-0.2306 -2.5249,-0.086 -0.3339,0.082 -0.5869,0.2044 -0.758,0.3669 -0.1686,0.1582 -0.23,0.3295 -0.1847,0.5142 0.035,0.1422 0.1397,0.2599 0.3127,0.353 0.1736,0.092 0.5607,0.1729 1.1613,0.2408 0.6003,0.067 1.0871,0.1471 1.4602,0.2403 0.3733,0.093 0.7178,0.2691 1.0337,0.5265 0.3191,0.257 0.5382,0.6268 0.6567,1.1101 0.1691,0.6893 0.041,1.3029 -0.3844,1.8407 -0.422,0.5369 -1.0613,0.9102 -1.9177,1.1203 -0.9239,0.2269 -1.878,0.2069 -2.8631,-0.06 l -0.3937,-1.6041 c 0.5797,0.212 1.0795,0.3471 1.5007,0.4057 0.4215,0.059 0.847,0.035 1.2769,-0.071 0.7287,-0.1788 1.0367,-0.4971 0.9239,-0.9555 -0.038,-0.1563 -0.1468,-0.2862 -0.327,-0.3891 -0.1796,-0.1028 -0.5725,-0.185 -1.1792,-0.2471 -0.6033,-0.063 -1.0896,-0.1394 -1.4584,-0.2299 -0.3651,-0.091 -0.7054,-0.2657 -1.021,-0.5235 -0.3122,-0.2587 -0.5289,-0.6352 -0.6501,-1.1291 -0.1572,-0.6396 -0.026,-1.218 0.3932,-1.7353 0.4185,-0.5209 1.0593,-0.8872 1.9229,-1.0992 0.398,-0.098 0.8187,-0.1504 1.2624,-0.1576 z m -33.5513,0.2646 c 0.4352,-0.013 0.8922,0.035 1.3708,0.1452 1.2729,0.293 2.2151,0.9155 2.8257,1.8671 0.6118,0.948 0.7996,1.9319 0.5649,2.9517 -0.2381,1.0341 -0.8437,1.8388 -1.8174,2.4144 -0.9737,0.5756 -2.0857,0.7195 -3.3374,0.4315 -1.2658,-0.2914 -2.2096,-0.9069 -2.8308,-1.8459 -0.621,-0.9389 -0.8118,-1.9286 -0.572,-2.9699 0.2354,-1.0233 0.8355,-1.828 1.7999,-2.4133 0.6051,-0.3652 1.2708,-0.5586 1.9963,-0.5808 z m 26.3311,1.1855 4.4159,7.1318 -2.0336,0.2801 -0.8314,-1.4149 -3.3988,0.4677 -0.3588,1.5782 -2.0066,0.2759 2.0167,-8.0165 z m -20.2965,0.061 3.3642,0.3353 c 1.2999,0.1302 2.291,0.5898 2.9734,1.3782 0.6866,0.7856 0.9731,1.7425 0.8604,2.8712 -0.1177,1.1833 -0.5948,2.0753 -1.4309,2.6758 -0.8318,0.5973 -1.9576,0.8249 -3.3774,0.6831 l -3.1514,-0.3141 z m -5.7825,0.372 c -0.4016,0.011 -0.7688,0.115 -1.1006,0.3132 -0.5276,0.3178 -0.8697,0.8192 -1.0274,1.5038 -0.1566,0.681 -0.068,1.2813 0.2667,1.8014 0.3389,0.5173 0.8633,0.8578 1.5729,1.0211 0.706,0.1626 1.3227,0.085 1.85,-0.233 0.5284,-0.3214 0.871,-0.8228 1.0279,-1.5038 0.1577,-0.6846 0.068,-1.2849 -0.2672,-1.8015 -0.3352,-0.5164 -0.8557,-0.856 -1.5616,-1.0185 -0.2662,-0.061 -0.5196,-0.089 -0.7607,-0.083 z m 18.1425,0.1928 c 1.0938,-0.021 2.0238,0.1851 2.79,0.6201 l 0.034,1.7069 c -0.9396,-0.5049 -1.8246,-0.7491 -2.6551,-0.7328 -0.8157,0.016 -1.4788,0.2485 -1.9897,0.6976 -0.5072,0.4456 -0.7543,1.0064 -0.7408,1.6831 0.013,0.6805 0.2786,1.237 0.7956,1.6697 0.521,0.4326 1.18,0.6415 1.9777,0.6258 0.3951,-0.01 0.7742,-0.066 1.138,-0.1762 0.3636,-0.1132 0.9044,-0.3542 1.6211,-0.723 v -5e-4 0 c -5e-4,2e-4 -8e-4,3e-4 0,5e-4 l 0.033,1.6728 c -0.9485,0.5273 -1.9479,0.8016 -2.9977,0.8222 -1.361,0.027 -2.4527,-0.327 -3.2758,-1.0609 -0.8197,-0.7379 -1.2404,-1.6574 -1.2621,-2.7585 -0.021,-1.1012 0.3847,-2.0444 1.2181,-2.8293 0.8372,-0.785 1.9416,-1.1905 3.3134,-1.2175 z m -10.5992,1.0227 -0.4823,4.8333 1.2398,0.1235 c 0.8046,0.08 1.442,-0.079 1.9119,-0.477 0.4704,-0.4016 0.7416,-0.9643 0.8141,-1.6888 0.075,-0.7501 -0.083,-1.3617 -0.4733,-1.8345 -0.3866,-0.4762 -0.984,-0.7544 -1.7923,-0.8351 z m 17.7141,0.3141 -0.7085,3.1058 2.3384,-0.3214 z"
         style="fill:#fdca00;fill-opacity:1;stroke-width:0.0574244"
         id="path2153" />
      <circle
         transform="matrix(0.99237825,0,0,0.99237825,24.398813,16.86207)"
         clip-path="url(#clipPath2163)"
         r="301.96112"
         cy="2489.7759"
         cx="3085.4663"
         id="path2159"
         style="opacity:0.362538;fill:url(#linearGradient2173);fill-opacity:1;stroke:none;stroke-width:19.865;stroke-linecap:round;stroke-miterlimit:4;stroke-dasharray:none;stroke-opacity:1" />
    </g>
  </g>
</svg>
