<?xml version="1.0" encoding="UTF-8" standalone="no"?>
<!-- Created with Inkscape (http://www.inkscape.org/) -->

<svg
   xmlns:dc="http://purl.org/dc/elements/1.1/"
   xmlns:cc="http://creativecommons.org/ns#"
   xmlns:rdf="http://www.w3.org/1999/02/22-rdf-syntax-ns#"
   xmlns:svg="http://www.w3.org/2000/svg"
   xmlns="http://www.w3.org/2000/svg"
   xmlns:xlink="http://www.w3.org/1999/xlink"
   xmlns:sodipodi="http://sodipodi.sourceforge.net/DTD/sodipodi-0.dtd"
   xmlns:inkscape="http://www.inkscape.org/namespaces/inkscape"
   width="400"
   height="400"
   id="svg35849"
   version="1.1"
   inkscape:version="0.48.0 r9654"
   sodipodi:docname="Novo documento 8">
  <defs
     id="defs35851">
    <linearGradient
       y2="200.14214"
       x2="418.64465"
       y1="317.14215"
       x1="4.6446609"
       gradientUnits="userSpaceOnUse"
       id="linearGradient5835"
       xlink:href="#linearGradient5590"
       inkscape:collect="always" />
    <linearGradient
       id="linearGradient5590">
      <stop
         id="stop5592"
         offset="0"
         style="stop-color:#e9c6af;stop-opacity:1;" />
      <stop
         id="stop5594"
         offset="1"
         style="stop-color:#e9b08a;stop-opacity:1;" />
    </linearGradient>
    <filter
       color-interpolation-filters="sRGB"
       id="filter5610"
       inkscape:collect="always">
      <feGaussianBlur
         id="feGaussianBlur5612"
         stdDeviation="3.7783943"
         inkscape:collect="always" />
    </filter>
    <filter
       color-interpolation-filters="sRGB"
       id="filter5544"
       inkscape:collect="always">
      <feGaussianBlur
         id="feGaussianBlur5546"
         stdDeviation="4.5302316"
         inkscape:collect="always" />
    </filter>
    <filter
       color-interpolation-filters="sRGB"
       height="1.3193129"
       y="-0.15965647"
       width="1.1977634"
       x="-0.098881714"
       id="filter5582"
       inkscape:collect="always">
      <feGaussianBlur
         id="feGaussianBlur5584"
         stdDeviation="15.368295"
         inkscape:collect="always" />
    </filter>
    <radialGradient
       r="69.119682"
       fy="465.92596"
       fx="247.09715"
       cy="465.92596"
       cx="247.09715"
       gradientTransform="matrix(-0.04940347,-0.56242357,2.44763,-0.21500484,-940.51584,1148.1193)"
       gradientUnits="userSpaceOnUse"
       id="radialGradient5837"
       xlink:href="#linearGradient3894"
       inkscape:collect="always" />
    <linearGradient
       id="linearGradient3894">
      <stop
         id="stop3896"
         offset="0"
         style="stop-color:#ffffff;stop-opacity:1;" />
      <stop
         id="stop3898"
         offset="1"
         style="stop-color:#cccccc;stop-opacity:1" />
    </linearGradient>
    <linearGradient
       y2="478.1915"
       x2="207.88937"
       y1="454.50339"
       x1="184.20131"
       gradientTransform="matrix(1.8597637,0,0,1.8597637,-262.05669,29.509429)"
       gradientUnits="userSpaceOnUse"
       id="linearGradient5839"
       xlink:href="#linearGradient3904"
       inkscape:collect="always" />
    <linearGradient
       id="linearGradient3904"
       inkscape:collect="always">
      <stop
         id="stop3906"
         offset="0"
         style="stop-color:#000000;stop-opacity:1" />
      <stop
         id="stop3908"
         offset="1"
         style="stop-color:#333333;stop-opacity:0;" />
    </linearGradient>
    <linearGradient
       y2="466.52423"
       x2="275.41809"
       y1="455.56406"
       x1="281.78204"
       gradientTransform="matrix(1.8597637,0,0,1.8597637,-262.05669,29.509429)"
       gradientUnits="userSpaceOnUse"
       id="linearGradient5841"
       xlink:href="#linearGradient3904"
       inkscape:collect="always" />
    <filter
       color-interpolation-filters="sRGB"
       id="filter3852"
       inkscape:collect="always">
      <feGaussianBlur
         id="feGaussianBlur3854"
         stdDeviation="0.96495391"
         inkscape:collect="always" />
    </filter>
    <filter
       color-interpolation-filters="sRGB"
       id="filter5015"
       inkscape:collect="always">
      <feGaussianBlur
         id="feGaussianBlur5017"
         stdDeviation="0.53573912"
         inkscape:collect="always" />
    </filter>
    <filter
       color-interpolation-filters="sRGB"
       height="1.3122677"
       y="-0.15613383"
       width="1.3122677"
       x="-0.15613383"
       id="filter3832"
       inkscape:collect="always">
      <feGaussianBlur
         id="feGaussianBlur3834"
         stdDeviation="3.92658"
         inkscape:collect="always" />
    </filter>
    <linearGradient
       y2="467.59238"
       x2="204.76392"
       y1="462.34238"
       x1="226.16853"
       gradientUnits="userSpaceOnUse"
       id="linearGradient5843"
       xlink:href="#linearGradient3872"
       inkscape:collect="always" />
    <linearGradient
       id="linearGradient3872"
       inkscape:collect="always">
      <stop
         id="stop3874"
         offset="0"
         style="stop-color:#e6e6e6;stop-opacity:1;" />
      <stop
         id="stop3876"
         offset="1"
         style="stop-color:#e6e6e6;stop-opacity:0;" />
    </linearGradient>
    <filter
       color-interpolation-filters="sRGB"
       id="filter3868"
       inkscape:collect="always">
      <feGaussianBlur
         id="feGaussianBlur3870"
         stdDeviation="0.43591212"
         inkscape:collect="always" />
    </filter>
  </defs>
  <sodipodi:namedview
     id="base"
     pagecolor="#ffffff"
     bordercolor="#666666"
     borderopacity="1.0"
     inkscape:pageopacity="0.0"
     inkscape:pageshadow="2"
     inkscape:zoom="1"
     inkscape:cx="350"
     inkscape:cy="320"
     inkscape:document-units="px"
     inkscape:current-layer="layer1"
     showgrid="false"
     inkscape:window-width="1678"
     inkscape:window-height="982"
     inkscape:window-x="0"
     inkscape:window-y="0"
     inkscape:window-maximized="1" />
  <metadata
     id="metadata35854">
    <rdf:RDF>
      <cc:Work
         rdf:about="">
        <dc:format>image/svg+xml</dc:format>
        <dc:type
           rdf:resource="http://purl.org/dc/dcmitype/StillImage" />
        <dc:title></dc:title>
      </cc:Work>
    </rdf:RDF>
  </metadata>
  <g
     inkscape:label="Camada 1"
     inkscape:groupmode="layer"
     id="layer1"
     transform="translate(0,-652.36218)">
    <g
       transform="matrix(0.9180358,0,0,0.9180358,2.0296586,36.613889)"
       id="g5768">
      <path
         transform="matrix(0.87628466,0,0,0.87628466,57.660003,668.80837)"
         style="fill:url(#linearGradient5835);fill-opacity:1;stroke:none;filter:url(#filter5610)"
         d="m 413.61942,246.43651 c -43.59781,53.33381 -206.17579,123.25359 -233.30719,142.24978 -15.65224,4.82145 -33.03474,3.81856 -46.58602,-1.96772 C 60.251351,355.34544 17.861534,335.71729 -8.5525517,296.60005 -17.020712,284.05936 -54.499112,266.46276 -52.994965,249.43651 c 6.18016,-69.95656 31.569076,-109.79238 120.537316,-125.86084 25.931264,-4.68342 62.906589,-13.85562 99.269879,-17.88895 175.75741,-19.494576 246.80719,61.08283 246.80719,140.74979 z"
         id="path5531"
         inkscape:connector-curvature="0"
         sodipodi:nodetypes="ccsssssc" />
      <path
         sodipodi:nodetypes="ccsssssc"
         inkscape:connector-curvature="0"
         id="path5534"
         d="m 391.15076,893.81935 c -34.8487,42.63089 -164.80088,98.51925 -186.48761,113.70335 -12.51118,3.854 -26.4054,3.0523 -37.23724,-1.5728 -58.73008,-25.07722 -92.6132,-40.76645 -113.72656,-72.03372 -6.76879,-10.02406 -36.726108,-24.08941 -35.52381,-37.69887 4.939939,-55.91783 25.23386,-87.75948 96.34815,-100.60335 20.72743,-3.74357 50.37801,-18.40079 79.34861,-14.29904 154.68142,21.90029 235.13378,148.78671 197.27846,112.50443 z"
         style="fill:#e8ba9c;fill-opacity:1;stroke:none;filter:url(#filter5544)"
         transform="matrix(0.73731797,0,0,0.68409048,58.736154,287.49342)" />
      <path
         transform="matrix(0.3586187,0,0,0.05074893,121.37066,902.30757)"
         style="fill:#e0a681;fill-opacity:1;stroke:none;filter:url(#filter5582)"
         d="m 391.15076,893.81935 c -34.8487,42.63089 -164.80088,98.51925 -186.48761,113.70335 -12.51118,3.854 -26.4054,3.0523 -37.23724,-1.5728 -58.73008,-25.07722 -92.6132,-40.76645 -113.72656,-72.03372 -6.76879,-10.02406 -36.726108,-24.08941 -35.52381,-37.69887 4.939939,-55.91783 27.459679,-9.11543 98.57397,-21.9593 20.72743,-3.74357 45.83099,57.08306 74.89697,53.85913 140.48679,-15.58245 199.50428,-97.97736 199.50428,-34.29779 z"
         id="path5548"
         inkscape:connector-curvature="0"
         sodipodi:nodetypes="ccsssssc" />
      <g
         id="g5462"
         transform="matrix(0.76210543,0,0,0.76210543,41.224872,215.20652)">
        <path
           style="fill:#000000;fill-rule:evenodd;stroke:#000000;stroke-width:0.42407888px;stroke-linecap:butt;stroke-linejoin:miter;stroke-opacity:1;display:inline"
           d="m 166.92648,854.4398 40.348,2.12819 c 9.42844,-1.55195 14.40684,-5.98647 19.57622,-10.29723 -1.85401,3.701 -2.92375,7.25104 -8.96622,11.75819 5.70167,-0.96699 9.00618,-3.65937 11.95497,-6.60783 -2.01499,2.56106 -2.25497,4.73572 -7.92014,8.09136 l 12.55267,0.60992 c 11.248,-1.82248 19.68792,-5.75883 27.79532,-9.94552 -4.67467,6.24813 -10.02858,9.32919 -15.24259,12.76534 17.91865,6.42061 29.80145,5.86103 41.69289,-0.96837 -3.2184,2.89283 -6.59688,5.77613 -12.55268,8.50584 11.23018,1.62608 23.78683,-3.61613 36.16372,-7.92751 -6.54118,5.56069 -12.28531,11.43679 -23.01328,15.34088 21.23856,6.44843 31.51152,2.88803 42.739,0.1989 -4.92429,4.01454 -9.89231,8.00624 -17.93246,10.39517 16.4995,6.1956 25.05001,3.27413 35.11771,2.09275 -5.32107,3.46679 -10.04314,7.27126 -19.57627,8.36357 11.2416,3.86613 21.63,5.44718 30.48518,2.9216 -8.48909,6.6969 -18.36108,10.11587 -30.03687,9.25949 3.73447,4.51573 10.46652,6.59346 21.36952,5.27888 -7.93457,2.0685 -15.90616,4.09088 -29.28967,-0.64047 l -2.24157,3.31937 c 8.58743,3.52144 11.47355,7.45586 14.64485,11.3697 -5.64035,-4.76638 -12.50254,-7.06476 -19.72567,-8.63388 -2.72913,2.35762 -3.96142,2.94781 -5.67863,3.94324 9.3493,3.87197 12.60296,7.38074 16.58749,10.93299 -6.77444,-4.04944 -13.54893,-7.00949 -20.32342,-8.11701 l -5.37973,2.30367 c 7.11658,4.31515 10.97649,6.55083 15.9898,13.24538 -7.1996,-4.47553 -14.34882,-8.99104 -26.59982,-9.45788 l -11.65605,5.38261 c 4.65986,2.39096 9.13285,5.11633 13.00102,8.92369 -10.90879,-6.19503 -21.72123,-9.13551 -34.81886,-4.9754 7.17008,4.03222 12.45351,9.47776 16.4381,15.89633 -8.27543,-7.22279 -17.03497,-12.13322 -26.89866,-14.3098 3.75454,2.84797 5.64122,5.58465 7.02354,8.29129 -7.93692,-6.51236 -17.61688,-9.19046 -29.14022,-7.81375 4.28264,2.55258 7.4564,5.12623 9.11566,8.96839 -10.39335,-9.05342 -27.97207,-11.26142 -46.62433,-12.44669 2.18136,-26.356 10.28258,-30.57132 -18.97852,-88.1454 z"
           id="path2261"
           sodipodi:nodetypes="cccccccccccccccccccccccccccccccccccccccc"
           inkscape:connector-curvature="0" />
        <path
           sodipodi:nodetypes="ccccc"
           inkscape:connector-curvature="0"
           id="rect3883"
           d="m 204.12907,858.99776 c 70.07,12.005 92.06214,30.42038 110.46434,49.31443 -31.39019,29.44427 -71.11787,33.87609 -109.14928,43.39669 -50.80756,-2.21909 -100.62695,-10.36727 -147.943288,-33.5338 46.927318,-46.03402 96.203818,-60.35436 146.628228,-59.17732 z"
           style="fill:url(#radialGradient5837);fill-opacity:1;stroke:none" />
        <path
           sodipodi:nodetypes="ccccc"
           inkscape:connector-curvature="0"
           id="path3912"
           d="m 204.12907,858.99776 c 70.07,12.005 92.06214,30.42038 110.46434,49.31443 -31.39019,29.44427 -71.11787,33.87609 -109.14928,43.39669 -50.80756,-2.21909 -100.62695,-10.36727 -147.943288,-33.5338 46.927318,-46.03402 96.203818,-60.35436 146.628228,-59.17732 z"
           style="fill:url(#linearGradient5839);fill-opacity:1;stroke:none" />
        <path
           style="fill:url(#linearGradient5841);fill-opacity:1;stroke:none"
           d="m 204.12907,858.99776 c 70.07,12.005 92.06214,30.42038 110.46434,49.31443 -31.39019,29.44427 -71.11787,33.87609 -109.14928,43.39669 -50.80756,-2.21909 -100.62695,-10.36727 -147.943288,-33.5338 46.927318,-46.03402 96.203818,-60.35436 146.628228,-59.17732 z"
           id="path3902"
           inkscape:connector-curvature="0"
           sodipodi:nodetypes="ccccc" />
        <path
           sodipodi:nodetypes="cccccccccccccccccccccccccccccccccccccccccccccccccccsccccccc"
           inkscape:connector-curvature="0"
           d="m 59.239145,921.34178 c 0.2472,-1.44176 -0.621477,-4.53758 0.0019,-5.77569 1.045522,-1.9889 2.379028,-2.21241 3.686852,-3.94061 1.782898,-2.3727 5.245239,-4.18469 7.253729,-6.26433 2.540995,-2.62143 5.316767,-4.86223 8.129306,-7.01678 6.977628,-5.23048 14.10873,-10.13941 21.351505,-14.79226 3.047453,-1.99696 6.129233,-3.91242 9.235373,-5.76856 3.25134,-2.03534 5.95544,-3.76983 9.34314,-5.4303 3.81245,-1.83616 7.72717,-3.32988 11.64212,-4.79912 4.04705,-1.50944 8.14465,-2.80261 12.25274,-4.03636 4.18526,-1.25656 8.41194,-2.28122 12.65312,-3.20845 4.60555,-1.00744 9.24187,-1.76603 13.88395,-2.46742 4.69517,-0.69633 9.40001,-1.28806 14.1078,-1.84015 4.6508,-0.55594 9.31399,-0.93247 13.97944,-1.24434 4.53589,-0.31197 9.08013,-0.40501 13.62247,-0.4346 4.39519,-0.0621 8.78809,0.14896 13.1759,0.43719 4.23939,0.26586 8.45262,0.88262 12.65665,1.57646 4.1685,0.6747 8.29445,1.65786 12.40685,2.71754 4.17195,1.06782 8.30293,2.34489 12.40603,3.75183 3.98257,1.35276 7.8979,2.96694 11.79064,4.65995 3.79084,1.67262 7.49167,3.61964 11.16004,5.65412 3.57424,2.03943 7.09068,4.22285 10.5804,6.46893 3.37348,2.18733 6.76075,4.34287 10.13171,6.53597 3.1112,2.0479 6.2209,4.09947 9.28426,6.25299 2.98953,2.1196 5.92089,4.35982 8.82034,6.65812 2.86946,2.28468 6.85882,6.14144 9.69833,8.48091 0.45349,0.38015 -0.2554,-0.73412 0.19808,-0.35394 -3.88798,5.96612 -7.77598,6.27905 -11.66397,9.10532 l 0,0 c -0.45042,-0.37796 -0.23662,-0.75593 -0.68703,-1.13391 -2.82559,-2.34258 -6.31319,-4.68938 -9.1774,-6.96129 -2.88896,-2.26783 -5.80255,-4.49076 -8.77954,-6.58271 -3.05828,-2.1269 -6.14977,-4.18076 -9.24686,-6.22183 -3.36568,-2.19236 -6.74264,-4.35883 -10.11379,-6.53857 -3.47196,-2.22261 -6.97077,-4.38381 -10.53081,-6.3891 -3.64385,-2.00219 -7.32428,-3.90518 -11.09049,-5.54077 -3.8712,-1.6665 -7.76857,-3.24035 -11.72702,-4.57206 -4.08604,-1.37499 -8.20045,-2.61784 -12.35223,-3.66236 -4.09469,-1.02722 -8.20521,-1.95806 -12.3522,-2.615 -4.18045,-0.67125 -8.37389,-1.22203 -12.58731,-1.46958 -4.36888,-0.2628 -8.74165,-0.44754 -13.11671,-0.36729 -4.52742,0.0534 -9.05596,0.15734 -13.57616,0.49396 -4.65142,0.32536 -9.29983,0.72466 -13.93626,1.29086 -4.70092,0.56541 -9.39937,1.16504 -14.08695,1.87928 -4.63301,0.71916 -9.2583,1.51596 -13.85162,2.55571 -4.22951,0.96574 -8.444,2.02959 -12.61859,3.30833 -4.09332,1.25473 -8.17501,2.57234 -12.20362,4.11303 -3.9032,1.49934 -7.14701,3.02603 -10.93343,4.93125 -3.37818,1.69906 -6.70855,3.52704 -9.966131,5.5509 -3.091572,1.87242 -6.154994,3.81279 -9.200059,5.7959 -1.602639,1.04001 -3.206309,2.07812 -4.793134,3.154 -0.532264,0.36089 -2.117303,1.46894 -1.591288,1.09464 19.251642,-13.69898 12.352181,-8.76166 8.688983,-6.13795 -2.812051,2.08331 -5.594298,4.24441 -8.157016,6.77288 -2.009158,2.00472 -1.814293,4.74517 -3.615845,7.03041 -1.276617,1.67951 -3.434129,3.8091 -4.557742,5.6501 -0.62103,1.07104 -4.712716,0.68127 -5.128522,1.89739 -8.565123,1.22233 -6.987913,4.67028 -10.500765,7.74736 z"
           id="path4105"
           style="fill:#000000;fill-opacity:1;stroke:none" />
        <path
           sodipodi:nodetypes="ccccccccccccccccccccccccccccccccccccccccccccccccccccccccccc"
           style="fill:#000000;fill-opacity:1;stroke:none"
           id="path4883"
           d="m 59.692554,919.09391 c -1.365977,1.19321 -0.544351,1.76308 0.108616,2.48018 1.090286,1.14962 3.944392,1.95317 5.279498,2.93043 1.820708,1.34237 8.295754,-0.28683 10.324384,0.86555 2.566158,1.45207 5.345853,2.66053 8.157947,3.81465 6.972276,2.79371 14.081372,5.38402 21.289171,7.81294 3.03427,1.04581 6.09873,2.04029 9.18465,2.99747 3.23362,1.058 6.56292,1.9275 9.91479,2.75073 3.77089,0.90673 7.6281,1.60017 11.48459,2.27873 3.9863,0.69582 8.01349,1.25767 12.0486,1.78293 4.11091,0.5349 8.25328,0.92686 12.40602,1.25897 4.50956,0.36097 9.03954,0.56931 13.57297,0.74267 4.58475,0.16737 9.17502,0.27082 13.76657,0.35001 4.5364,0.0846 9.07804,0.0599 13.61942,-0.005 4.4156,-0.0571 8.83106,-0.24745 13.2422,-0.47617 4.26956,-0.201 8.52657,-0.56767 12.77571,-0.98073 4.10589,-0.39156 8.1731,-0.9944 12.22847,-1.64356 4.02161,-0.63564 7.99022,-1.45603 11.94278,-2.32216 4.01008,-0.87426 7.97247,-1.87323 11.90287,-2.94943 3.81544,-1.03684 7.5557,-2.22856 11.27107,-3.46689 3.61717,-1.22042 7.13661,-2.6024 10.62124,-4.03566 3.393,-1.43115 6.72448,-2.94652 10.02761,-4.49841 3.19255,-1.50997 6.39966,-3.00139 9.58951,-4.51472 2.94315,-1.41114 5.8847,-2.82443 8.77744,-4.29704 2.8223,-1.44804 5.58358,-2.96606 8.31166,-4.51759 2.69951,-1.54164 7.51349,-6.61514 10.18182,-8.18836 0.42592,-0.25522 -1.30684,2.97661 -0.88095,2.72139 l -11.66867,-4.88956 0,0 c -0.42301,0.25372 -0.84599,0.50745 -1.269,0.76118 -2.65472,1.57436 -5.30715,3.1512 -8.00202,4.6848 -2.71907,1.53246 -5.46373,3.03906 -8.27493,4.46963 -2.88879,1.45619 -5.81258,2.86988 -8.74228,4.27611 -3.18475,1.5126 -6.38145,3.01011 -9.57201,4.51535 -3.28679,1.53668 -6.60198,3.03759 -9.98251,4.44728 -3.46203,1.41233 -6.96329,2.76649 -10.55798,3.96312 -3.69544,1.22107 -7.4198,2.38738 -11.21264,3.41012 -3.91503,1.05592 -7.86262,2.03322 -11.85401,2.89225 -3.93659,0.84547 -7.89222,1.6333 -11.89359,2.25699 -4.03334,0.63418 -8.08382,1.19599 -12.1652,1.57498 -4.23173,0.39672 -8.47017,0.7462 -12.72087,0.93511 -4.39761,0.21355 -8.79821,0.39637 -13.1995,0.43763 -4.52828,0.0552 -9.05643,0.0655 -13.57926,-0.0262 -4.58542,-0.0876 -9.16974,-0.19623 -13.7478,-0.37488 -4.52531,-0.18466 -9.04605,-0.41675 -13.54492,-0.79798 -4.14287,-0.35611 -8.27489,-0.77251 -12.37627,-1.32144 -4.02158,-0.53879 -8.03425,-1.11634 -12.00381,-1.83209 -3.84623,-0.69748 -7.6917,-1.41165 -11.43992,-2.36168 -3.34404,-0.84711 -6.64657,-1.77505 -9.88585,-2.82573 -3.07237,-0.96784 -6.119938,-1.97846 -9.151338,-3.01598 -1.595305,-0.5438 -3.191544,-1.08639 -4.772843,-1.6528 -0.530402,-0.19001 -2.111199,-0.77602 -1.586343,-0.57756 19.209104,7.26384 12.323858,4.64371 8.668086,3.2512 -2.808954,-1.11095 -5.591921,-2.2707 -8.175639,-3.66521 -2.026452,-1.1069 -4.011564,-2.25962 -5.847095,-3.54793 -1.302969,-0.94941 -2.653288,-1.8669 -3.813836,-2.92258 -0.643442,-0.61591 -1.272246,-1.25315 -1.721936,-1.96822 -5.076022,1.01029 -9.518848,1.5206 -16.722476,-2.14985 z"
           inkscape:connector-curvature="0" />
        <path
           inkscape:connector-curvature="0"
           id="path4885"
           d="m 199.58897,862.43536 c -4.73608,0.0558 -9.49777,0.19503 -14.22628,0.54715 -4.86576,0.34035 -9.74091,0.74523 -14.59101,1.33751 -4.91756,0.59146 -9.80902,1.19833 -14.71261,1.94545 -4.84654,0.75233 -9.66443,1.58737 -14.46942,2.67504 -2.06889,0.47239 -4.14184,0.99012 -6.20119,1.51988 -0.96519,4.22312 -1.5199,8.61628 -1.5199,13.13193 0,32.42546 26.3034,58.72886 58.72887,58.72886 32.42546,0 58.72886,-26.3034 58.72886,-58.72886 0,-4.64564 -0.5608,-9.16231 -1.5807,-13.49669 -3.43417,-1.10612 -6.85575,-2.10362 -10.33531,-2.97899 -4.28337,-1.07457 -8.61141,-2.04861 -12.94951,-2.73583 -4.37311,-0.70219 -8.78514,-1.26093 -13.19272,-1.51989 -4.57022,-0.27493 -9.10241,-0.50951 -13.67908,-0.42556 z"
           style="fill:#000000;stroke:#000000;stroke-width:1.94546986;stroke-opacity:1" />
        <path
           transform="matrix(1.9454698,0,0,1.9454698,-283.00913,-10.715774)"
           inkscape:connector-curvature="0"
           id="path3034"
           d="m 247.40625,452.46875 c -0.12513,0.19808 -0.22424,0.36938 -0.34375,0.5625 1.23834,-0.11244 2.47782,-0.24181 3.71875,-0.375 0.29006,-0.0315 0.58198,-0.0688 0.875,-0.0937 -1.41166,-0.0724 -2.83188,-0.11976 -4.25,-0.0937 z m 5.125,0.15625 c -0.48886,0.2928 -0.98376,0.57598 -1.46875,0.875 -0.72914,0.05 -1.45807,0.0795 -2.1875,0.125 -0.56375,0.0351 -1.12338,0.065 -1.6875,0.0937 -0.0312,0.002 -0.0625,-0.002 -0.0937,0 -0.14573,-2.4e-4 -0.29163,-8e-5 -0.4375,0 -0.23596,0.39104 -0.47326,0.81662 -0.6875,1.1875 1.01056,-0.007 2.02033,-0.0301 3.03125,-0.0625 -1.23289,0.83885 -2.4503,1.70654 -3.625,2.625 -0.19043,0.0299 -0.18218,0.0999 -0.34375,-0.0312 -0.002,0.0718 -0.006,0.16218 -0.0312,0.25 -0.23519,0.0967 -0.47991,0.18904 -0.71875,0.28125 -0.0107,0.0209 -0.0206,0.0416 -0.0312,0.0625 0.13235,10e-4 0.27397,-0.003 0.40625,0 -0.17117,0.13912 -0.33411,0.29006 -0.5,0.4375 -0.0216,-0.0291 -0.0399,-0.0632 -0.0625,-0.0937 -0.50944,1.01418 -0.94074,1.91765 -1.34375,2.78125 0.0521,0.001 0.10416,-10e-4 0.15625,0 -0.004,0.006 0.004,0.025 0,0.0312 -0.0625,-2.7e-4 -0.12501,10e-5 -0.1875,0 -0.10837,0.23229 -0.20837,0.43309 -0.3125,0.65625 0.0312,-1.7e-4 0.0625,-4.3e-4 0.0937,0 -0.0437,0.0694 -0.1141,0.18253 -0.15625,0.25 -0.009,-0.0207 -0.0239,-0.0405 -0.0312,-0.0625 -1.46276,3.1283 -2.65359,5.48557 -5.5625,7.96875 -0.0143,0.0176 -0.0169,0.0449 -0.0312,0.0625 -0.56581,0.69453 -1.14728,1.3725 -1.71875,2.0625 0.0528,-0.0932 0.11118,-0.18402 0.15625,-0.28125 0.063,-0.13582 0.18455,-0.31849 0.0937,-0.4375 -0.0692,-0.0907 -0.19258,-0.0261 -0.3125,0 -0.73222,0.52446 -1.57653,1.05827 -2.5,1.625 -0.0287,0.0243 -0.0651,0.0381 -0.0937,0.0625 -0.18696,0.1589 -0.37219,0.31956 -0.5625,0.46875 -0.57282,0.44904 -1.16643,0.87753 -1.75,1.3125 0.46342,-0.38474 0.92214,-0.78993 1.5,-1.25 -0.68447,0.40271 -1.45578,0.81742 -2.25,1.25 -0.0611,0.1257 -0.12669,0.24956 -0.1875,0.375 -0.43674,0.36319 -0.86598,0.73052 -1.375,1.15625 -0.21397,0.18416 -0.4153,0.37375 -0.625,0.5625 -0.41053,0.27801 -0.83201,0.54174 -1.25,0.8125 0.0441,0.0501 0.0805,0.10648 0.125,0.15625 0.0714,-0.0445 0.14751,-0.0799 0.21875,-0.125 -0.053,0.0511 -0.10358,0.10487 -0.15625,0.15625 0.0844,0.0939 0.16421,0.18867 0.25,0.28125 0.52045,-0.53605 1.03669,-1.05888 1.59375,-1.5625 0.26717,-0.18048 0.54836,-0.34796 0.8125,-0.53125 -0.22906,0.49574 -0.46734,0.96841 -0.6875,1.46875 l 0.28125,-0.125 c -0.4603,0.46697 -0.91445,0.93977 -1.375,1.40625 0.0836,0.0838 0.16527,0.16738 0.25,0.25 2.39054,-2.42639 4.76791,-4.84942 7.15625,-7.28125 0.10103,0.0885 -0.007,0.2838 -0.0625,0.40625 -0.13428,0.29786 -0.33066,0.56434 -0.5,0.84375 -0.28576,0.47149 -0.60224,0.91531 -0.90625,1.375 -0.82298,0.77369 -1.64614,1.54005 -2.5,2.28125 -0.5457,0.47371 -0.71004,0.60036 -1.21875,1.0625 -0.14698,0.13352 -0.29353,0.26948 -0.4375,0.40625 -0.3899,0.42137 -0.73982,0.8706 -1.0625,1.34375 0.14638,0.13555 0.28788,0.27421 0.4375,0.40625 0.43696,-0.78333 0.97789,-1.50605 1.59375,-2.15625 0.8101,-0.71139 1.61279,-1.40689 2.40625,-2.125 -0.24114,0.35197 -0.47753,0.71067 -0.71875,1.0625 -0.96616,1.18486 -1.92481,2.3776 -2.84375,3.59375 0.53568,0.45149 1.08326,0.8757 1.65625,1.28125 0.44596,-0.73339 0.90444,-1.45756 1.40625,-2.15625 1.92242,-2.6055 3.8981,-5.17408 5.6875,-7.875 -0.0239,0.0615 -0.0384,0.12611 -0.0625,0.1875 -0.42043,0.59553 -0.83646,1.18156 -1.25,1.78125 -0.55243,0.80175 -1.89866,2.74481 -2.4375,3.5625 -0.4984,0.75633 -0.96834,1.51582 -1.4375,2.28125 -0.4335,0.57216 -0.88078,1.14553 -1.3125,1.71875 -0.11503,0.16614 -0.22723,0.33488 -0.34375,0.5 -0.0335,0.0396 -0.0602,0.0855 -0.0937,0.125 0.45553,0.31694 0.92918,0.61977 1.40625,0.90625 0.31718,-0.48541 0.61401,-0.98624 0.9375,-1.46875 -0.25452,0.52904 -0.50563,1.05987 -0.75,1.59375 0.26944,0.15854 0.56793,0.28897 0.84375,0.4375 0.25088,-0.22848 0.50587,-0.45265 0.75,-0.6875 -0.0989,0.25873 -0.18056,0.52317 -0.28125,0.78125 0.0685,-0.0918 0.059,-0.0516 0.0937,-0.0937 -0.0575,0.0796 -0.1192,0.14157 -0.15625,0.21875 -0.004,0.008 0.003,0.0237 0,0.0312 0.44412,0.22829 0.88458,0.42323 1.34375,0.625 0.008,-0.0315 0.0227,-0.0623 0.0312,-0.0937 0.34454,-0.9582 0.77079,-1.89537 1.21875,-2.8125 -0.33629,1.00374 -0.69174,1.99895 -1.03125,3 1.00324,0.42908 2.05898,0.79833 3.125,1.09375 0.0119,-0.23927 0.0192,-0.48118 0.0312,-0.71875 0.0683,-0.76307 0.14077,-1.52156 0.21875,-2.28125 0.2293,-0.58401 0.45863,-1.166 0.6875,-1.75 0.51835,-1.32525 1.08158,-2.63595 1.65625,-3.9375 -0.0887,0.50658 -0.17006,1.0201 -0.25,1.53125 -0.39124,2.50168 -0.49885,3.64968 -0.78125,6.15625 -0.0431,0.44531 -0.0875,0.89447 -0.125,1.34375 0.37289,0.0795 0.74612,0.15623 1.125,0.21875 0.30049,0.0496 0.60223,0.11757 0.90625,0.15625 0.0352,-0.3117 0.0603,-0.62456 0.0937,-0.9375 0.009,-0.0836 0.0224,-0.16643 0.0312,-0.25 0.029,-4.3e-4 0.0731,-0.016 0.0937,-0.0312 0.2875,-0.21178 0.44409,-0.32383 0.59375,-0.4375 -0.0674,0.40688 -0.14688,0.81773 -0.1875,1.0625 -0.0238,0.18683 -0.0643,0.42616 -0.0937,0.65625 0.38071,0.0402 0.77061,0.071 1.15625,0.0937 0.008,-0.0829 0.0165,-0.174 0.0312,-0.25 0.069,-0.35691 0.1304,-0.73476 0.1875,-1.09375 0.25037,-1.73197 0.45481,-3.44981 0.65625,-5.1875 0.017,0.0822 0.0181,0.1674 0.0312,0.25 0.0256,0.16157 0.0314,0.30813 0.0625,0.46875 0.0146,0.0755 0.0355,0.20366 0.0625,0.28125 0.008,0.10378 -0.007,0.20867 0,0.3125 -0.002,1.00891 0.004,2.02234 0,3.03125 -0.007,0.56129 -0.0102,1.12462 0,1.6875 -0.0313,0.17664 -0.0555,0.3555 -0.0937,0.53125 0.17889,0.004 0.35144,0 0.53125,0 0.17736,0 0.35478,0.004 0.53125,0 -0.006,-0.0219 0.005,-0.0427 0,-0.0625 0.087,-0.19527 0.0627,-0.44662 0.0625,-0.84375 0.019,0.24025 0.0445,0.4784 0.0625,0.71875 0.004,0.0502 0.0255,0.10325 0.0312,0.15625 0.76083,-0.0207 1.50773,-0.0684 2.25,-0.15625 0.0719,-0.35303 0.13861,-0.70371 0.1875,-1.0625 0.11638,-0.85475 0.21945,-1.70268 0.28125,-2.5625 0.0559,0.15091 0.0144,0.0506 0.21875,0.59375 0.13734,0.36506 0.26354,0.73408 0.40625,1.09375 -0.0436,0.60241 -0.10401,1.20763 -0.15625,1.8125 0.54052,-0.0848 1.06539,-0.19333 1.59375,-0.3125 0.012,-0.22918 0.0194,-0.45962 0.0312,-0.6875 0.007,0.0525 0.0209,0.10387 0.0312,0.15625 0.0528,0.22798 0.0954,0.38018 0.125,0.5 0.36741,-0.0859 0.73281,-0.17924 1.09375,-0.28125 -0.006,-0.15577 -0.0195,-0.31674 -0.0312,-0.46875 -0.0219,-0.28239 -0.0666,-0.56181 -0.0937,-0.84375 -0.0343,-0.35717 -0.0553,-0.70573 -0.0937,-1.0625 -0.0241,-0.1978 -0.0695,-0.39611 -0.0937,-0.59375 0.007,-0.0257 0.007,-0.0615 0,-0.0937 -0.1228,-0.99549 -0.24418,-1.98293 -0.4375,-2.96875 -0.11316,-0.57707 -0.23041,-1.03337 -0.34375,-1.5 0.009,-0.57286 0.0233,-1.14588 0.0312,-1.71875 0.66144,2.1847 1.36327,4.36873 2.09375,6.53125 0.0636,0.77811 0.11932,1.56276 0.1875,2.34375 0.32446,-0.11006 0.65047,-0.22078 0.96875,-0.34375 -6e-4,-0.0104 5.9e-4,-0.0209 0,-0.0312 0.0342,-0.0108 0.0902,-0.0199 0.125,-0.0312 0.10376,-0.0408 0.20943,-0.0829 0.3125,-0.125 -0.18839,-0.51559 -0.34898,-1.04512 -0.53125,-1.5625 -0.0393,-0.91764 -0.0689,-1.83172 -0.0937,-2.75 0.21733,0.36087 0.46472,0.70517 0.6875,1.0625 0.008,0.0122 0.0236,0.019 0.0312,0.0312 0.0755,0.97694 0.14404,1.94656 0.15625,2.8125 10e-4,0.10019 -0.0185,0.2095 -0.0312,0.3125 2.00442,-0.84145 3.86632,-1.93795 5.5625,-3.25 -0.47988,-0.64477 -0.9575,-1.29224 -1.40625,-1.90625 -0.16244,-0.75459 -0.31943,-1.50201 -0.5,-2.25 0.66163,0.78264 1.30205,1.59113 1.875,2.4375 0.27297,0.40324 0.50371,0.78408 0.75,1.1875 1.03638,-0.86317 1.99165,-1.82505 2.875,-2.84375 -0.0959,-0.10227 -0.18471,-0.20966 -0.28125,-0.3125 0.67662,-0.15971 0.19893,-0.55306 -0.21875,-1.0625 -0.32984,-0.34191 -0.66091,-0.66777 -1,-1 -0.38214,-0.44745 -0.77206,-0.8982 -1.15625,-1.34375 1.27624,0.75867 2.57029,1.47577 3.90625,2.125 0.42596,-0.58042 0.84361,-1.16397 1.21875,-1.78125 -0.29084,-0.18905 -0.58491,-0.37364 -0.875,-0.5625 -0.0381,-0.0782 -0.16694,-0.12777 -0.28125,-0.1875 -0.0281,-0.0147 -0.073,-0.0151 -0.0937,-0.0312 -0.0347,-0.0271 -0.0588,-0.0669 -0.0937,-0.0937 -0.14727,-0.11325 -0.28914,-0.23193 -0.4375,-0.34375 0.14742,0.038 0.28989,0.0878 0.4375,0.125 0.45905,0.35083 0.92232,0.70136 1.375,1.0625 0.25293,-0.41776 0.45901,-0.8791 0.6875,-1.3125 -0.87326,-0.66619 -2.11207,-1.57542 -2.59375,-1.9375 -0.19001,-0.14339 -0.37349,-0.29284 -0.5625,-0.4375 1.1286,0.66664 2.24767,1.34724 3.34375,2.0625 0.13605,-0.26763 0.24848,-0.53939 0.375,-0.8125 -0.56354,-0.34668 -1.11823,-0.6933 -1.6875,-1.03125 0.29963,0.0951 0.60627,0.18723 0.90625,0.28125 0.0428,0.0198 0.0816,0.0437 0.125,0.0625 0.0501,0.0156 0.10614,0.0157 0.15625,0.0312 0.0716,0.0258 0.14471,0.0805 0.21875,0.0937 0.11397,0.0532 0.22705,0.0884 0.34375,0.0625 0.0414,-0.009 0.0845,-0.0191 0.125,-0.0312 0.0235,0.01 0.0387,0.0225 0.0625,0.0312 0.11143,-0.2556 0.20952,-0.52126 0.3125,-0.78125 -0.0402,-0.0147 -0.0835,-0.0201 -0.125,-0.0312 0.0502,-0.11284 -0.17784,-0.15115 -0.28125,-0.21875 -0.29573,-0.19324 -0.62461,-0.36347 -0.9375,-0.53125 0.0396,-0.1039 0.0948,-0.15792 0.15625,-0.1875 0.0471,-0.0445 0.19866,-0.11811 0.34375,-0.1875 0.24636,0.1321 0.43417,0.24553 0.59375,0.34375 -0.16464,0.0115 -0.29799,-0.003 -0.4375,0 0.26265,0.18034 0.55494,0.4295 0.8125,0.53125 0.15695,-0.41111 0.30213,-0.82875 0.4375,-1.25 -0.22164,-0.0751 -0.46463,-0.12424 -0.65625,-0.21875 -0.34554,-0.17041 -0.60602,-0.2955 -0.90625,-0.4375 0.54159,0.14764 1.08341,0.2921 1.625,0.4375 0.0608,-0.19553 0.1314,-0.39618 0.1875,-0.59375 -2.08063,-0.5563 -4.1605,-1.15633 -6.21875,-1.78125 -0.45413,-0.19308 -0.88933,-0.40134 -1.34375,-0.59375 1.20883,0.0897 2.41629,0.18964 3.625,0.28125 0.0207,0.002 0.0418,-0.002 0.0625,0 0.0526,0.004 0.10366,0.0272 0.15625,0.0312 1.03515,0.18088 2.08631,0.33788 3.125,0.5 0.31173,0.0468 0.62405,0.10928 0.9375,0.15625 0.21682,-0.9797 0.37163,-1.98061 0.46875,-3 -0.38336,-0.0243 -0.77187,-0.0426 -1.15625,-0.0625 0.3966,-1.1e-4 0.79158,2.7e-4 1.1875,0 0.0174,-0.18779 0.0181,-0.37352 0.0312,-0.5625 -2.24939,0.004 -4.49699,0.0103 -6.75,0 1.14274,-0.10006 2.29218,-0.18153 3.4375,-0.25 1.10369,0.039 2.20837,0.0762 3.3125,0.125 0.0347,-0.53708 0.0625,-1.07916 0.0625,-1.625 0,-0.313 -0.0194,-0.62736 -0.0312,-0.9375 -0.31391,-0.038 -0.62224,-0.0906 -0.9375,-0.125 0.0199,-0.0451 0.0574,-0.0721 0.0625,-0.125 0.0294,-0.30747 -0.60017,-0.17685 -0.90625,-0.21875 -0.67929,-0.0929 -2.23489,-0.1926 -3.28125,-0.25 0.61541,10e-4 1.22835,-0.002 1.84375,0 1.0529,0.003 2.10335,0.0271 3.15625,0.0312 0.0125,1e-4 0.0189,-1.2e-4 0.0312,0 -0.0167,-0.25261 -0.0694,-0.49952 -0.0937,-0.75 -1.01517,-0.006 -2.02834,-0.0219 -3.0625,-0.0312 -0.6666,-0.004 -1.3334,0.004 -2,0 0.0535,-0.0299 0.10281,-0.0645 0.15625,-0.0937 0.0225,-0.0123 0.0363,-0.0283 0.0312,-0.0312 1.31589,-0.0493 2.62511,-0.0999 3.9375,-0.21875 0.25085,-0.20894 0.86563,-0.34144 0.8125,-0.625 -0.008,0.004 -0.0237,-0.004 -0.0312,0 -0.003,-0.0114 0.005,-0.0193 0,-0.0312 0.0206,-3.8e-4 0.0417,-1.3e-4 0.0625,0 -0.0486,-0.3479 -0.0936,-0.68808 -0.15625,-1.03125 -0.0837,-0.008 -0.16631,-0.0238 -0.25,-0.0312 -0.66787,-0.0593 -1.21241,-0.0921 -1.78125,-0.125 0.33424,-0.0333 0.66598,-0.0579 1,-0.0937 0.31245,-0.0336 0.62482,-0.0853 0.9375,-0.125 -0.0416,-0.20951 -0.0784,-0.4174 -0.125,-0.625 -0.55684,-0.007 -1.103,0.008 -1.65625,0.0312 -3.04533,0.003 -6.07968,0.003 -9.125,0 0.29861,-0.15904 0.58496,-0.32655 0.875,-0.5 2.32229,0.002 4.64672,0.0264 6.96875,0.0625 0.62185,0.0131 1.18485,0.0185 1.75,0.0312 0.38653,0.0644 0.7706,0.14607 1.15625,0.21875 -0.007,-0.032 -0.0237,-0.0618 -0.0312,-0.0937 -1.27339,-0.41014 -2.52715,-0.78942 -3.8125,-1.125 -0.83319,-0.10733 -1.6621,-0.21835 -2.5,-0.3125 0.11664,-0.001 0.24405,10e-4 0.375,0 0.31212,0.0247 0.631,0.048 0.9375,0 -1.59664,-0.38966 -3.19931,-0.74445 -4.8125,-1 -0.39416,-0.0633 -0.79202,-0.0991 -1.1875,-0.15625 -0.052,0.002 -0.10418,-0.003 -0.15625,0 -0.0833,-1.3e-4 -0.16674,1.2e-4 -0.25,0 -1.26786,2.8e-4 -2.54465,0.006 -3.8125,0 -0.24793,-0.001 -0.51288,-0.0724 -0.75,0 -0.0309,-3.4e-4 -0.0628,4.1e-4 -0.0937,0 -0.0123,-1.4e-4 -0.0448,7.8e-4 -0.0625,0 0.2359,-0.12329 0.4514,-0.25204 0.6875,-0.375 0.0294,-0.0153 0.0642,-0.0161 0.0937,-0.0312 0.0167,-0.007 0.0434,0.009 0.0625,0 0.0102,-0.003 0.0206,-0.0276 0.0312,-0.0312 0.009,-0.003 0.0223,0.003 0.0312,0 -0.0625,-0.004 -0.12502,-0.0276 -0.1875,-0.0312 -0.0732,-0.004 -0.14557,0.004 -0.21875,0 -0.29632,0.16542 -0.57919,0.33124 -0.875,0.5 -0.0532,0.006 -0.10738,-0.014 -0.15625,0 0.25596,-0.16797 0.49047,-0.36911 0.75,-0.53125 -0.0522,-0.003 -0.10404,0.003 -0.15625,0 z m 14.3125,17.09375 c -0.18991,-0.1304 -0.36951,-0.21909 -0.5,-0.15625 -0.13918,0.13173 0.1099,0.16554 0.5,0.15625 z m -15.0625,-16.5 c -0.0493,0.0345 -0.0763,0.0968 -0.0937,0.15625 -0.0441,0.0271 -0.0813,0.066 -0.125,0.0937 -0.0519,0.004 -0.10435,-0.004 -0.15625,0 0.12577,-0.082 0.24957,-0.16743 0.375,-0.25 z m 6.59375,1.25 c 0.42706,0.0439 0.85419,0.0799 1.28125,0.125 -0.16715,0.13288 -0.31784,0.25182 -0.4375,0.34375 -0.98511,-0.004 -1.98493,0.009 -2.96875,-0.0312 0.0725,-0.0164 0.14628,-0.0462 0.21875,-0.0625 1.00456,-0.22638 1.33606,-0.2726 1.90625,-0.375 z m -2.625,0.125 c -0.18506,0.0484 -0.34281,0.10272 -0.5,0.1875 -0.27322,-0.0618 -0.55925,-0.0577 -0.5,0.375 -0.0808,0.0739 -0.15551,0.1213 -0.25,0.21875 -0.0668,0.0688 0.18925,0.0668 0.28125,0.0937 1.20275,0.0525 2.39003,0.035 3.59375,0.0312 -0.12195,0.0756 -0.17237,0.1168 -0.34375,0.21875 -0.0615,0.0365 -0.1222,0.0645 -0.1875,0.0937 -0.13743,0.0614 -0.27006,0.12337 -0.40625,0.1875 -1.05335,-8.9e-4 -2.1029,-2e-5 -3.15625,0 -0.38271,-4.2e-4 -0.76071,-0.0392 -1.09375,0.0625 -0.30297,0.0128 -0.55649,0.11054 -0.5625,0.4375 -0.0382,0.0528 -0.0894,0.0919 -0.125,0.15625 -0.048,0.0867 0.0519,0.10754 0.1875,0.0937 0.10496,0.0543 0.30732,-0.004 0.5,-0.0625 0.80052,0.0402 1.60543,0.0909 2.40625,0.125 -0.22705,0.0905 -0.45285,0.1828 -0.78125,0.3125 -0.10091,0.039 -0.21099,0.0565 -0.3125,0.0937 -1.54242,0.0742 -3.07997,0.15177 -4.625,0.1875 -0.27116,0.006 -0.5413,-0.004 -0.8125,0 -0.009,0.003 -0.0223,-0.003 -0.0312,0 -0.0835,10e-4 -0.16655,-0.001 -0.25,0 -0.17826,-0.0274 -0.37471,-0.11449 -0.5,0 -0.007,0.007 0.006,0.0238 0,0.0312 -0.26079,0.003 -0.52046,-0.001 -0.78125,0 -0.0316,1.6e-4 -0.0621,5.4e-4 -0.0937,0 2.29928,-1.00577 4.62956,-1.95425 7,-2.78125 0.44743,-0.0185 0.89648,-0.0408 1.34375,-0.0625 z m 4.3125,0.0625 c 0.95859,0.10261 1.91799,0.19576 2.875,0.3125 -1.09373,-0.007 -2.18752,-0.0244 -3.28125,-0.0312 0.13439,-0.092 0.27462,-0.18497 0.40625,-0.28125 z m -6.625,0.0312 c -1.82884,0.68753 -3.61405,1.44286 -5.40625,2.21875 -0.44239,0.20492 -0.79573,0.34675 -1.125,0.5 -0.32901,-0.0225 -0.67709,-0.0487 -1,0 1.11154,-0.89389 2.26182,-1.7533 3.4375,-2.5625 0.55243,-0.0173 1.10377,-0.0514 1.65625,-0.0625 0.81097,-0.0283 1.6261,-0.063 2.4375,-0.0937 z m 8.53125,1.875 c 0.83308,-2e-5 1.66693,-0.001 2.5,0 -0.33275,0.0288 -0.66711,0.0664 -1,0.0937 -0.49905,-0.026 -1.00098,-0.0673 -1.5,-0.0937 z m -5.8125,0.28125 c 0.73806,0.0319 1.48108,0.0538 2.21875,0.0937 0.44625,0.023 0.36302,0.0162 0.65625,0.0312 -1.22959,0.0743 -2.45787,0.15567 -3.6875,0.21875 0.27018,-0.11367 0.54476,-0.22419 0.8125,-0.34375 z m 6.5625,0.34375 c 0.32417,0.0182 0.24481,10e-4 0.78125,0.0312 1.1639,0.065 2.33755,0.12224 3.5,0.21875 -2.06112,0.007 -2.6212,-0.001 -4.75,0 -1.02141,-2.3e-4 -2.04109,7.6e-4 -3.0625,0 1.17447,-0.0867 2.35729,-0.15774 3.53125,-0.25 z m -16.6875,0.875 c 0.0419,-0.005 0.0831,0.005 0.125,0 0.25659,-0.001 0.51977,-0.002 0.75,0 0.17721,0.002 0.35404,-0.002 0.53125,0 0.0521,5e-4 0.10413,-5.1e-4 0.15625,0 1.28244,0.0125 2.56138,0.0444 3.84375,0.0625 -0.0495,0.0107 -0.10674,0.0205 -0.15625,0.0312 l -0.4375,0.3125 c -0.2173,0.0208 -0.43891,0.0421 -0.65625,0.0625 -0.27184,0.0255 -0.55922,-0.0394 -0.8125,0.0625 -0.0766,0.0308 -0.14662,0.0855 -0.21875,0.125 -0.0494,0.0441 -0.14472,0.0542 -0.21875,0.0937 -0.56217,0.01 -1.12496,0.0166 -1.6875,0.0312 -0.007,-0.002 -0.0233,7.9e-4 -0.0312,0 -0.31263,0.008 -0.62508,0.0261 -0.9375,0.0312 0.01,-0.0211 0.0217,-0.0414 0.0312,-0.0625 0.1142,-0.14061 0.24593,-0.30052 0.1875,-0.375 0.0229,-0.0612 0.0421,-0.12555 0.0625,-0.1875 -0.0942,0.0532 -0.18312,0.10868 -0.28125,0.15625 -0.17682,0.0225 -0.35231,0.12813 -0.53125,0.21875 0.033,-0.1416 0.0373,-0.29433 0.0625,-0.4375 0.064,-0.0308 0.15417,-0.0944 0.21875,-0.125 z m 6.78125,0.0937 c 0.59427,0.009 1.18701,0.0204 1.78125,0.0312 -0.83925,0.0468 -1.66163,0.12343 -2.5,0.1875 0.24176,-0.0701 0.47911,-0.14184 0.71875,-0.21875 z m 10.3125,0.25 c -2.80115,0.12 -5.60341,0.24098 -8.40625,0.3125 0.72725,-0.0397 1.45997,-0.0896 2.1875,-0.125 2.07306,-0.0727 4.14423,-0.15628 6.21875,-0.1875 z m 0.625,0.46875 c 0.14593,-0.005 0.2916,0.005 0.4375,0 -0.0687,0.012 -0.21474,0.0513 -0.375,0.0937 -0.003,-0.033 -0.0292,-0.0685 -0.0625,-0.0937 z m -17.90625,0.9375 c 0.0208,1.6e-4 0.0417,-1.6e-4 0.0625,0 -0.0424,0.0303 -0.0839,0.0617 -0.125,0.0937 0.0203,-0.0317 0.0456,-0.0606 0.0625,-0.0937 z m 0.53125,0 c 0.0834,7.3e-4 0.16663,-7.7e-4 0.25,0 0.0155,0.0263 0.0217,0.0674 0.0312,0.0937 -0.0168,0.0631 -0.0469,0.124 -0.0625,0.1875 -0.18968,-8e-4 -0.23382,0.001 -0.53125,0 0.10585,-0.0926 0.2061,-0.18923 0.3125,-0.28125 z m 1.09375,0.0312 c 0.41675,0.005 0.83336,-0.006 1.25,0 -0.0282,0.0225 -0.0698,0.0396 -0.0937,0.0625 -0.064,0.061 -0.0487,0.13043 -0.0312,0.21875 -0.2687,-0.007 -0.96989,0.002 -1.1875,0 0.024,-0.0916 0.042,-0.18857 0.0625,-0.28125 z m 2.21875,0 c 2.4477,0.0385 4.89513,0.10973 7.34375,0.1875 0.42412,0.0242 0.85724,0.0374 1.28125,0.0625 1.59887,0.11234 3.18645,0.23534 4.78125,0.375 -2.23827,0.029 -4.48013,0.0358 -6.71875,0.0312 -2.14189,-0.13451 -4.26209,-0.25395 -6.40625,-0.34375 -0.20157,-0.005 -0.1187,0.004 -0.28125,0 0.0142,-0.10342 0.017,-0.2254 0,-0.3125 z m 15.71875,0.84375 c 0.31253,0.0319 0.62503,0.0597 0.9375,0.0937 -0.13604,0.063 -0.25424,0.1021 -0.375,0.125 -0.0937,-0.003 -0.18755,0.003 -0.28125,0 -0.0104,-3.2e-4 -0.0208,3.2e-4 -0.0312,0 -0.10475,-0.0334 -0.18192,-0.0912 -0.25,-0.21875 z m 1.65625,0.1875 c 0.24155,0.0273 0.47739,0.0649 0.71875,0.0937 -0.56249,-0.0159 -1.12505,-0.0141 -1.6875,-0.0312 0.0935,-0.004 0.18775,-0.0266 0.28125,-0.0312 0.12387,-0.006 0.39712,-0.005 0.6875,-0.0312 z m -23.875,0.96875 c 0.0208,3e-4 0.0417,-3e-4 0.0625,0 -0.0324,0.0723 -0.0609,0.14663 -0.0937,0.21875 0.003,-0.0658 0.031,-0.17601 0.0312,-0.21875 z m 9.78125,0.8125 c 0.52793,-0.003 1.05414,0.002 1.53125,0 0.0389,-1.5e-4 0.0855,1.5e-4 0.125,0 0.006,0.007 -0.007,0.0252 0,0.0312 0.0863,0.0736 0.17604,0.12964 0.28125,0.15625 -0.63933,-0.0586 -1.26873,-0.11134 -1.90625,-0.15625 -0.004,-0.005 -0.0274,0.004 -0.0312,0 -0.006,-0.004 0.005,-0.0254 0,-0.0312 z m 5.28125,0.0312 c 0.0415,8.7e-4 0.0835,-9e-4 0.125,0 0.93921,0.0203 1.87342,0.064 2.8125,0.0937 -0.56198,0.0578 -1.12649,0.0874 -1.6875,0.15625 -0.01,-0.002 -0.0213,0.002 -0.0312,0 -0.29087,-0.0633 -0.58447,-0.12248 -0.875,-0.1875 -0.11287,-0.0237 -0.23088,-0.0388 -0.34375,-0.0625 z m -10.40625,0.5625 c 0.0941,0.004 0.18718,0.0276 0.28125,0.0312 0.25057,0.029 0.49953,0.0641 0.75,0.0937 0.008,0.005 0.0224,-0.004 0.0312,0 0.004,0.0833 0.027,0.16673 0.0312,0.25 -0.14837,-0.0443 -0.27519,-0.0102 -0.4375,0.21875 -0.11096,-0.10572 -0.2114,-0.21053 -0.3125,-0.25 -0.11735,-0.11293 -0.22648,-0.23074 -0.34375,-0.34375 z m -3.5,0.15625 c 0.14644,0.22041 0.27454,0.46342 0.40625,0.75 -0.1763,0.0657 -0.35323,0.13584 -0.53125,0.1875 -0.0357,0.22253 0.0776,0.50771 0.1875,0.75 -0.11342,-0.0437 -0.2301,-0.0805 -0.34375,-0.125 0.0123,-0.13548 0.0138,-0.2713 0.0312,-0.40625 0.0493,-0.38212 0.27435,-0.7811 0.25,-1.15625 z m 21.28125,1.40625 c 0.76846,0.13406 1.54287,0.24767 2.3125,0.375 0.22241,0.0297 -0.80882,-0.0738 -1.6875,-0.1875 -0.20861,-0.0608 -0.4162,-0.12735 -0.625,-0.1875 z M 246.90625,465 c 0.21767,0.12763 0.43609,0.25224 0.65625,0.375 -0.18724,0.17841 -0.32133,0.47879 -0.40625,0.8125 -0.0777,-0.3977 -0.16975,-0.79025 -0.25,-1.1875 z m -6.125,0.875 c -0.0125,0.072 -0.0186,0.14676 -0.0312,0.21875 -0.0533,0.0721 -0.10177,0.14768 -0.15625,0.21875 0.0129,-0.0642 0.0186,-0.0909 0.0312,-0.15625 0.0563,-0.0913 0.10336,-0.18849 0.15625,-0.28125 z m 17.375,0 c 0.95505,0.30161 1.91627,0.58515 2.875,0.875 0.50898,0.22306 1.02458,0.42702 1.53125,0.65625 0.76457,0.35072 1.52149,0.70147 2.28125,1.0625 0.11251,0.0535 0.23159,0.10204 0.34375,0.15625 -1.51785,-0.51656 -3.02619,-1.04097 -4.53125,-1.59375 -0.82968,-0.39629 -1.66667,-0.76783 -2.5,-1.15625 z m -13.71875,0.71875 c 0.10163,0.045 0.21113,0.0808 0.3125,0.125 -0.0454,0.20327 -0.0692,0.33671 -0.0937,0.46875 -0.12319,0.0922 -0.24949,0.19714 -0.34375,0.3125 -0.0134,-0.0299 -0.0178,-0.0638 -0.0312,-0.0937 -0.0212,-0.13956 -0.0634,-0.22756 -0.0937,-0.34375 0.0835,-0.15695 0.16731,-0.31137 0.25,-0.46875 z m 14.4375,0.53125 c 0.04,0.015 0.085,0.0163 0.125,0.0312 0.0435,0.0162 0.0815,0.0463 0.125,0.0625 0.50541,0.24299 0.99567,0.50466 1.5,0.75 -0.44629,-0.1707 -0.89523,-0.33528 -1.34375,-0.5 -0.138,-0.11037 -0.26819,-0.23344 -0.40625,-0.34375 z m -10.1875,1.15625 c 0.13586,0.0507 0.27033,0.10527 0.40625,0.15625 0.001,0.12557 -7e-4,0.2494 0,0.375 0.001,0.19974 -1e-4,0.36892 0,0.5625 -0.0457,0.11352 -0.08,0.22998 -0.125,0.34375 -0.0393,-0.064 -0.0855,-0.12366 -0.125,-0.1875 -0.0261,-0.27212 -0.0664,-0.54049 -0.0937,-0.8125 -0.0148,-0.14774 -0.0478,-0.28977 -0.0625,-0.4375 z m -2.4375,0.75 c 0.0903,0.17059 0.17043,0.28679 0.25,0.4375 0.0632,0.29093 0.10148,0.58286 0.15625,0.875 -0.036,0.34312 -0.0576,0.68814 -0.0937,1.03125 -0.002,0.01 0.002,0.0212 0,0.0312 -10e-4,0.0102 0.001,0.021 0,0.0312 -0.0471,0.22028 -0.10774,0.43627 -0.15625,0.65625 -0.0375,-0.0804 -0.0563,-0.16957 -0.0937,-0.25 -0.007,-0.93737 -0.0453,-1.87534 -0.0625,-2.8125 z m -8.125,0.28125 c -0.011,0.0318 -0.0201,0.0619 -0.0312,0.0937 -0.10394,0.10433 -0.20855,0.20815 -0.3125,0.3125 0.11478,-0.13476 0.22783,-0.27239 0.34375,-0.40625 z M 258.75,469.5 c 0.39569,0.16549 0.79086,0.33692 1.1875,0.5 0.39525,0.26496 0.79715,0.50925 1.1875,0.78125 0.60109,0.42817 1.18549,0.87516 1.78125,1.3125 -0.24907,-0.0649 -0.50082,-0.12397 -0.75,-0.1875 -0.54827,-0.35895 -1.09749,-0.72015 -1.65625,-1.0625 -0.59405,-0.43401 -1.17284,-0.8877 -1.75,-1.34375 z m -17.65625,0.875 c -0.002,0.0831 0.002,0.16687 0,0.25 -0.006,0.30157 0.003,0.60406 0,0.90625 -0.38256,0.6426 -0.78799,1.27355 -1.1875,1.90625 0.0952,-0.38666 0.18999,-0.76913 0.28125,-1.15625 0.3112,-0.63458 0.59877,-1.26963 0.90625,-1.90625 z m 9.125,0.5 c 0.27444,0.31622 0.48444,0.60947 0.625,0.78125 0.11832,0.23724 0.22619,0.48114 0.34375,0.71875 0.058,0.20674 0.0969,0.41866 0.15625,0.625 0.065,0.5425 0.15874,1.08195 0.21875,1.625 -0.13196,-0.27328 -0.27424,-0.53952 -0.40625,-0.8125 -0.31735,-0.66056 -0.60296,-1.27455 -0.9375,-1.90625 0.003,-0.34372 -0.003,-0.68752 0,-1.03125 z M 237.0625,471 c -1.3643,1.8067 -2.72747,3.64028 -4.0625,5.46875 -0.2444,0.34209 -0.50038,0.66265 -0.75,1 1.08429,-1.82108 2.29327,-3.58374 3.5625,-5.28125 0.41573,-0.39682 0.84116,-0.78367 1.25,-1.1875 z m 17.40625,2.25 c 0.0151,0.0166 0.0161,0.0459 0.0312,0.0625 0.047,0.16878 0.10852,0.33143 0.15625,0.5 -0.0504,-0.084 -0.10625,-0.1658 -0.15625,-0.25 -0.0107,-0.10382 -0.0204,-0.2087 -0.0312,-0.3125 z m -22.375,0.375 c -0.96028,0.97755 -1.91407,1.96056 -2.875,2.9375 0.17596,-0.39841 0.34692,-0.79338 0.53125,-1.1875 0.38625,-0.2773 0.76903,-0.55638 1.15625,-0.84375 0.0119,-0.009 0.66281,-0.50298 1.1875,-0.90625 z m 8.21875,0.0937 c -0.16609,0.46764 -0.33616,0.9301 -0.5,1.40625 -0.23974,0.44811 -0.4763,0.89706 -0.71875,1.34375 0.13914,-0.49835 0.27516,-0.99927 0.40625,-1.5 0.27489,-0.41106 0.54538,-0.83387 0.8125,-1.25 z m -2.34375,0.25 c -0.36923,1.32357 -0.66905,2.3654 -1.03125,3.5625 -0.12272,0.26197 -0.25123,0.52305 -0.375,0.78125 -0.01,0.0208 -0.0213,0.0418 -0.0312,0.0625 -0.31269,0.41658 -0.64624,0.80976 -0.96875,1.21875 0.80292,-1.87578 1.61103,-3.74599 2.40625,-5.625 z m 7,0.65625 c 0.0568,0.15783 0.12843,0.31098 0.1875,0.46875 -0.0163,0.29249 -0.0449,0.5826 -0.0625,0.875 -0.0165,-0.45507 -0.0775,-0.89156 -0.125,-1.34375 z M 248,474.9375 c 0.0721,0.36426 0.14795,0.72653 0.21875,1.09375 -0.0461,-0.1058 -0.0779,-0.20369 -0.125,-0.3125 -0.0192,-0.0424 -0.0433,-0.0826 -0.0625,-0.125 -0.007,-0.21879 -0.0209,-0.43767 -0.0312,-0.65625 z m 8.1875,0.875 c 0.10327,0.29807 0.19938,0.53324 0.28125,0.8125 -0.0163,-0.0238 -0.0463,-0.0386 -0.0625,-0.0625 -0.0766,-0.24826 -0.14339,-0.50136 -0.21875,-0.75 z m -2.75,1.03125 c 0.0451,0.0871 0.11091,0.16305 0.15625,0.25 0.005,0.0517 -0.005,0.10454 0,0.15625 -0.0481,-0.13525 -0.10899,-0.27071 -0.15625,-0.40625 z m -1.8125,0.84375 c 0.0985,0.14268 0.18235,0.295 0.28125,0.4375 0.0185,0.23025 0.0457,0.45708 0.0625,0.6875 -0.11921,-0.37366 -0.22746,-0.75041 -0.34375,-1.125 z m -3.5625,0.59375 c 0.0699,0.1479 0.14971,0.28912 0.21875,0.4375 0.13007,0.31001 0.26885,0.63032 0.40625,0.9375 0.0181,0.0529 0.0449,0.10312 0.0625,0.15625 0.004,0.1155 -0.004,0.22824 0,0.34375 -0.0281,0.53432 -0.0634,1.05931 -0.0937,1.59375 -0.0232,-0.0577 0.25821,0.6243 -0.65625,-1.6875 0.0198,-0.41568 0.0427,-0.83459 0.0625,-1.25 0.006,-0.17739 -0.004,-0.35384 0,-0.53125 z m -13.03125,0.25 c -0.37793,1.04519 -0.76634,2.08423 -1.15625,3.125 -0.34804,0.37738 -0.72559,0.73768 -1.09375,1.09375 0.63829,-1.18198 1.25298,-2.35577 1.84375,-3.5625 0.007,-0.0122 0.0238,-0.0191 0.0312,-0.0312 0.12589,-0.20646 0.24734,-0.41957 0.375,-0.625 z m -1.875,0.375 c -0.41373,0.6269 -0.82778,1.25416 -1.25,1.875 0.24054,-0.39485 0.4784,-0.79088 0.71875,-1.1875 0.17879,-0.22665 0.35407,-0.45799 0.53125,-0.6875 z m -2.875,0.90625 c -0.1481,0.27301 -0.29407,0.53671 -0.4375,0.8125 -0.11042,0.13898 -0.23297,0.26752 -0.34375,0.40625 0.23723,-0.4157 0.52147,-0.81723 0.78125,-1.21875 z m 5.125,0.6875 c -0.30913,0.5899 -0.62297,1.17946 -0.90625,1.78125 0.19801,-0.51731 0.41555,-1.01041 0.5625,-1.375 0.11575,-0.13505 0.22839,-0.27088 0.34375,-0.40625 z m 11.71875,0 c 0.005,0.0125 0.0263,0.0187 0.0312,0.0312 -0.0881,1.61701 -0.18883,3.24269 -0.4375,4.84375 -0.0216,-0.0936 -0.0412,-0.18759 -0.0625,-0.28125 0.0223,-0.16665 0.0423,-0.33309 0.0625,-0.5 0.0912,-0.75283 0.1655,-1.4964 0.25,-2.25 0.0513,-0.61434 0.10491,-1.22945 0.15625,-1.84375 z m -4.96875,2.03125 c 0.0501,0.0192 -0.027,0.0979 -0.0937,0.125 -2.4e-4,-0.0113 -0.031,-0.0202 -0.0312,-0.0312 0.0457,-0.0355 0.0869,-0.062 0.125,-0.0937 z M 234,483.46875 c -0.0254,0.0611 -0.0377,0.12623 -0.0625,0.1875 0.005,-0.0559 -0.007,-0.13206 0,-0.15625 0.0169,-0.0153 0.0461,-0.0154 0.0625,-0.0312 z m 16.125,1.25 c 0.0333,-0.009 -0.072,0.0675 -0.15625,0.125 5.4e-4,-0.0105 -5.4e-4,-0.0208 0,-0.0312 0.016,-0.0242 0.0429,-0.0432 0.0625,-0.0625 0.0279,-0.0115 0.0655,-0.0233 0.0937,-0.0312 z"
           style="opacity:0.52452835;fill:#cdde87;fill-opacity:1;stroke:none;filter:url(#filter3852)" />
        <path
           transform="matrix(0.82145584,0,0,0.82145584,39.494274,196.44053)"
           style="opacity:0.39622641;fill:#cdde87;filter:url(#filter5015)"
           id="path64"
           d="m 248.35351,839.31715 c -5.9295,-0.0417 -11.00106,-0.10743 -1.43921,-0.80633 -18.47486,0.46509 -22.31419,0.29953 -0.19947,-1.7441 -28.58473,1.54062 -31.21327,1.20444 -0.40967,-3.54001 -34.87243,3.8307 -36.31271,3.25312 -1.12821,-5.92487 -36.20439,7.57418 -37.11381,6.85379 -4.04201,-6.25726 -0.0451,-0.0202 -0.0933,-0.0379 -0.14371,-0.0607 -29.70113,10.05636 -30.8465,9.56851 -7.08237,-2.71346 -0.163,-0.0569 -0.32602,-0.11627 -0.48903,-0.17315 -17.28338,7.78777 -17.24371,7.09645 -3.32026,-1.15388 -0.21234,-0.0733 -0.42897,-0.14913 -0.64346,-0.21864 -5.17773,2.62625 -5.08443,2.28881 -1.0467,-0.33871 -0.78181,-0.25151 -1.56254,-0.49922 -2.33791,-0.73556 -2.1556,1.20823 -2.49879,1.23098 -0.66706,-0.19968 -0.30779,-0.0923 -0.61772,-0.18452 -0.92444,-0.27425 -8.5677,5.389 -9.65622,5.55583 -2.23281,-0.63192 -0.36034,-0.0986 -0.72068,-0.20222 -1.07888,-0.29574 -10.63642,7.47433 -11.93515,7.51604 -3.73636,-0.92513 -0.49225,-0.11122 -0.98558,-0.2237 -1.47246,-0.32986 -8.48405,7.0876 -9.61439,6.97259 -3.87364,-0.75957 -0.62309,-0.10869 -1.24296,-0.21864 -1.85746,-0.31217 -3.79857,3.81427 -4.43775,3.69547 -2.18241,-0.30332 -2.76474,-0.35134 -5.45119,-0.55735 -8.03792,-0.58389 -13.12019,-0.13144 -25.03389,0.69385 -35.95666,2.19276 2.12451,3.39846 1.4864,3.4983 -2.1127,0.29447 -0.67563,0.0986 -1.33732,0.20474 -2.00223,0.31091 6.02388,7.27085 4.80451,7.353 -4.11923,0.68247 -0.52335,0.0935 -1.05314,0.18199 -1.57327,0.27552 9.1629,8.426 7.65613,8.31605 -4.27366,0.83413 -0.36678,0.0746 -0.72925,0.15166 -1.09389,0.22875 9.14896,6.76027 7.76981,6.49992 -2.76473,0.59653 -0.28527,0.0645 -0.56303,0.12892 -0.84616,0.19464 4.04094,2.67807 3.29238,2.51503 -1.10032,0.24897 -0.85366,0.19842 -1.69766,0.40443 -2.53953,0.6117 6.89577,3.86608 7.33333,4.42722 -1.58935,0.39052 -0.16837,0.0442 -0.3346,0.0885 -0.50083,0.13144 17.88825,9.24245 18.02016,9.97547 -4.45276,1.19686 -0.0901,0.0253 -0.18016,0.0493 -0.27132,0.0771 28.59331,12.7496 28.23297,13.52686 -5.47371,4.09484 35.73466,11.91166 35.51588,12.81025 -1.75023,7.12046 35.64137,7.24305 34.23647,7.89519 -0.79789,5.97921 31.02345,3.05217 28.41636,3.53369 -0.21127,3.56023 22.19623,0.82782 18.37191,1.20318 -0.10081,1.75168 9.58544,0.17567 4.52676,0.51817 -1.39202,0.88469 5.92843,0.0442 11.00213,0.10995 1.43814,0.80759 18.47487,-0.46636 22.31633,-0.29953 0.20054,1.74283 28.58366,-1.54062 31.21328,-1.20191 0.41074,3.5438 34.87243,-3.83322 36.3095,-3.25564 1.12821,5.92108 36.88968,-7.71699 37.15993,-6.83104 2.14165,7.00924 34.40807,-11.69302 33.52974,-10.43045 2.35293,5.49896 28.29088,-12.95433 26.28436,-11.2431 1.60437,3.11157 19.55696,-10.41655 16.44367,-8.1884 0.77644,1.51155 8.35321,-4.66103 4.15247,-1.8452 -0.77644,1.4155 5.13376,-2.93337 9.54039,-5.42439 1.62581,-0.0645 15.7112,-9.63044 19.10332,-11.41245 1.01024,1.33841 23.91426,-15.56795 26.34226,-16.59925 2.06658,2.75011 28.22332,-20.61446 29.74082,-20.84321 3.82646,4.41711 28.09248,-24.87738 28.74881,-24.25936 5.21097,4.88347 24.04618,-27.01327 23.89496,-25.49666 4.66724,3.54506 18.17244,-25.06948 17.26623,-22.61005 2.88271,1.89323 11.86437,-18.59484 10.25142,-15.13951 1.40597,0.92513 4.9686,-8.12142 2.70254,-3.62595 0.0236,1.60887 3.01783,-5.05283 5.62386,-9.35872 1.38666,-0.84172 8.91839,-16.02925 10.99462,-19.22929 1.56469,0.68247 13.11697,-25.1946 14.73527,-27.27235 3.22803,1.41676 14.34599,-31.70842 15.57178,-32.64492 5.67856,2.0272 12.02738,-35.39377 12.9368,-35.17639 7.19068,1.73525 7.31187,-35.30278 7.9725,-33.91129 6.0389,0.78737 3.0811,-30.72516 3.56692,-28.14314 3.5948,0.21106 0.83865,-21.98445 1.21722,-18.19421 1.7706,0.0998 0.17373,-9.49521 0.51905,-4.48283 0.89226,1.37885 0.0451,-5.87179 0.11154,-10.89554 0.81613,-1.42434 -0.4708,-18.29911 -0.30243,-22.102 1.75879,-0.19716 -1.55396,-28.31249 -1.21614,-30.916 3.57336,-0.40443 -3.86721,-34.53942 -3.28595,-35.96503 5.97883,-1.1185 -7.79125,-36.54133 -6.89791,-36.80674 7.07702,-2.12072 -11.80539,-34.08191 -10.53026,-33.21112 5.55307,-2.33304 -13.07943,-28.02181 -11.35389,-26.03253 3.14332,-1.58991 -10.51953,-19.37084 -8.26956,-16.28707 1.52501,-0.76715 -4.70586,-8.27561 -1.86283,-4.11505 1.42848,0.76715 -2.96422,-5.08315 -5.47372,-9.44971 -0.0643,-1.60886 -9.72379,-15.56164 -11.52441,-18.92218 1.35234,-1.00096 -15.71978,-23.68432 -16.76219,-26.09193 2.77332,-2.04489 -20.80956,-27.95483 -21.04443,-29.45879 4.46133,-3.79025 -25.11646,-27.82339 -24.49445,-28.47426 4.93322,-5.15899 -27.27528,-23.81954 -25.74707,-23.67041 3.57658,-4.62438 -25.31381,-17.99957 -22.82897,-17.10099 1.91322,-2.85627 -18.77408,-11.7499 -15.28973,-10.15241 0.93409,-1.39149 -8.19985,-4.92138 -3.66345,-2.6768 1.62689,-0.024 -5.10265,-2.9915 -9.45353,-5.571 -0.85259,-1.37506 -16.18307,-8.83422 -19.41539,-10.89048 0.69172,-1.55072 -25.44035,-12.99352 -27.5391,-14.59227 1.42849,-3.19499 -32.01331,-14.20932 -32.96135,-15.42387 2.04514,-5.62281 -35.73467,-11.91546 -35.51589,-12.81152 1.75343,-7.12299 -35.64136,-7.24305 -34.23969,-7.89772 0.79575,-5.97921 -31.02345,-3.0547 -28.41529,-3.53117 0.21127,-3.56023 -22.19408,-0.82908 -18.37191,-1.20697 0.10295,-1.75421 -9.58866,-0.16935 -4.52783,-0.51438 1.38988,-0.88342 z"
           inkscape:connector-curvature="0" />
        <path
           transform="matrix(0.63716962,0,0,0.63716962,39.782205,577.63469)"
           d="m 270,481.46933 c 0,16.66716 -13.51141,30.17857 -30.17857,30.17857 -16.66717,0 -30.17858,-13.51141 -30.17858,-30.17857 0,-16.66717 13.51141,-30.17857 30.17858,-30.17857 16.66716,0 30.17857,13.5114 30.17857,30.17857 z"
           sodipodi:ry="30.178572"
           sodipodi:rx="30.178572"
           sodipodi:cy="481.46933"
           sodipodi:cx="239.82143"
           id="path3814"
           style="opacity:0.72075477;fill:#445016;stroke:#000000;stroke-opacity:1;filter:url(#filter3832)"
           sodipodi:type="arc" />
        <path
           sodipodi:type="arc"
           style="fill:#000000;stroke:#000000;stroke-opacity:1"
           id="path4887"
           sodipodi:cx="239.82143"
           sodipodi:cy="481.46933"
           sodipodi:rx="30.178572"
           sodipodi:ry="30.178572"
           d="m 270,481.46933 c 0,16.66716 -13.51141,30.17857 -30.17857,30.17857 -16.66717,0 -30.17858,-13.51141 -30.17858,-30.17857 0,-16.66717 13.51141,-30.17857 30.17858,-30.17857 16.66716,0 30.17857,13.5114 30.17857,30.17857 z"
           transform="matrix(0.5819588,0,0,0.5819588,53.022921,604.217)" />
        <path
           transform="matrix(1.9454698,0,0,1.9454698,-283.00913,-10.715774)"
           sodipodi:nodetypes="csccccc"
           inkscape:connector-curvature="0"
           id="path4906"
           d="m 216.94222,453.93162 c -0.39814,3.06476 -0.24706,7.07215 0.24614,10.27961 0.56157,3.65204 1.71155,7.05612 3.30704,10.17525 l 17.22233,-6.60185 c -4.35017,-3.85378 -4.81932,-6.90631 -3.27983,-11.86575 l -6.6294,-4.1206 c -3.85453,0.80467 -7.71131,1.07032 -10.86628,2.13334 z"
           style="opacity:0.93207547;fill:url(#linearGradient5843);fill-opacity:1;stroke:none;filter:url(#filter3868)" />
        <path
           sodipodi:nodetypes="cc"
           inkscape:connector-curvature="0"
           id="path4910"
           d="M 91.298402,938.87683 C 121.15661,963.22185 246.51026,984.47566 331.73929,922.2718"
           style="fill:none;stroke:#000000;stroke-width:1.85976362px;stroke-linecap:round;stroke-linejoin:miter;stroke-opacity:1" />
        <path
           sodipodi:nodetypes="cccc"
           inkscape:connector-curvature="0"
           id="rect4973"
           d="m 134.63756,851.20227 c -3.95574,7.46395 -5.17718,14.80752 -8.63463,21.58654 l -24.7415,11.12538 c 13.23864,-10.42981 25.79002,-19.78844 33.37613,-32.71192 z"
           style="fill:#000000;fill-opacity:1;stroke:none" />
        <path
           style="fill:#000000;fill-opacity:1;stroke:none"
           d="m 146.99224,852.86242 c -4.32978,5.15808 -6.72841,10.72964 -10.56656,15.43955 l -19.58908,4.18357 c 11.42494,-5.7736 22.14516,-10.82919 30.15564,-19.62312 z"
           id="path4976"
           inkscape:connector-curvature="0"
           sodipodi:nodetypes="cccc" />
        <path
           sodipodi:nodetypes="cccc"
           inkscape:connector-curvature="0"
           id="path4978"
           d="m 174.51753,842.26436 c -5.64758,8.44054 -16.38842,22.66508 -26.00474,28.12927 l -23.40072,3.00205 c 18.27039,-9.06896 35.43036,-15.50298 49.40546,-31.13132 z"
           style="fill:#000000;fill-opacity:1;stroke:none" />
        <path
           style="fill:#000000;fill-opacity:1;stroke:none"
           d="m 186.58347,836.25771 c -6.23464,9.67124 -13.21102,25.10391 -23.42164,30.31385 l -23.04461,5.05487 c 18.12887,-10.44182 35.61837,-19.23051 46.46625,-35.36872 z"
           id="path4980"
           inkscape:connector-curvature="0"
           sodipodi:nodetypes="cccc" />
        <path
           sodipodi:nodetypes="cccc"
           inkscape:connector-curvature="0"
           id="path4982"
           d="m 196.77439,838.23361 c -3.27224,8.56526 -12.66456,20.17435 -19.85377,24.92006 l -19.53418,4.15546 c 14.42538,-8.75992 27.01931,-14.67023 39.38795,-29.07552 z"
           style="fill:#000000;fill-opacity:1;stroke:none" />
        <path
           style="fill:#000000;fill-opacity:1;stroke:none"
           d="m 218.79721,832.60462 c -6.80459,7.00928 -16.36067,19.96285 -22.41725,26.32894 l -22.05638,4.39037 c 16.55221,-9.79448 32.01867,-18.58306 44.47363,-30.71931 z"
           id="path4984"
           inkscape:connector-curvature="0"
           sodipodi:nodetypes="cccc" />
        <path
           sodipodi:nodetypes="cccc"
           inkscape:connector-curvature="0"
           id="path4986"
           d="m 222.90627,840.81084 c -4.44199,5.06178 -6.96234,10.57932 -10.90299,15.20385 l -19.67619,3.75245 c 11.54893,-5.52137 22.37757,-10.34037 30.57918,-18.9563 z"
           style="fill:#000000;fill-opacity:1;stroke:none" />
        <path
           style="fill:#000000;fill-opacity:1;stroke:none"
           d="m 258.83458,843.57796 c -8.96742,6.00456 -14.90904,13.72753 -22.9076,19.27307 l -33.69832,-3.85972 c 20.85005,-3.14906 40.28417,-5.51766 56.60592,-15.41335 z"
           id="path4988"
           inkscape:connector-curvature="0"
           sodipodi:nodetypes="cccc" />
        <path
           sodipodi:nodetypes="cccc"
           inkscape:connector-curvature="0"
           id="path4990"
           d="m 357.13639,890.73627 c -7.59954,6.00457 -21.60154,14.72383 -28.38001,20.26936 l -20.58758,-9.67148 c 17.66959,-3.14907 35.13554,-0.70218 48.96759,-10.59788 z"
           style="fill:#000000;fill-opacity:1;stroke:none" />
        <path
           style="fill:#000000;fill-opacity:1;stroke:none"
           d="m 347.50547,883.09796 c -7.59954,6.00456 -21.60155,14.72382 -28.38,20.26936 l -20.58759,-9.67147 c 17.66959,-3.14907 35.13555,-0.70221 48.96759,-10.59789 z"
           id="path4992"
           inkscape:connector-curvature="0"
           sodipodi:nodetypes="cccc" />
        <path
           sodipodi:nodetypes="cccc"
           inkscape:connector-curvature="0"
           id="path4994"
           d="m 335.45949,876.75467 c -7.59954,6.00458 -21.60154,14.72383 -28.38001,20.26937 l -20.58759,-9.67148 c 17.6696,-3.14907 35.13554,-0.70219 48.9676,-10.59789 z"
           style="fill:#000000;fill-opacity:1;stroke:none" />
        <path
           style="fill:#000000;fill-opacity:1;stroke:none"
           d="m 334.21168,869.3748 c -9.76422,6.59485 -27.75467,16.17127 -36.46394,22.26197 l -26.45189,-10.62225 c 22.70272,-3.45864 45.14378,-0.77122 62.91583,-11.63972 z"
           id="path4996"
           inkscape:connector-curvature="0"
           sodipodi:nodetypes="cccc" />
        <path
           style="fill:#000000;fill-opacity:1;stroke:none"
           d="m 280.00542,844.17905 c -8.35809,6.2792 -14.50159,14.99925 -21.98738,20.83103 l -27.13535,-8.57981 c 17.68484,-1.43401 34.0771,-2.08058 49.12273,-12.25122 z"
           id="path4998"
           inkscape:connector-curvature="0"
           sodipodi:nodetypes="cccc" />
        <path
           sodipodi:nodetypes="cccc"
           inkscape:connector-curvature="0"
           id="path5000"
           d="m 290.68965,847.32507 c -9.71209,9.59418 -16.49159,23.57587 -26.38709,27.22557 l -32.56517,-11.2136 c 11.01888,2.90812 24.34275,3.11471 58.95226,-16.01197 z"
           style="fill:#000000;fill-opacity:1;stroke:none" />
        <path
           sodipodi:nodetypes="cccc"
           inkscape:connector-curvature="0"
           id="path5002"
           d="m 239.8133,841.46447 c -9.63706,7.54097 -16.02234,17.24001 -24.6182,24.20451 l -36.21467,-4.84731 c 22.407,-3.95482 43.29231,-6.92948 60.83287,-19.3572 z"
           style="fill:#000000;fill-opacity:1;stroke:none" />
        <path
           style="fill:#000000;fill-opacity:1;stroke:none"
           d="m 161.80842,847.4369 c -4.70735,6.18591 -13.47694,16.52396 -20.60015,20.10531 l -16.30278,0.68095 c 13.40214,-5.77992 25.78106,-9.58236 36.90293,-20.78626 z"
           id="path5004"
           inkscape:connector-curvature="0"
           sodipodi:nodetypes="cccc" />
        <path
           style="fill:#000000;fill-opacity:1;stroke:none"
           d="m 307.6711,857.86454 c -9.31135,4.39269 -18.03419,13.78054 -26.37375,17.86026 l -28.35155,-9.28978 c 19.70187,-1.00317 37.96368,-1.45547 54.7253,-8.57048 z"
           id="path5006"
           inkscape:connector-curvature="0"
           sodipodi:nodetypes="cccc" />
        <path
           sodipodi:nodetypes="cccc"
           inkscape:connector-curvature="0"
           id="path5008"
           d="m 318.8544,862.37353 c -9.07595,4.78538 -17.57823,15.01247 -25.70695,19.45687 l -27.63474,-10.12024 c 19.20375,-1.09283 37.00386,-1.58558 53.34169,-9.33663 z"
           style="fill:#000000;fill-opacity:1;stroke:none" />
        <g
           transform="matrix(0.82145584,0,0,0.82145584,44.423009,195.61908)"
           id="g4219">
          <path
             sodipodi:nodetypes="cccc"
             inkscape:connector-curvature="0"
             id="path5014"
             d="m 133.33339,925.10278 c -2.79989,-5.12625 -3.31535,-11.35405 -5.74488,-16.06984 l -19.97562,0.71599 c 10.37838,3.74372 20.25468,6.80479 25.7205,15.35385 z"
             style="fill:#000000;fill-opacity:1;stroke:none" />
          <path
             style="fill:#000000;fill-opacity:1;stroke:none"
             d="m 139.15609,923.00051 c -1.83057,-3.92419 -1.65151,-8.3052 -3.21375,-11.89566 l -16.70201,-2.17915 c 8.27557,3.9818 16.19979,7.42374 19.91576,14.07481 z"
             id="path5016"
             inkscape:connector-curvature="0"
             sodipodi:nodetypes="cccc" />
          <path
             sodipodi:nodetypes="cccc"
             inkscape:connector-curvature="0"
             id="path5018"
             d="m 161.12154,932.75919 c -1.63482,-6.51122 -5.54766,-17.40799 -12.24741,-21.2511 l -20.82916,-0.9804 c 13.30614,6.23425 26.71962,10.39507 33.07657,22.2315 z"
             style="fill:#000000;fill-opacity:1;stroke:none" />
          <path
             style="fill:#000000;fill-opacity:1;stroke:none"
             d="m 172.18836,937.17638 c -1.64945,-7.47536 -1.46809,-19.58956 -8.84211,-23.18882 l -19.58963,-2.67198 c 12.56865,7.35947 25.25885,13.41454 28.43174,25.8608 z"
             id="path5020"
             inkscape:connector-curvature="0"
             sodipodi:nodetypes="cccc" />
          <path
             sodipodi:nodetypes="cccc"
             inkscape:connector-curvature="0"
             id="path5022"
             d="m 180.69811,932.6464 c 0.69937,-6.76092 -3.26308,-15.61498 -8.20095,-19.02536 l -17.43768,-2.15972 c 10.25875,6.22297 20.01444,10.24297 25.63863,21.18508 z"
             style="fill:#000000;fill-opacity:1;stroke:none" />
          <path
             style="fill:#000000;fill-opacity:1;stroke:none"
             d="m 195.64134,935.27733 c -3.35917,-5.27511 -6.70939,-15.21228 -9.64331,-20.01103 l -18.94638,-2.1933 c 11.3609,6.93149 22.13636,13.11275 28.58969,22.20433 z"
             id="path5024"
             inkscape:connector-curvature="0"
             sodipodi:nodetypes="cccc" />
          <path
             sodipodi:nodetypes="cccc"
             inkscape:connector-curvature="0"
             id="path5026"
             d="m 201.70886,928.34756 c -1.9791,-3.83888 -1.93901,-8.16836 -3.63582,-11.683 l -16.97396,-1.82314 c 8.5038,3.76897 16.63466,7.01175 20.60978,13.50614 z"
             style="fill:#000000;fill-opacity:1;stroke:none" />
          <path
             style="fill:#000000;fill-opacity:1;stroke:none"
             d="m 240.64805,926.4273 c -5.84799,-4.32304 -8.07657,-10.23238 -13.20934,-14.24264 l -33.59249,5.24239 c 18.35033,1.25919 35.70355,1.97209 46.80183,9.00025 z"
             id="path5028"
             inkscape:connector-curvature="0"
             sodipodi:nodetypes="cccc" />
          <path
             sodipodi:nodetypes="cccc"
             inkscape:connector-curvature="0"
             id="path5030"
             d="m 354.42316,884.22886 c -4.55325,-4.40846 -13.97308,-10.62477 -17.951,-14.71119 l -23.73808,9.14998 c 15.33999,1.45774 32.94732,-1.62239 41.68908,5.56121 z"
             style="fill:#000000;fill-opacity:1;stroke:none" />
          <path
             style="fill:#000000;fill-opacity:1;stroke:none"
             d="m 341.94947,891.04148 c -4.55326,-4.40843 -13.97309,-10.62476 -17.951,-14.71119 l -23.73807,9.14999 c 15.33997,1.45773 32.94732,-1.6224 41.68907,5.5612 z"
             id="path5032"
             inkscape:connector-curvature="0"
             sodipodi:nodetypes="cccc" />
          <path
             sodipodi:nodetypes="cccc"
             inkscape:connector-curvature="0"
             id="path5034"
             d="m 327.75922,896.95178 c -4.55326,-4.40844 -13.97309,-10.62477 -17.951,-14.71118 l -23.73807,9.14999 c 15.33997,1.45771 32.94732,-1.62239 41.68907,5.56119 z"
             style="fill:#000000;fill-opacity:1;stroke:none" />
          <path
             style="fill:#000000;fill-opacity:1;stroke:none"
             d="m 323.33381,903.03094 c -6.34265,-4.75333 -19.16072,-11.41771 -24.7265,-15.82691 l -29.70665,10.28922 c 19.96775,1.39527 42.38981,-2.19104 54.43315,5.53769 z"
             id="path5036"
             inkscape:connector-curvature="0"
             sodipodi:nodetypes="cccc" />
          <path
             style="fill:#000000;fill-opacity:1;stroke:none"
             d="m 261.23652,922.90164 c -5.15052,-4.58443 -7.13187,-11.29197 -11.65343,-15.56703 l -29.45567,8.67102 c 16.10841,0.062 31.33953,-0.43543 41.1091,6.89601 z"
             id="path5038"
             inkscape:connector-curvature="0"
             sodipodi:nodetypes="cccc" />
          <path
             sodipodi:nodetypes="cccc"
             inkscape:connector-curvature="0"
             id="path5040"
             d="m 272.4464,923.67855 c -4.97475,-7.19563 -5.24496,-18.1422 -13.00662,-20.49235 l -35.75287,11.15176 c 11.70792,-3.05274 24.40987,-4.05251 48.75949,9.34059 z"
             style="fill:#000000;fill-opacity:1;stroke:none" />
          <path
             sodipodi:nodetypes="cccc"
             inkscape:connector-curvature="0"
             id="path5042"
             d="m 228.29018,927.61818 c -5.80636,-5.53062 -7.58614,-13.01921 -12.66043,-18.14605 l -36.40842,6.20255 c 19.46975,1.81724 37.93011,2.93238 49.06885,11.9435 z"
             style="fill:#000000;fill-opacity:1;stroke:none" />
          <path
             style="fill:#000000;fill-opacity:1;stroke:none"
             d="m 150.50864,927.34523 c -1.73609,-4.73648 -5.49173,-12.59584 -10.65943,-15.06347 l -15.13134,0.46398 c 10.14423,3.86354 20.18933,6.18285 25.79077,14.59949 z"
             id="path5044"
             inkscape:connector-curvature="0"
             sodipodi:nodetypes="cccc" />
          <path
             style="fill:#000000;fill-opacity:1;stroke:none"
             d="m 296.38709,914.04783 c -6.88213,-2.99082 -11.01126,-10.0804 -17.11118,-12.87737 l -30.9189,9.32427 c 18.20692,-0.41417 35.29301,-1.18637 48.03008,3.5531 z"
             id="path5046"
             inkscape:connector-curvature="0"
             sodipodi:nodetypes="cccc" />
          <path
             sodipodi:nodetypes="cccc"
             inkscape:connector-curvature="0"
             id="path5048"
             d="m 312.18866,909.68302 c -6.48668,-3.32484 -10.0381,-11.11066 -15.77814,-14.21735 l -30.60552,9.95484 c 17.69605,-0.31015 34.32733,-1.02065 46.38366,4.26251 z"
             style="fill:#000000;fill-opacity:1;stroke:none" />
        </g>
        <path
           style="fill:none;stroke:#000000;stroke-width:2.09181356px;stroke-linecap:round;stroke-linejoin:miter;stroke-opacity:1"
           d="M 79.315479,882.75979 C 104.70899,843.84381 223.62839,786.98044 320.93053,856.43821"
           id="path5088"
           inkscape:connector-curvature="0"
           sodipodi:nodetypes="cc" />
        <path
           sodipodi:nodetypes="cc"
           inkscape:connector-curvature="0"
           id="path5090"
           d="m 79.178936,879.5007 c 3.201732,-8.75791 28.214924,-33.14648 46.257864,-39.39582"
           style="fill:none;stroke:#000000;stroke-width:2.09181356px;stroke-linecap:round;stroke-linejoin:miter;stroke-opacity:1" />
        <path
           sodipodi:nodetypes="cc"
           inkscape:connector-curvature="0"
           id="path3916"
           d="M 77.342903,886.70495 C 102.26436,847.78897 218.97315,790.9256 314.46649,860.38336"
           style="fill:none;stroke:#000000;stroke-width:1.67006791;stroke-linecap:round;stroke-linejoin:miter;stroke-miterlimit:4;stroke-opacity:1;stroke-dasharray:none" />
        <path
           id="path336"
           d="m 26.360427,820.84061 c 2.801164,5.40517 3.321146,7.02673 2.552263,3.79102 -3.003242,-12.64139 10.085835,-19.64595 10.085835,-19.64595 -4.421897,6.92324 -1.877848,11.73369 -1.877848,11.73369 0,0 5.276211,-14.80839 16.310827,-15.9305 -7.921298,11.88975 9.14609,-0.63005 13.742956,-0.75656 -1.598553,1.6618 -1.973137,2.55884 -0.730275,3.24804 1.09993,-0.0501 2.310757,-0.1413 3.560191,-0.25219 3.822233,-1.66509 8.465923,-3.17082 14.057573,-4.12535 -3.600441,1.25436 -6.418035,2.4348 -8.681967,3.53062 2.882489,-0.37706 6.010593,-0.86911 9.299702,-1.45809 4.420255,-2.32225 10.430023,-4.61658 18.249466,-5.87013 -4.902455,1.62485 -8.392822,3.12894 -10.931934,4.4597 1.864702,-0.38116 3.754047,-0.78532 5.673786,-1.21741 4.554158,-2.63852 11.351708,-5.50129 20.708088,-6.90597 -5.6664,1.78748 -9.47961,3.43451 -12.08198,4.84576 3.63824,-0.91018 7.27892,-1.88688 10.85637,-2.93013 3.55689,-2.67877 8.90786,-5.45283 16.8193,-7.09655 -4.59358,1.78091 -7.6461,3.44436 -9.67182,4.91147 0.33926,-0.10761 0.68839,-0.21193 1.02683,-0.32283 3.33099,-1.07856 6.50263,-2.16124 9.57735,-3.24064 2.68041,-2.22697 6.53632,-4.46133 12.18301,-6.19295 -2.93342,1.54679 -5.04128,2.94574 -6.53962,4.18942 1.46877,-0.53231 2.90796,-1.06461 4.32744,-1.59609 1.66837,-0.79024 3.37372,-1.60512 5.12589,-2.44712 2.22039,-1.46137 5.02483,-2.88084 8.58749,-4.09659 21.59772,-7.3701 41.97064,-15.98389 64.24523,-22.24913 14.6515,-4.12042 33.31826,-7.89338 48.7986,-7.90488 72.05563,-0.0526 124.19672,36.20649 129.1156,38.54107 -8.2e-4,0 -45.1316,-24.5221 -96.82993,-32.12878 -51.92504,-8.68772 -104.68961,29.15428 -145.00338,52.71036 -27.29369,18.66758 -55.37845,30.4949 -80.208592,36.21798 -14.324546,3.81649 -22.447101,3.62755 -25.63435,3.52322 -6.25703,-0.20454 -17.238251,-2.40275 -21.511464,-8.52095 -4.272392,-6.17489 -5.621222,-13.22626 -5.200637,-16.81356 z"
           inkscape:connector-curvature="0"
           style="fill:#000000" />
        <path
           id="path338"
           d="m 58.017692,816.36121 c -2.243396,0.71467 -2.691911,3.13632 -4.593581,3.65055 -0.237401,0.0649 -0.496981,0.0986 -0.786133,0.0961 -0.6317,-0.21523 -1.072,-0.46165 -1.368545,-0.73192 -0.295725,-0.27108 -0.447694,-0.56681 -0.502731,-0.88963 -0.47891,-2.77489 2.137427,-3.85345 3.365504,-6.0262 -1.219041,0.4978 -2.563764,0.42223 -3.739267,1.04653 -1.214933,0.64567 -2.203966,1.65195 -3.065673,2.60073 -1.039141,1.14347 -1.922207,3.52404 -3.247215,4.34386 -0.294902,0.18236 -0.559412,0.36718 -0.798456,0.55859 -3.095244,2.4504 -1.72177,5.76908 -2.958883,9.24384 -0.08379,0.17497 -0.166756,0.33597 -0.252187,0.48219 -0.255473,0.44112 -0.521625,0.75082 -0.833778,0.90114 -2.131678,1.03093 -5.579327,-3.72366 -6.121489,-14.91763 -2.098819,4.07277 -3.880557,14.12246 -2.154679,18.35871 1.690556,4.15081 -2.560478,-0.59555 -5.957197,-4.7398 -1.279007,15.99949 11.743533,21.68232 29.970816,21.15085 12.87632,-0.37459 25.693496,-2.14976 37.96769,-5.46268 16.174462,-4.36441 31.271172,-11.37224 45.487292,-19.09722 4.08017,-2.21628 8.1012,-4.5106 12.0795,-6.85586 5.0495,-2.97532 10.02423,-6.04017 14.94393,-9.16581 40.27598,-23.73021 77.74669,-57.1495 143.07954,-51.88644 38.73821,3.12071 92.21745,26.8304 92.21745,26.8304 0,0 -41.52213,-26.76468 -97.97092,-33.27225 -56.57942,-7.12367 -85.41088,8.77397 -138.9928,31.37715 -40.72695,22.18505 -73.763451,32.33496 -93.652536,35.79001 -0.211936,0.037 -0.422228,0.0731 -0.631699,0.10351 -0.172506,-0.10841 -0.336798,-0.20864 -0.498624,-0.30887 -0.233294,-1.57554 -1.927957,-3.71215 -0.233294,-5.13656 -4.237069,0 -4.237069,3.56102 -6.535503,4.77841 -0.251364,0.16922 -0.524909,0.30723 -0.825562,0.40334 -0.60377,0.19139 -1.323366,0.21769 -2.223682,-0.0353 -0.127325,-0.18402 -0.233293,-0.37541 -0.322831,-0.57009 -0.358155,-0.77874 -0.454266,-1.6117 -0.648951,-2.20725 -0.05586,-0.15854 -0.120753,-0.2982 -0.195506,-0.41237 z"
           inkscape:connector-curvature="0"
           style="fill:#000000" />
        <path
           id="path340"
           d="m 39.782194,834.47924 c 0,0 -4.527865,-7.54425 -1.941101,-12.52145 0.03778,8.2318 6.590541,8.83558 6.590541,8.83558 -1.535301,-4.07853 -4.545936,-9.03766 -2.287755,-12.92479 0.27683,3.97749 1.711093,7.77097 5.936662,11.09869 1.564051,-1.8647 2.658231,-3.92327 2.47176,-6.10999 0.60377,0.68263 1.610875,1.32994 2.209717,2.01339 1.427689,-0.85595 2.318969,-2.14647 2.400294,-3.3655 0.257936,0.94878 1.670019,1.55829 2.267218,2.23599 3.533903,-2.22367 3.183962,-6.51743 6.132167,-9.35719 -0.0386,2.86195 -1.510657,6.56507 2.099641,9.13951 6.683365,-4.34303 9.053266,-12.24791 17.84695,-14.88478 -0.585698,2.15633 -2.405223,6.74334 -1.394011,8.39364 5.185846,-2.22368 8.81586,-7.03085 12.554307,-9.97001 -0.387726,1.60019 -1.110602,3.45011 -1.489298,5.05935 5.790442,-1.51148 6.661186,-5.80852 11.001754,-8.04617 -0.51012,1.13279 -0.55366,2.46437 -0.24725,3.5528 7.96729,-1.13033 10.64853,-7.78658 16.05864,-10.60089 -0.10841,1.072 -0.51341,2.58759 -0.15362,3.85591 7.69212,-2.0602 13.35359,-8.35173 19.50383,-11.42562 0.11251,1.8417 -1.30448,4.15081 -2.81924,6.0648 7.02345,-2.92274 10.72658,-7.28549 16.90804,-10.22301 0.17413,0.59227 0.51094,1.77763 0.38772,2.77405 4.82934,-1.89098 5.92187,-5.24581 9.89114,-7.24359 0.11251,0.38772 1.62567,1.33815 1.73328,1.72423 4.13603,-1.39811 5.30742,-4.46707 7.64118,-6.37367 0.27272,0.94713 0.96439,1.89263 0.82638,2.84141 2.80117,-1.71355 4.20339,-3.96763 6.60369,-5.63765 2.13415,4.46954 8.70168,-4.22475 8.75672,-4.04157 1.31843,1.61335 7.97059,-2.12592 9.9774,-3.68505 1.05475,2.61717 37.67525,-18.31106 79.10456,-17.78944 0.74259,0.0173 1.50408,0.0411 2.27543,0.0674 0.25711,0.009 0.51998,0.0197 0.77956,0.0296 0.52409,0.0197 1.05228,0.0411 1.59033,0.0649 0.32037,0.014 0.64321,0.0296 0.96768,0.046 0.49534,0.0247 0.99643,0.0518 1.50245,0.0797 0.35076,0.0189 0.70152,0.0394 1.05804,0.0608 0.50518,0.0304 1.02024,0.0657 1.53694,0.10021 0.35979,0.0246 0.71384,0.0476 1.07775,0.0731 0.7467,0.0542 1.50573,0.115 2.27378,0.17826 0.51341,0.0427 1.03586,0.0895 1.55748,0.13718 0.44031,0.0403 0.87896,0.0789 1.32501,0.12158 0.51917,0.0501 1.04654,0.10431 1.57391,0.15854 0.38445,0.0402 0.77052,0.0805 1.15825,0.1224 0.56763,0.0608 1.14101,0.12568 1.7185,0.19304 0.34172,0.0402 0.68673,0.0821 1.03174,0.12403 0.63087,0.0764 1.26258,0.15362 1.90496,0.23741 0.20864,0.0263 0.42141,0.0567 0.63087,0.0854 2.41098,0.32119 4.8926,0.69002 7.44486,1.11801 0.13883,0.0222 0.27682,0.0452 0.41647,0.069 0.81736,0.13801 1.64374,0.28423 2.47588,0.43456 0.18154,0.0329 0.3639,0.0657 0.54708,0.0986 0.85513,0.15772 1.71603,0.32037 2.5843,0.49041 0.0945,0.0173 0.18893,0.037 0.2834,0.055 4.86055,0.957 9.9388,2.12019 15.21254,3.53556 0.0205,0.005 0.0427,0.0115 0.0633,0.0172 11.7386,3.15275 24.44076,7.54755 37.82967,13.64849 0.0641,0.0279 0.12651,0.0567 0.18977,0.0854 1.19111,0.54463 2.38714,1.10075 3.58976,1.67167 0.7467,0.35486 1.49259,0.70974 2.24257,1.07528 0.89949,0.43866 1.8031,0.89047 2.70916,1.34555 0.31873,0.15936 0.63663,0.32037 0.95617,0.48137 0.97918,0.49698 1.96165,1.00054 2.94739,1.51559 0.4173,0.2185 0.83788,0.44112 1.256,0.66374 1.16236,0.61526 2.32801,1.24368 3.49858,1.88277 0.2103,0.11583 0.42223,0.23411 0.63335,0.35159 1.07857,0.59391 2.15961,1.19357 3.24558,1.81212 2.04377,1.16483 7.07437,3.78034 9.14198,5.02895 0.0164,0.0102 -3.90028,-1.21164 -11.29502,-3.5495 -12.52885,-3.96189 -23.30635,-5.17025 -23.29156,-5.24172 -0.0164,0.0633 4.90409,0.0214 11.54967,1.01861 -1.93042,-0.52819 -3.88385,-1.27572 -6.36628,-1.75463 -5.54073,-1.08843 -11.2556,-1.46383 -11.25395,-1.50902 -0.008,0.0476 5.7009,-0.35979 11.50696,-0.0222 0.73191,0.0394 1.463,0.0904 2.18342,0.14949 -0.0714,-0.023 -0.13308,-0.0443 -0.17825,-0.055 -0.0255,-0.9381 -42.18504,-7.90075 -42.27952,-7.67321 -0.003,-0.15443 18.62734,1.03421 30.97465,2.63687 -1.69632,-0.22098 -9.41307,-1.87784 -9.92484,-1.98875 -0.15443,-0.0715 -8.9892,-2.24832 -18.17635,-3.32524 -10.73644,-1.25765 -21.21492,-0.0103 -23.47639,-0.0517 -0.005,0.0238 14.23993,-1.81953 23.6111,-1.4893 1.57884,0.0296 3.15768,0.10101 4.69298,0.19715 -2.1596,-0.53066 -4.33482,-1.04243 -6.5199,-1.52955 -1.08925,-0.0386 -8.40677,-0.30477 -15.73333,-0.007 -7.85394,0.30393 -24.26499,1.78009 -24.27648,1.72669 3.18314,-0.67441 16.20731,-2.17768 24.05879,-3.26282 1.75956,-0.24726 3.52651,-0.46083 5.21296,-0.6432 -15.13779,-2.77569 -30.26982,-4.20832 -43.51252,-3.31622 -54.58492,3.67766 -88.79937,35.95183 -125.53077,56.9885 -0.6202,0.35241 -1.23958,0.70563 -1.86143,1.05475 -35.32505,23.19217 -71.546329,31.29582 -94.206188,32.95681 -5.305783,0.38444 -12.100866,-0.5553 -16.185966,-3.35401 -7.031662,-5.45282 -6.931444,-8.79614 -8.152128,-12.23886 1.407976,2.13578 5.09467,3.44436 8.628573,3.63329 z"
           inkscape:connector-curvature="0"
           style="fill:#000000" />
        <g
           style="fill:#000000"
           transform="matrix(-0.8836821,0,0,0.82145584,489.31757,510.5792)"
           id="g342">
          <path
             id="path344"
             d="m 517.459,395.59 c 9.548,-9.253 7.159,-22.909 7.159,-22.909 0,0 -2.52,16.517 -17.641,19.386 -3.16,3.379 0.964,12.595 10.482,3.523 z"
             inkscape:connector-curvature="0"
             style="fill:#000000" />
          <path
             id="path346"
             d="m 525.438,396.364 c -2.623,1.846 -5.854,3.339 -8.481,4.379 6.757,-5.14 10.458,-10.87 10.458,-10.87 0,0 -5.986,7.015 -23.176,12.03 -3.293,0.962 -23.312,3.074 -23.497,6.256 24.126,2.686 34.406,-0.737 41.627,-5.654 -1.724,0.549 -3.924,0.985 -5.993,1.316 5.352,-3.258 13.225,-10.405 9.062,-7.457 z"
             inkscape:connector-curvature="0"
             style="fill:#000000" />
        </g>
      </g>
      <path
         sodipodi:nodetypes="ccsssssc"
         inkscape:connector-curvature="0"
         id="path5586"
         d="m 397.44633,678.79502 c -34.8487,42.63089 -171.09645,313.54358 -192.78318,328.72768 -12.51118,3.854 -24.30688,25.2962 -35.13872,20.6711 C 110.79435,1003.1166 74.81271,965.18345 53.69935,933.91618 46.93056,923.89212 -5.0612418,694.80244 -3.8589438,681.19298 1.0809952,625.27515 45.635219,887.10188 116.74951,874.25801 c 20.72743,-3.74357 45.83099,57.08306 74.89697,53.85913 140.48679,-15.58245 205.79985,-313.00169 205.79985,-249.32212 z"
         style="fill:#e0a681;fill-opacity:1;stroke:none;filter:url(#filter5582)"
         transform="matrix(0.3586187,0,0,-0.05074893,144.70031,888.11557)" />
      <path
         transform="matrix(0.3374526,0.12138004,0.01717676,-0.04775367,176.42013,883.88674)"
         style="fill:#e0a681;fill-opacity:1;stroke:none;filter:url(#filter5582)"
         d="m 397.44633,678.79502 c -34.8487,42.63089 -171.09645,313.54358 -192.78318,328.72768 -12.51118,3.854 -24.30688,25.2962 -35.13872,20.6711 C 110.79435,1003.1166 74.81271,965.18345 53.69935,933.91618 46.93056,923.89212 -5.0612418,694.80244 -3.8589438,681.19298 1.0809952,625.27515 45.635219,887.10188 116.74951,874.25801 c 20.72743,-3.74357 45.83099,57.08306 74.89697,53.85913 140.48679,-15.58245 205.79985,-313.00169 205.79985,-249.32212 z"
         id="path5588"
         inkscape:connector-curvature="0"
         sodipodi:nodetypes="ccsssssc" />
    </g>
  </g>
</svg>
