<?xml version="1.0" encoding="UTF-8" standalone="no"?>
<!-- Created with Inkscape (http://www.inkscape.org/) -->

<svg
   xmlns:dc="http://purl.org/dc/elements/1.1/"
   xmlns:cc="http://creativecommons.org/ns#"
   xmlns:rdf="http://www.w3.org/1999/02/22-rdf-syntax-ns#"
   xmlns:svg="http://www.w3.org/2000/svg"
   xmlns="http://www.w3.org/2000/svg"
   xmlns:xlink="http://www.w3.org/1999/xlink"
   xmlns:sodipodi="http://sodipodi.sourceforge.net/DTD/sodipodi-0.dtd"
   xmlns:inkscape="http://www.inkscape.org/namespaces/inkscape"
   sodipodi:docname="eye.svg"
   inkscape:version="0.48.0 r9654"
   version="1.1"
   id="svg2"
   height="400"
   width="400">
  <sodipodi:namedview
     id="base"
     pagecolor="#ffffff"
     bordercolor="#666666"
     borderopacity="1.0"
     inkscape:pageopacity="0.0"
     inkscape:pageshadow="2"
     inkscape:zoom="0.70710678"
     inkscape:cx="-79.602935"
     inkscape:cy="205.17485"
     inkscape:document-units="px"
     inkscape:current-layer="layer1"
     showgrid="false"
     inkscape:window-width="1678"
     inkscape:window-height="982"
     inkscape:window-x="0"
     inkscape:window-y="0"
     inkscape:window-maximized="1"
     showguides="true"
     inkscape:guide-bbox="true" />
  <defs
     id="defs4">
    <linearGradient
       inkscape:collect="always"
       id="linearGradient35617">
      <stop
         style="stop-color:#ffff00;stop-opacity:1;"
         offset="0"
         id="stop35619" />
      <stop
         style="stop-color:#ffff00;stop-opacity:0;"
         offset="1"
         id="stop35621" />
    </linearGradient>
    <linearGradient
       inkscape:collect="always"
       id="linearGradient5208">
      <stop
         style="stop-color:#999999;stop-opacity:1"
         offset="0"
         id="stop5210" />
      <stop
         style="stop-color:#c4c4c4;stop-opacity:0;"
         offset="1"
         id="stop5212" />
    </linearGradient>
    <linearGradient
       id="linearGradient5202">
      <stop
         style="stop-color:#e6e6e6;stop-opacity:1"
         offset="0"
         id="stop5204" />
      <stop
         style="stop-color:#b3b3b3;stop-opacity:1"
         offset="1"
         id="stop5206" />
    </linearGradient>
    <linearGradient
       id="linearGradient5590">
      <stop
         id="stop5592"
         offset="0"
         style="stop-color:#e9c6af;stop-opacity:1;" />
      <stop
         id="stop5594"
         offset="1"
         style="stop-color:#e9b08a;stop-opacity:1;" />
    </linearGradient>
    <linearGradient
       id="linearGradient3904"
       inkscape:collect="always">
      <stop
         id="stop3906"
         offset="0"
         style="stop-color:#000000;stop-opacity:1" />
      <stop
         id="stop3908"
         offset="1"
         style="stop-color:#333333;stop-opacity:0;" />
    </linearGradient>
    <linearGradient
       id="linearGradient3894">
      <stop
         id="stop3896"
         offset="0"
         style="stop-color:#ffffff;stop-opacity:1;" />
      <stop
         id="stop3898"
         offset="1"
         style="stop-color:#cccccc;stop-opacity:1" />
    </linearGradient>
    <linearGradient
       id="linearGradient3872"
       inkscape:collect="always">
      <stop
         id="stop3874"
         offset="0"
         style="stop-color:#e6e6e6;stop-opacity:1;" />
      <stop
         id="stop3876"
         offset="1"
         style="stop-color:#e6e6e6;stop-opacity:0;" />
    </linearGradient>
    <inkscape:perspective
       sodipodi:type="inkscape:persp3d"
       inkscape:vp_x="0 : 420.94501 : 1"
       inkscape:vp_y="0 : 1000 : 0"
       inkscape:vp_z="595.28003 : 420.94501 : 1"
       inkscape:persp3d-origin="297.64001 : 280.63 : 1"
       id="perspective354" />
    <filter
       color-interpolation-filters="sRGB"
       height="1.3122677"
       y="-0.15613383"
       width="1.3122677"
       x="-0.15613383"
       id="filter3832"
       inkscape:collect="always">
      <feGaussianBlur
         id="feGaussianBlur3834"
         stdDeviation="3.92658"
         inkscape:collect="always" />
    </filter>
    <filter
       color-interpolation-filters="sRGB"
       id="filter3852"
       inkscape:collect="always">
      <feGaussianBlur
         id="feGaussianBlur3854"
         stdDeviation="0.96495391"
         inkscape:collect="always" />
    </filter>
    <filter
       color-interpolation-filters="sRGB"
       id="filter3868"
       inkscape:collect="always">
      <feGaussianBlur
         id="feGaussianBlur3870"
         stdDeviation="0.43591212"
         inkscape:collect="always" />
    </filter>
    <inkscape:perspective
       id="perspective354-4"
       inkscape:persp3d-origin="297.64001 : 280.63 : 1"
       inkscape:vp_z="595.28003 : 420.94501 : 1"
       inkscape:vp_y="0 : 1000 : 0"
       inkscape:vp_x="0 : 420.94501 : 1"
       sodipodi:type="inkscape:persp3d" />
    <inkscape:perspective
       sodipodi:type="inkscape:persp3d"
       inkscape:vp_x="0 : 420.94501 : 1"
       inkscape:vp_y="0 : 1000 : 0"
       inkscape:vp_z="595.28003 : 420.94501 : 1"
       inkscape:persp3d-origin="297.64001 : 280.63 : 1"
       id="perspective354-7" />
    <filter
       id="filter5015"
       inkscape:collect="always">
      <feGaussianBlur
         id="feGaussianBlur5017"
         stdDeviation="0.53573912"
         inkscape:collect="always" />
    </filter>
    <filter
       id="filter5544"
       inkscape:collect="always">
      <feGaussianBlur
         id="feGaussianBlur5546"
         stdDeviation="4.5302316"
         inkscape:collect="always" />
    </filter>
    <filter
       height="1.3193129"
       y="-0.15965646"
       width="1.1977634"
       x="-0.098881714"
       id="filter5582"
       inkscape:collect="always">
      <feGaussianBlur
         id="feGaussianBlur5584"
         stdDeviation="15.368295"
         inkscape:collect="always" />
    </filter>
    <filter
       id="filter5610"
       inkscape:collect="always">
      <feGaussianBlur
         id="feGaussianBlur5612"
         stdDeviation="3.7783943"
         inkscape:collect="always" />
    </filter>
    <linearGradient
       y2="200.14214"
       x2="418.64465"
       y1="317.14215"
       x1="4.6446609"
       gradientUnits="userSpaceOnUse"
       id="linearGradient5835"
       xlink:href="#linearGradient5590"
       inkscape:collect="always" />
    <radialGradient
       r="69.119682"
       fy="465.92596"
       fx="247.09715"
       cy="465.92596"
       cx="247.09715"
       gradientTransform="matrix(-0.04940347,-0.56242357,2.44763,-0.21500484,-940.51584,1148.1193)"
       gradientUnits="userSpaceOnUse"
       id="radialGradient5837"
       xlink:href="#linearGradient3894"
       inkscape:collect="always" />
    <linearGradient
       y2="478.1915"
       x2="207.88937"
       y1="454.50339"
       x1="184.20131"
       gradientTransform="matrix(1.8597637,0,0,1.8597637,-262.05669,29.509429)"
       gradientUnits="userSpaceOnUse"
       id="linearGradient5839"
       xlink:href="#linearGradient3904"
       inkscape:collect="always" />
    <linearGradient
       y2="466.52423"
       x2="275.41809"
       y1="455.56406"
       x1="281.78204"
       gradientTransform="matrix(1.8597637,0,0,1.8597637,-262.05669,29.509429)"
       gradientUnits="userSpaceOnUse"
       id="linearGradient5841"
       xlink:href="#linearGradient3904"
       inkscape:collect="always" />
    <linearGradient
       y2="467.59238"
       x2="204.76392"
       y1="462.34238"
       x1="226.16853"
       gradientUnits="userSpaceOnUse"
       id="linearGradient5843"
       xlink:href="#linearGradient3872"
       inkscape:collect="always" />
    <linearGradient
       id="linearGradient5590-648">
      <stop
         id="stop4651"
         offset="0"
         style="stop-color:#cecece;stop-opacity:1;" />
      <stop
         id="stop4653"
         offset="1"
         style="stop-color:#bdbdbd;stop-opacity:1;" />
    </linearGradient>
    <linearGradient
       id="linearGradient3894-59">
      <stop
         id="stop4657"
         offset="0"
         style="stop-color:#ffffff;stop-opacity:1;" />
      <stop
         id="stop4659"
         offset="1"
         style="stop-color:#cccccc;stop-opacity:1" />
    </linearGradient>
    <linearGradient
       id="linearGradient3904-338"
       inkscape:collect="always">
      <stop
         id="stop4663"
         offset="0"
         style="stop-color:#000000;stop-opacity:1" />
      <stop
         id="stop4665"
         offset="1"
         style="stop-color:#333333;stop-opacity:0;" />
    </linearGradient>
    <linearGradient
       id="linearGradient3904-70"
       inkscape:collect="always">
      <stop
         id="stop4669"
         offset="0"
         style="stop-color:#000000;stop-opacity:1" />
      <stop
         id="stop4671"
         offset="1"
         style="stop-color:#333333;stop-opacity:0;" />
    </linearGradient>
    <linearGradient
       id="linearGradient3872-744"
       inkscape:collect="always">
      <stop
         id="stop4675"
         offset="0"
         style="stop-color:#e6e6e6;stop-opacity:1;" />
      <stop
         id="stop4677"
         offset="1"
         style="stop-color:#e6e6e6;stop-opacity:0;" />
    </linearGradient>
    <inkscape:perspective
       sodipodi:type="inkscape:persp3d"
       inkscape:vp_x="0 : 526.18109 : 1"
       inkscape:vp_y="0 : 1000 : 0"
       inkscape:vp_z="744.09448 : 526.18109 : 1"
       inkscape:persp3d-origin="372.04724 : 350.78739 : 1"
       id="perspective2492" />
    <inkscape:perspective
       id="perspective10"
       inkscape:persp3d-origin="372.04724 : 350.78739 : 1"
       inkscape:vp_z="744.09448 : 526.18109 : 1"
       inkscape:vp_y="0 : 1000 : 0"
       inkscape:vp_x="0 : 526.18109 : 1"
       sodipodi:type="inkscape:persp3d" />
    <filter
       inkscape:collect="always"
       id="filter35613"
       x="-1.3469979"
       width="3.6939958"
       y="-0.055504358"
       height="1.1110087">
      <feGaussianBlur
         inkscape:collect="always"
         stdDeviation="6.7701954"
         id="feGaussianBlur35615" />
    </filter>
    <linearGradient
       inkscape:collect="always"
       xlink:href="#linearGradient5202"
       id="linearGradient35712"
       gradientUnits="userSpaceOnUse"
       x1="-120.28375"
       y1="361.27109"
       x2="418.64465"
       y2="200.14214" />
    <linearGradient
       inkscape:collect="always"
       xlink:href="#linearGradient5208"
       id="linearGradient35714"
       gradientUnits="userSpaceOnUse"
       x1="177.13942"
       y1="809.50806"
       x2="13.891429"
       y2="911.41571" />
    <radialGradient
       inkscape:collect="always"
       xlink:href="#linearGradient3894-59"
       id="radialGradient35716"
       gradientUnits="userSpaceOnUse"
       gradientTransform="matrix(-0.03456465,-0.39349407,1.71246,-0.150426,-1032.5014,985.38361)"
       cx="247.09715"
       cy="465.92596"
       fx="247.09715"
       fy="465.92596"
       r="69.119682" />
    <linearGradient
       inkscape:collect="always"
       xlink:href="#linearGradient3904-338"
       id="linearGradient35718"
       gradientUnits="userSpaceOnUse"
       gradientTransform="matrix(1.3011652,0,0,1.3011652,-557.82423,202.75932)"
       x1="184.20131"
       y1="454.50339"
       x2="207.88937"
       y2="478.1915" />
    <linearGradient
       inkscape:collect="always"
       xlink:href="#linearGradient3904-70"
       id="linearGradient35720"
       gradientUnits="userSpaceOnUse"
       gradientTransform="matrix(1.3011652,0,0,1.3011652,-557.82423,202.75932)"
       x1="281.78204"
       y1="455.56406"
       x2="275.41809"
       y2="466.52423" />
    <linearGradient
       inkscape:collect="always"
       xlink:href="#linearGradient3872-744"
       id="linearGradient35722"
       gradientUnits="userSpaceOnUse"
       x1="226.16853"
       y1="462.34238"
       x2="204.76392"
       y2="467.59238" />
    <linearGradient
       inkscape:collect="always"
       xlink:href="#linearGradient35617"
       id="linearGradient35724"
       gradientUnits="userSpaceOnUse"
       x1="210.32257"
       y1="1010.1813"
       x2="210.32257"
       y2="736.35663" />
    <linearGradient
       inkscape:collect="always"
       xlink:href="#linearGradient35617"
       id="linearGradient35726"
       gradientUnits="userSpaceOnUse"
       x1="210.32257"
       y1="1010.1813"
       x2="210.32257"
       y2="736.35663" />
  </defs>
  <metadata
     id="metadata7">
    <rdf:RDF>
      <cc:Work
         rdf:about="">
        <dc:format>image/svg+xml</dc:format>
        <dc:type
           rdf:resource="http://purl.org/dc/dcmitype/StillImage" />
        <dc:title></dc:title>
      </cc:Work>
    </rdf:RDF>
  </metadata>
  <g
     transform="translate(0,-652.36218)"
     id="layer1"
     inkscape:groupmode="layer"
     inkscape:label="Camada 1">
    <g
       transform="translate(671.35676,902.412)"
       style="display:inline"
       inkscape:label="contorno do olho"
       id="layer2" />
    <g
       transform="translate(671.35676,902.412)"
       style="display:inline"
       inkscape:label="contorno de dentro do olho"
       id="layer3" />
    <g
       id="g35629"
       transform="matrix(1.0025641,0,0,1.0025641,-5.0196063,-1.9176736)">
      <g
         transform="translate(417,74)"
         id="g5248">
        <path
           transform="matrix(0.80446069,0,0,0.80446069,-359.39083,598.53608)"
           style="fill:url(#linearGradient35712);fill-opacity:1;stroke:none;filter:url(#filter5610)"
           d="m 413.61942,246.43651 c -43.59781,53.33381 -206.17579,123.25359 -233.30719,142.24978 -15.65224,4.82145 -33.03474,3.81856 -46.58602,-1.96772 C 60.251351,355.34544 17.861534,335.71729 -8.5525517,296.60005 -17.020712,284.05936 -54.499112,266.46276 -52.994965,249.43651 c 6.18016,-69.95656 31.569076,-109.79238 120.537316,-125.86084 25.931264,-4.68342 62.906589,-13.85562 99.269879,-17.88895 175.75741,-19.494576 246.80719,61.08283 246.80719,140.74979 z"
           id="path3106"
           inkscape:connector-curvature="0"
           sodipodi:nodetypes="ccsssssc" />
        <path
           sodipodi:nodetypes="ccsssssc"
           inkscape:connector-curvature="0"
           id="path3108"
           d="m 391.15076,893.81935 c -34.8487,42.63089 -164.80088,98.51925 -186.48761,113.70335 -12.51118,3.854 -26.4054,3.0523 -37.23724,-1.5728 -58.73008,-25.07722 -92.6132,-40.76645 -113.72656,-72.03372 -6.76879,-10.02406 -36.726108,-24.08941 -35.52381,-37.69887 4.939939,-55.91783 25.23386,-87.75948 96.34815,-100.60335 20.72743,-3.74357 50.37801,-18.40079 79.34861,-14.29904 154.68142,21.90029 235.13378,148.78671 197.27846,112.50443 z"
           style="fill:url(#linearGradient35714);fill-opacity:1;stroke:none;filter:url(#filter5544)"
           transform="matrix(0.67688429,0,0,0.62801955,-358.40289,248.4753)" />
        <path
           transform="matrix(0.32922481,0,0,0.04658933,-300.90217,812.8967)"
           style="fill:#b3b3b3;fill-opacity:1;stroke:none;filter:url(#filter5582)"
           d="m 391.15076,893.81935 c -34.8487,42.63089 -164.80088,98.51925 -186.48761,113.70335 -12.51118,3.854 -26.4054,3.0523 -37.23724,-1.5728 -58.73008,-25.07722 -92.6132,-40.76645 -113.72656,-72.03372 -6.76879,-10.02406 -36.726108,-24.08941 -35.52381,-37.69887 4.939939,-55.91783 27.459679,-9.11543 98.57397,-21.9593 20.72743,-3.74357 45.83099,57.08306 74.89697,53.85913 140.48679,-15.58245 199.50428,-97.97736 199.50428,-34.29779 z"
           id="path3110"
           inkscape:connector-curvature="0"
           sodipodi:nodetypes="ccsssssc" />
        <path
           inkscape:connector-curvature="0"
           sodipodi:nodetypes="cccccccccccccccccccccccccccccccccccccccc"
           id="path3114"
           d="m -257.69042,779.91366 28.22908,1.48897 c 6.59652,-1.08581 10.0796,-4.18838 13.69631,-7.20436 -1.29714,2.58937 -2.04557,5.07312 -6.27313,8.2265 3.98912,-0.67654 6.30109,-2.56024 8.36418,-4.6231 -1.40977,1.79182 -1.57767,3.3133 -5.54125,5.66104 l 8.78235,0.42673 c 7.86955,-1.27508 13.77446,-4.02911 19.44672,-6.95829 -3.27058,4.37144 -7.01639,6.52708 -10.66432,8.93115 12.5366,4.49211 20.85028,4.10061 29.17001,-0.67752 -2.25172,2.02394 -4.61544,4.04122 -8.78236,5.95103 7.85709,1.13767 16.64222,-2.52999 25.30159,-5.5464 -4.57647,3.89048 -8.59529,8.00163 -16.10101,10.73309 14.85935,4.51158 22.04672,2.02058 29.90192,0.13916 -3.44523,2.80873 -6.92106,5.60149 -12.54627,7.27288 11.54371,4.33469 17.52599,2.29071 24.56976,1.46417 -3.72284,2.4255 -7.02659,5.08726 -13.69635,5.85149 7.86508,2.7049 15.13322,3.81106 21.32866,2.04407 -5.93931,4.68542 -12.84615,7.07746 -21.015,6.47831 2.61278,3.15938 7.32279,4.61305 14.95097,3.69331 -5.55134,1.44721 -11.12859,2.86215 -20.49223,-0.4481 l -1.56829,2.32237 c 6.00811,2.46374 8.02736,5.21642 10.24613,7.9547 -3.94622,-3.33475 -8.74728,-4.94279 -13.80087,-6.04061 -1.90941,1.64948 -2.77157,2.0624 -3.973,2.75885 6.54114,2.70898 8.81753,5.16386 11.60527,7.64915 -4.73967,-2.83315 -9.47937,-4.90412 -14.21908,-5.67898 l -3.76387,1.61174 c 4.97904,3.01905 7.67959,4.58322 11.1871,9.267 -5.03713,-3.13126 -10.03901,-6.29049 -18.6103,-6.61711 l -8.15504,3.76589 c 3.26023,1.67281 6.38971,3.57958 9.09604,6.24337 -7.63223,-4.33429 -15.19705,-6.39157 -24.36067,-3.48099 5.01647,2.8211 8.71297,6.63102 11.50075,11.12171 -5.78982,-5.05336 -11.91835,-8.48889 -18.81938,-10.01171 2.62683,1.99255 3.94682,3.90724 4.91395,5.80092 -5.55299,-4.55631 -12.32547,-6.43002 -20.38766,-5.46682 2.9963,1.78589 5.21679,3.58652 6.37768,6.27465 -7.27161,-6.33414 -19.57038,-7.87894 -32.62025,-8.7082 1.52616,-18.43972 7.1941,-21.38893 -13.27814,-61.67006 z"
           style="fill:#000000;fill-rule:evenodd;stroke:#000000;stroke-width:0.29670256px;stroke-linecap:butt;stroke-linejoin:miter;stroke-opacity:1;display:inline" />
        <path
           style="fill:url(#radialGradient35716);fill-opacity:1;stroke:none"
           d="m -231.66199,783.10259 c 49.02378,8.39918 64.41036,21.28332 77.28528,34.50235 -21.96184,20.6004 -49.75692,23.70107 -76.36521,30.36207 -35.54701,-1.55257 -70.40265,-7.25336 -103.50706,-23.46159 32.83224,-32.20725 67.30805,-42.22633 102.58699,-41.40283 z"
           id="path3116"
           inkscape:connector-curvature="0"
           sodipodi:nodetypes="ccccc" />
        <path
           style="fill:url(#linearGradient35718);fill-opacity:1;stroke:none"
           d="m -231.66199,783.10259 c 49.02378,8.39918 64.41036,21.28332 77.28528,34.50235 -21.96184,20.6004 -49.75692,23.70107 -76.36521,30.36207 -35.54701,-1.55257 -70.40265,-7.25336 -103.50706,-23.46159 32.83224,-32.20725 67.30805,-42.22633 102.58699,-41.40283 z"
           id="path3118"
           inkscape:connector-curvature="0"
           sodipodi:nodetypes="ccccc" />
        <path
           sodipodi:nodetypes="ccccc"
           inkscape:connector-curvature="0"
           id="path3120"
           d="m -231.66199,783.10259 c 49.02378,8.39918 64.41036,21.28332 77.28528,34.50235 -21.96184,20.6004 -49.75692,23.70107 -76.36521,30.36207 -35.54701,-1.55257 -70.40265,-7.25336 -103.50706,-23.46159 32.83224,-32.20725 67.30805,-42.22633 102.58699,-41.40283 z"
           style="fill:url(#linearGradient35720);fill-opacity:1;stroke:none" />
        <path
           style="fill:#000000;fill-opacity:1;stroke:none"
           id="path3122"
           d="m -333.03279,826.72097 c 0.17295,-1.00872 -0.43481,-3.17468 10e-4,-4.04091 0.73149,-1.39151 1.66446,-1.54789 2.57947,-2.75701 1.24739,-1.66003 3.66978,-2.92777 5.075,-4.38277 1.77778,-1.83406 3.71982,-3.40181 5.68759,-4.90922 4.88182,-3.65946 9.87103,-7.09394 14.93836,-10.34926 2.13212,-1.39715 4.28826,-2.73729 6.46144,-4.03592 2.27477,-1.424 4.16667,-2.63752 6.53684,-3.79925 2.66734,-1.28465 5.40623,-2.32972 8.14529,-3.35766 2.83148,-1.05606 5.69832,-1.96082 8.57251,-2.824 2.92817,-0.87914 5.88533,-1.59603 8.85263,-2.24476 3.22223,-0.70484 6.46598,-1.23558 9.71377,-1.7263 3.28492,-0.48718 6.57662,-0.90118 9.87038,-1.28745 3.25388,-0.38895 6.51644,-0.65239 9.78057,-0.87059 3.17349,-0.21826 6.35283,-0.28336 9.53083,-0.30406 3.07505,-0.0435 6.1485,0.10422 9.21839,0.30588 2.96604,0.186 5.91379,0.61751 8.8551,1.10295 2.91645,0.47205 5.80313,1.15991 8.68033,1.9013 2.91886,0.74709 5.80906,1.64058 8.67975,2.62493 2.78637,0.94645 5.52569,2.07579 8.24921,3.26029 2.65222,1.17023 5.24147,2.53244 7.80801,3.95585 2.50068,1.42686 4.96092,2.95447 7.40247,4.52592 2.36022,1.53034 4.73009,3.03845 7.08855,4.57283 2.17672,1.43279 4.35239,2.86815 6.49564,4.37484 2.09159,1.48296 4.14249,3.0503 6.17106,4.65829 2.00759,1.59845 4.79871,4.29679 6.78534,5.93358 0.31728,0.26597 -0.17868,-0.51362 0.13859,-0.24763 -2.72019,4.17414 -5.44039,4.39308 -8.16058,6.37045 l 0,0 c -0.31513,-0.26444 -0.16555,-0.52888 -0.48068,-0.79333 -1.97689,-1.63896 -4.41696,-3.28088 -6.42087,-4.8704 -2.02124,-1.58666 -4.0597,-3.14191 -6.14252,-4.60553 -2.1397,-1.48806 -4.30263,-2.92502 -6.46947,-4.35304 -2.35477,-1.53386 -4.71743,-3.04961 -7.07602,-4.57464 -2.42912,-1.55503 -4.87703,-3.06709 -7.36777,-4.47007 -2.54939,-1.40082 -5.12436,-2.73222 -7.75936,-3.87655 -2.70844,-1.16595 -5.4352,-2.26708 -8.20469,-3.1988 -2.85876,-0.96199 -5.73736,-1.83154 -8.64211,-2.56233 -2.86481,-0.71868 -5.7407,-1.36994 -8.6421,-1.82956 -2.92481,-0.46963 -5.85871,-0.85498 -8.80658,-1.02817 -3.05665,-0.18387 -6.11601,-0.31312 -9.17698,-0.25698 -3.16756,0.0374 -6.33591,0.11009 -9.49843,0.3456 -3.25432,0.22763 -6.50653,0.507 -9.75036,0.90314 -3.28895,0.39558 -6.57618,0.8151 -9.8558,1.31482 -3.24144,0.50315 -6.47747,1.06062 -9.69114,1.78807 -2.95914,0.67567 -5.90777,1.41999 -8.82848,2.31464 -2.86385,0.87786 -5.71956,1.79972 -8.53814,2.87764 -2.73083,1.049 -5.00033,2.11714 -7.64946,3.4501 -2.36351,1.18873 -4.69357,2.46766 -6.97271,3.88364 -2.16299,1.31002 -4.30628,2.66758 -6.43673,4.05504 -1.12127,0.72763 -2.24326,1.45394 -3.35347,2.20666 -0.37239,0.2525 -1.48135,1.02773 -1.11332,0.76586 13.46922,-9.58436 8.64208,-6.13001 6.07916,-4.29436 -1.96743,1.45757 -3.914,2.96956 -5.70698,4.73858 -1.40569,1.40258 -1.26935,3.31991 -2.52979,4.91876 -0.89317,1.17505 -2.40265,2.665 -3.18878,3.95303 -0.4345,0.74935 -3.2972,0.47665 -3.58812,1.32749 -5.9925,0.8552 -4.88902,3.26752 -7.34675,5.42037 z"
           inkscape:connector-curvature="0"
           sodipodi:nodetypes="cccccccccccccccccccccccccccccccccccccccccccccccccccsccccccc" />
        <path
           inkscape:connector-curvature="0"
           d="m -332.71557,825.14827 c -0.95569,0.83482 -0.38085,1.23352 0.076,1.73523 0.76281,0.80432 2.75966,1.36652 3.69375,2.05025 1.27384,0.93917 5.80405,-0.20068 7.22336,0.60557 1.79538,1.01593 3.74017,1.86141 5.70762,2.66888 4.87809,1.95459 9.85189,3.76688 14.89476,5.46625 2.1229,0.73169 4.26692,1.42747 6.42595,2.09715 2.26237,0.74022 4.59168,1.34855 6.93678,1.92452 2.63827,0.63438 5.33693,1.11954 8.03508,1.59429 2.78898,0.48682 5.60656,0.87992 8.42969,1.24741 2.87615,0.37424 5.77432,0.64847 8.67974,0.88083 3.15507,0.25254 6.32443,0.39831 9.4962,0.5196 3.20767,0.1171 6.41921,0.18947 9.63164,0.24488 3.17385,0.0592 6.35136,0.0419 9.52869,-0.004 3.08933,-0.0399 6.17857,-0.17313 9.26478,-0.33315 2.98715,-0.14063 5.96553,-0.39716 8.9384,-0.68616 2.87264,-0.27395 5.71822,-0.69572 8.55552,-1.1499 2.81368,-0.44472 5.59028,-1.01869 8.35565,-1.62467 2.80561,-0.61167 5.57786,-1.31059 8.32773,-2.06354 2.66943,-0.72542 5.28627,-1.55919 7.88569,-2.42558 2.53072,-0.85385 4.99306,-1.82074 7.43104,-2.82351 2.37388,-1.00129 4.70472,-2.0615 7.01572,-3.14726 2.23364,-1.05644 4.47746,-2.0999 6.70921,-3.15868 2.05914,-0.98729 4.11717,-1.97609 6.14105,-3.00638 1.97459,-1.01311 3.90649,-2.07518 5.81517,-3.16069 1.88868,-1.07859 5.25673,-4.62822 7.12361,-5.72891 0.29799,-0.17856 -0.91432,2.08256 -0.61635,1.904 l -8.16387,-3.42093 0,0 c -0.29596,0.17751 -0.59189,0.35503 -0.88785,0.53255 -1.85734,1.10148 -3.71309,2.2047 -5.59853,3.27767 -1.90237,1.07217 -3.82264,2.12625 -5.78947,3.12713 -2.02111,1.01881 -4.06672,2.00789 -6.11645,2.99174 -2.22818,1.05828 -4.46472,2.10599 -6.69696,3.15912 -2.29957,1.07512 -4.61901,2.12522 -6.98417,3.1115 -2.42217,0.98812 -4.87179,1.93554 -7.38678,2.77275 -2.58548,0.85431 -5.19119,1.67031 -7.84481,2.38586 -2.73912,0.73876 -5.50101,1.42252 -8.29355,2.02353 -2.75419,0.59153 -5.52171,1.14273 -8.32123,1.57908 -2.82188,0.4437 -5.65576,0.83677 -8.51126,1.10192 -2.96069,0.27757 -5.92607,0.52208 -8.90003,0.65424 -3.07674,0.14941 -6.15558,0.27732 -9.2349,0.30619 -3.16816,0.0386 -6.33624,0.0458 -9.50059,-0.0183 -3.20815,-0.0613 -6.41552,-0.13729 -9.61851,-0.26228 -3.16609,-0.1292 -6.32898,-0.29158 -9.47657,-0.5583 -2.89852,-0.24915 -5.78945,-0.54048 -8.65894,-0.92453 -2.81366,-0.37696 -5.62108,-0.78104 -8.39834,-1.28181 -2.69098,-0.48798 -5.38143,-0.98765 -8.00383,-1.65232 -2.33962,-0.59268 -4.65021,-1.2419 -6.91654,-1.977 -2.14955,-0.67714 -4.28175,-1.38421 -6.40264,-2.1101 -1.11614,-0.38046 -2.23293,-0.76008 -3.33927,-1.15636 -0.37109,-0.13294 -1.47708,-0.54294 -1.10987,-0.40409 13.43946,5.08208 8.62226,3.24893 6.06454,2.27467 -1.96526,-0.77726 -3.91233,-1.58867 -5.72001,-2.56433 -1.41778,-0.77443 -2.80665,-1.58092 -4.09086,-2.48227 -0.91161,-0.66425 -1.85634,-1.30616 -2.66831,-2.04475 -0.45018,-0.43092 -0.89011,-0.87676 -1.20474,-1.37705 -3.55138,0.70684 -6.65976,1.06387 -11.69971,-1.50412 z"
           id="path3124"
           style="fill:#000000;fill-opacity:1;stroke:none"
           sodipodi:nodetypes="ccccccccccccccccccccccccccccccccccccccccccccccccccccccccccc" />
        <path
           style="fill:#000000;stroke:#000000;stroke-width:1.36112869;stroke-opacity:1"
           d="m -234.83843,785.50768 c -3.31355,0.039 -6.64502,0.13645 -9.95327,0.3828 -3.40429,0.23813 -6.81514,0.5214 -10.20846,0.93578 -3.44052,0.41381 -6.86278,0.8384 -10.29353,1.36111 -3.39083,0.52636 -6.76162,1.11059 -10.12339,1.87157 -1.44748,0.3305 -2.89779,0.69273 -4.3386,1.06337 -0.67528,2.95466 -1.06338,6.02829 -1.06338,9.18762 0,22.68615 18.40291,41.08907 41.08907,41.08907 22.68615,0 41.08906,-18.40292 41.08906,-41.08907 0,-3.25027 -0.39236,-6.41032 -1.10592,-9.44282 -2.40268,-0.77389 -4.79656,-1.47178 -7.23099,-2.08422 -2.99682,-0.75182 -6.02489,-1.43329 -9.06,-1.9141 -3.0596,-0.49128 -6.14644,-0.8822 -9.23016,-1.06338 -3.19751,-0.19235 -6.36841,-0.35647 -9.57043,-0.29773 z"
           id="path3126"
           inkscape:connector-curvature="0" />
        <path
           style="opacity:0.52452835;fill:#71c837;fill-opacity:1;stroke:none;filter:url(#filter3852)"
           d="m 247.40625,452.46875 c -0.12513,0.19808 -0.22424,0.36938 -0.34375,0.5625 1.23834,-0.11244 2.47782,-0.24181 3.71875,-0.375 0.29006,-0.0315 0.58198,-0.0688 0.875,-0.0937 -1.41166,-0.0724 -2.83188,-0.11976 -4.25,-0.0937 z m 5.125,0.15625 c -0.48886,0.2928 -0.98376,0.57598 -1.46875,0.875 -0.72914,0.05 -1.45807,0.0795 -2.1875,0.125 -0.56375,0.0351 -1.12338,0.065 -1.6875,0.0937 -0.0312,0.002 -0.0625,-0.002 -0.0937,0 -0.14573,-2.4e-4 -0.29163,-8e-5 -0.4375,0 -0.23596,0.39104 -0.47326,0.81662 -0.6875,1.1875 1.01056,-0.007 2.02033,-0.0301 3.03125,-0.0625 -1.23289,0.83885 -2.4503,1.70654 -3.625,2.625 -0.19043,0.0299 -0.18218,0.0999 -0.34375,-0.0312 -0.002,0.0718 -0.006,0.16218 -0.0312,0.25 -0.23519,0.0967 -0.47991,0.18904 -0.71875,0.28125 -0.0107,0.0209 -0.0206,0.0416 -0.0312,0.0625 0.13235,10e-4 0.27397,-0.003 0.40625,0 -0.17117,0.13912 -0.33411,0.29006 -0.5,0.4375 -0.0216,-0.0291 -0.0399,-0.0632 -0.0625,-0.0937 -0.50944,1.01418 -0.94074,1.91765 -1.34375,2.78125 0.0521,0.001 0.10416,-10e-4 0.15625,0 -0.004,0.006 0.004,0.025 0,0.0312 -0.0625,-2.7e-4 -0.12501,10e-5 -0.1875,0 -0.10837,0.23229 -0.20837,0.43309 -0.3125,0.65625 0.0312,-1.7e-4 0.0625,-4.3e-4 0.0937,0 -0.0437,0.0694 -0.1141,0.18253 -0.15625,0.25 -0.009,-0.0207 -0.0239,-0.0405 -0.0312,-0.0625 -1.46276,3.1283 -2.65359,5.48557 -5.5625,7.96875 -0.0143,0.0176 -0.0169,0.0449 -0.0312,0.0625 -0.56581,0.69453 -1.14728,1.3725 -1.71875,2.0625 0.0528,-0.0932 0.11118,-0.18402 0.15625,-0.28125 0.063,-0.13582 0.18455,-0.31849 0.0937,-0.4375 -0.0692,-0.0907 -0.19258,-0.0261 -0.3125,0 -0.73222,0.52446 -1.57653,1.05827 -2.5,1.625 -0.0287,0.0243 -0.0651,0.0381 -0.0937,0.0625 -0.18696,0.1589 -0.37219,0.31956 -0.5625,0.46875 -0.57282,0.44904 -1.16643,0.87753 -1.75,1.3125 0.46342,-0.38474 0.92214,-0.78993 1.5,-1.25 -0.68447,0.40271 -1.45578,0.81742 -2.25,1.25 -0.0611,0.1257 -0.12669,0.24956 -0.1875,0.375 -0.43674,0.36319 -0.86598,0.73052 -1.375,1.15625 -0.21397,0.18416 -0.4153,0.37375 -0.625,0.5625 -0.41053,0.27801 -0.83201,0.54174 -1.25,0.8125 0.0441,0.0501 0.0805,0.10648 0.125,0.15625 0.0714,-0.0445 0.14751,-0.0799 0.21875,-0.125 -0.053,0.0511 -0.10358,0.10487 -0.15625,0.15625 0.0844,0.0939 0.16421,0.18867 0.25,0.28125 0.52045,-0.53605 1.03669,-1.05888 1.59375,-1.5625 0.26717,-0.18048 0.54836,-0.34796 0.8125,-0.53125 -0.22906,0.49574 -0.46734,0.96841 -0.6875,1.46875 l 0.28125,-0.125 c -0.4603,0.46697 -0.91445,0.93977 -1.375,1.40625 0.0836,0.0838 0.16527,0.16738 0.25,0.25 2.39054,-2.42639 4.76791,-4.84942 7.15625,-7.28125 0.10103,0.0885 -0.007,0.2838 -0.0625,0.40625 -0.13428,0.29786 -0.33066,0.56434 -0.5,0.84375 -0.28576,0.47149 -0.60224,0.91531 -0.90625,1.375 -0.82298,0.77369 -1.64614,1.54005 -2.5,2.28125 -0.5457,0.47371 -0.71004,0.60036 -1.21875,1.0625 -0.14698,0.13352 -0.29353,0.26948 -0.4375,0.40625 -0.3899,0.42137 -0.73982,0.8706 -1.0625,1.34375 0.14638,0.13555 0.28788,0.27421 0.4375,0.40625 0.43696,-0.78333 0.97789,-1.50605 1.59375,-2.15625 0.8101,-0.71139 1.61279,-1.40689 2.40625,-2.125 -0.24114,0.35197 -0.47753,0.71067 -0.71875,1.0625 -0.96616,1.18486 -1.92481,2.3776 -2.84375,3.59375 0.53568,0.45149 1.08326,0.8757 1.65625,1.28125 0.44596,-0.73339 0.90444,-1.45756 1.40625,-2.15625 1.92242,-2.6055 3.8981,-5.17408 5.6875,-7.875 -0.0239,0.0615 -0.0384,0.12611 -0.0625,0.1875 -0.42043,0.59553 -0.83646,1.18156 -1.25,1.78125 -0.55243,0.80175 -1.89866,2.74481 -2.4375,3.5625 -0.4984,0.75633 -0.96834,1.51582 -1.4375,2.28125 -0.4335,0.57216 -0.88078,1.14553 -1.3125,1.71875 -0.11503,0.16614 -0.22723,0.33488 -0.34375,0.5 -0.0335,0.0396 -0.0602,0.0855 -0.0937,0.125 0.45553,0.31694 0.92918,0.61977 1.40625,0.90625 0.31718,-0.48541 0.61401,-0.98624 0.9375,-1.46875 -0.25452,0.52904 -0.50563,1.05987 -0.75,1.59375 0.26944,0.15854 0.56793,0.28897 0.84375,0.4375 0.25088,-0.22848 0.50587,-0.45265 0.75,-0.6875 -0.0989,0.25873 -0.18056,0.52317 -0.28125,0.78125 0.0685,-0.0918 0.059,-0.0516 0.0937,-0.0937 -0.0575,0.0796 -0.1192,0.14157 -0.15625,0.21875 -0.004,0.008 0.003,0.0237 0,0.0312 0.44412,0.22829 0.88458,0.42323 1.34375,0.625 0.008,-0.0315 0.0227,-0.0623 0.0312,-0.0937 0.34454,-0.9582 0.77079,-1.89537 1.21875,-2.8125 -0.33629,1.00374 -0.69174,1.99895 -1.03125,3 1.00324,0.42908 2.05898,0.79833 3.125,1.09375 0.0119,-0.23927 0.0192,-0.48118 0.0312,-0.71875 0.0683,-0.76307 0.14077,-1.52156 0.21875,-2.28125 0.2293,-0.58401 0.45863,-1.166 0.6875,-1.75 0.51835,-1.32525 1.08158,-2.63595 1.65625,-3.9375 -0.0887,0.50658 -0.17006,1.0201 -0.25,1.53125 -0.39124,2.50168 -0.49885,3.64968 -0.78125,6.15625 -0.0431,0.44531 -0.0875,0.89447 -0.125,1.34375 0.37289,0.0795 0.74612,0.15623 1.125,0.21875 0.30049,0.0496 0.60223,0.11757 0.90625,0.15625 0.0352,-0.3117 0.0603,-0.62456 0.0937,-0.9375 0.009,-0.0836 0.0224,-0.16643 0.0312,-0.25 0.029,-4.3e-4 0.0731,-0.016 0.0937,-0.0312 0.2875,-0.21178 0.44409,-0.32383 0.59375,-0.4375 -0.0674,0.40688 -0.14688,0.81773 -0.1875,1.0625 -0.0238,0.18683 -0.0643,0.42616 -0.0937,0.65625 0.38071,0.0402 0.77061,0.071 1.15625,0.0937 0.008,-0.0829 0.0165,-0.174 0.0312,-0.25 0.069,-0.35691 0.1304,-0.73476 0.1875,-1.09375 0.25037,-1.73197 0.45481,-3.44981 0.65625,-5.1875 0.017,0.0822 0.0181,0.1674 0.0312,0.25 0.0256,0.16157 0.0314,0.30813 0.0625,0.46875 0.0146,0.0755 0.0355,0.20366 0.0625,0.28125 0.008,0.10378 -0.007,0.20867 0,0.3125 -0.002,1.00891 0.004,2.02234 0,3.03125 -0.007,0.56129 -0.0102,1.12462 0,1.6875 -0.0313,0.17664 -0.0555,0.3555 -0.0937,0.53125 0.17889,0.004 0.35144,0 0.53125,0 0.17736,0 0.35478,0.004 0.53125,0 -0.006,-0.0219 0.005,-0.0427 0,-0.0625 0.087,-0.19527 0.0627,-0.44662 0.0625,-0.84375 0.019,0.24025 0.0445,0.4784 0.0625,0.71875 0.004,0.0502 0.0255,0.10325 0.0312,0.15625 0.76083,-0.0207 1.50773,-0.0684 2.25,-0.15625 0.0719,-0.35303 0.13861,-0.70371 0.1875,-1.0625 0.11638,-0.85475 0.21945,-1.70268 0.28125,-2.5625 0.0559,0.15091 0.0144,0.0506 0.21875,0.59375 0.13734,0.36506 0.26354,0.73408 0.40625,1.09375 -0.0436,0.60241 -0.10401,1.20763 -0.15625,1.8125 0.54052,-0.0848 1.06539,-0.19333 1.59375,-0.3125 0.012,-0.22918 0.0194,-0.45962 0.0312,-0.6875 0.007,0.0525 0.0209,0.10387 0.0312,0.15625 0.0528,0.22798 0.0954,0.38018 0.125,0.5 0.36741,-0.0859 0.73281,-0.17924 1.09375,-0.28125 -0.006,-0.15577 -0.0195,-0.31674 -0.0312,-0.46875 -0.0219,-0.28239 -0.0666,-0.56181 -0.0937,-0.84375 -0.0343,-0.35717 -0.0553,-0.70573 -0.0937,-1.0625 -0.0241,-0.1978 -0.0695,-0.39611 -0.0937,-0.59375 0.007,-0.0257 0.007,-0.0615 0,-0.0937 -0.1228,-0.99549 -0.24418,-1.98293 -0.4375,-2.96875 -0.11316,-0.57707 -0.23041,-1.03337 -0.34375,-1.5 0.009,-0.57286 0.0233,-1.14588 0.0312,-1.71875 0.66144,2.1847 1.36327,4.36873 2.09375,6.53125 0.0636,0.77811 0.11932,1.56276 0.1875,2.34375 0.32446,-0.11006 0.65047,-0.22078 0.96875,-0.34375 -6e-4,-0.0104 5.9e-4,-0.0209 0,-0.0312 0.0342,-0.0108 0.0902,-0.0199 0.125,-0.0312 0.10376,-0.0408 0.20943,-0.0829 0.3125,-0.125 -0.18839,-0.51559 -0.34898,-1.04512 -0.53125,-1.5625 -0.0393,-0.91764 -0.0689,-1.83172 -0.0937,-2.75 0.21733,0.36087 0.46472,0.70517 0.6875,1.0625 0.008,0.0122 0.0236,0.019 0.0312,0.0312 0.0755,0.97694 0.14404,1.94656 0.15625,2.8125 10e-4,0.10019 -0.0185,0.2095 -0.0312,0.3125 2.00442,-0.84145 3.86632,-1.93795 5.5625,-3.25 -0.47988,-0.64477 -0.9575,-1.29224 -1.40625,-1.90625 -0.16244,-0.75459 -0.31943,-1.50201 -0.5,-2.25 0.66163,0.78264 1.30205,1.59113 1.875,2.4375 0.27297,0.40324 0.50371,0.78408 0.75,1.1875 1.03638,-0.86317 1.99165,-1.82505 2.875,-2.84375 -0.0959,-0.10227 -0.18471,-0.20966 -0.28125,-0.3125 0.67662,-0.15971 0.19893,-0.55306 -0.21875,-1.0625 -0.32984,-0.34191 -0.66091,-0.66777 -1,-1 -0.38214,-0.44745 -0.77206,-0.8982 -1.15625,-1.34375 1.27624,0.75867 2.57029,1.47577 3.90625,2.125 0.42596,-0.58042 0.84361,-1.16397 1.21875,-1.78125 -0.29084,-0.18905 -0.58491,-0.37364 -0.875,-0.5625 -0.0381,-0.0782 -0.16694,-0.12777 -0.28125,-0.1875 -0.0281,-0.0147 -0.073,-0.0151 -0.0937,-0.0312 -0.0347,-0.0271 -0.0588,-0.0669 -0.0937,-0.0937 -0.14727,-0.11325 -0.28914,-0.23193 -0.4375,-0.34375 0.14742,0.038 0.28989,0.0878 0.4375,0.125 0.45905,0.35083 0.92232,0.70136 1.375,1.0625 0.25293,-0.41776 0.45901,-0.8791 0.6875,-1.3125 -0.87326,-0.66619 -2.11207,-1.57542 -2.59375,-1.9375 -0.19001,-0.14339 -0.37349,-0.29284 -0.5625,-0.4375 1.1286,0.66664 2.24767,1.34724 3.34375,2.0625 0.13605,-0.26763 0.24848,-0.53939 0.375,-0.8125 -0.56354,-0.34668 -1.11823,-0.6933 -1.6875,-1.03125 0.29963,0.0951 0.60627,0.18723 0.90625,0.28125 0.0428,0.0198 0.0816,0.0437 0.125,0.0625 0.0501,0.0156 0.10614,0.0157 0.15625,0.0312 0.0716,0.0258 0.14471,0.0805 0.21875,0.0937 0.11397,0.0532 0.22705,0.0884 0.34375,0.0625 0.0414,-0.009 0.0845,-0.0191 0.125,-0.0312 0.0235,0.01 0.0387,0.0225 0.0625,0.0312 0.11143,-0.2556 0.20952,-0.52126 0.3125,-0.78125 -0.0402,-0.0147 -0.0835,-0.0201 -0.125,-0.0312 0.0502,-0.11284 -0.17784,-0.15115 -0.28125,-0.21875 -0.29573,-0.19324 -0.62461,-0.36347 -0.9375,-0.53125 0.0396,-0.1039 0.0948,-0.15792 0.15625,-0.1875 0.0471,-0.0445 0.19866,-0.11811 0.34375,-0.1875 0.24636,0.1321 0.43417,0.24553 0.59375,0.34375 -0.16464,0.0115 -0.29799,-0.003 -0.4375,0 0.26265,0.18034 0.55494,0.4295 0.8125,0.53125 0.15695,-0.41111 0.30213,-0.82875 0.4375,-1.25 -0.22164,-0.0751 -0.46463,-0.12424 -0.65625,-0.21875 -0.34554,-0.17041 -0.60602,-0.2955 -0.90625,-0.4375 0.54159,0.14764 1.08341,0.2921 1.625,0.4375 0.0608,-0.19553 0.1314,-0.39618 0.1875,-0.59375 -2.08063,-0.5563 -4.1605,-1.15633 -6.21875,-1.78125 -0.45413,-0.19308 -0.88933,-0.40134 -1.34375,-0.59375 1.20883,0.0897 2.41629,0.18964 3.625,0.28125 0.0207,0.002 0.0418,-0.002 0.0625,0 0.0526,0.004 0.10366,0.0272 0.15625,0.0312 1.03515,0.18088 2.08631,0.33788 3.125,0.5 0.31173,0.0468 0.62405,0.10928 0.9375,0.15625 0.21682,-0.9797 0.37163,-1.98061 0.46875,-3 -0.38336,-0.0243 -0.77187,-0.0426 -1.15625,-0.0625 0.3966,-1.1e-4 0.79158,2.7e-4 1.1875,0 0.0174,-0.18779 0.0181,-0.37352 0.0312,-0.5625 -2.24939,0.004 -4.49699,0.0103 -6.75,0 1.14274,-0.10006 2.29218,-0.18153 3.4375,-0.25 1.10369,0.039 2.20837,0.0762 3.3125,0.125 0.0347,-0.53708 0.0625,-1.07916 0.0625,-1.625 0,-0.313 -0.0194,-0.62736 -0.0312,-0.9375 -0.31391,-0.038 -0.62224,-0.0906 -0.9375,-0.125 0.0199,-0.0451 0.0574,-0.0721 0.0625,-0.125 0.0294,-0.30747 -0.60017,-0.17685 -0.90625,-0.21875 -0.67929,-0.0929 -2.23489,-0.1926 -3.28125,-0.25 0.61541,10e-4 1.22835,-0.002 1.84375,0 1.0529,0.003 2.10335,0.0271 3.15625,0.0312 0.0125,1e-4 0.0189,-1.2e-4 0.0312,0 -0.0167,-0.25261 -0.0694,-0.49952 -0.0937,-0.75 -1.01517,-0.006 -2.02834,-0.0219 -3.0625,-0.0312 -0.6666,-0.004 -1.3334,0.004 -2,0 0.0535,-0.0299 0.10281,-0.0645 0.15625,-0.0937 0.0225,-0.0123 0.0363,-0.0283 0.0312,-0.0312 1.31589,-0.0493 2.62511,-0.0999 3.9375,-0.21875 0.25085,-0.20894 0.86563,-0.34144 0.8125,-0.625 -0.008,0.004 -0.0237,-0.004 -0.0312,0 -0.003,-0.0114 0.005,-0.0193 0,-0.0312 0.0206,-3.8e-4 0.0417,-1.3e-4 0.0625,0 -0.0486,-0.3479 -0.0936,-0.68808 -0.15625,-1.03125 -0.0837,-0.008 -0.16631,-0.0238 -0.25,-0.0312 -0.66787,-0.0593 -1.21241,-0.0921 -1.78125,-0.125 0.33424,-0.0333 0.66598,-0.0579 1,-0.0937 0.31245,-0.0336 0.62482,-0.0853 0.9375,-0.125 -0.0416,-0.20951 -0.0784,-0.4174 -0.125,-0.625 -0.55684,-0.007 -1.103,0.008 -1.65625,0.0312 -3.04533,0.003 -6.07968,0.003 -9.125,0 0.29861,-0.15904 0.58496,-0.32655 0.875,-0.5 2.32229,0.002 4.64672,0.0264 6.96875,0.0625 0.62185,0.0131 1.18485,0.0185 1.75,0.0312 0.38653,0.0644 0.7706,0.14607 1.15625,0.21875 -0.007,-0.032 -0.0237,-0.0618 -0.0312,-0.0937 -1.27339,-0.41014 -2.52715,-0.78942 -3.8125,-1.125 -0.83319,-0.10733 -1.6621,-0.21835 -2.5,-0.3125 0.11664,-0.001 0.24405,10e-4 0.375,0 0.31212,0.0247 0.631,0.048 0.9375,0 -1.59664,-0.38966 -3.19931,-0.74445 -4.8125,-1 -0.39416,-0.0633 -0.79202,-0.0991 -1.1875,-0.15625 -0.052,0.002 -0.10418,-0.003 -0.15625,0 -0.0833,-1.3e-4 -0.16674,1.2e-4 -0.25,0 -1.26786,2.8e-4 -2.54465,0.006 -3.8125,0 -0.24793,-0.001 -0.51288,-0.0724 -0.75,0 -0.0309,-3.4e-4 -0.0628,4.1e-4 -0.0937,0 -0.0123,-1.4e-4 -0.0448,7.8e-4 -0.0625,0 0.2359,-0.12329 0.4514,-0.25204 0.6875,-0.375 0.0294,-0.0153 0.0642,-0.0161 0.0937,-0.0312 0.0167,-0.007 0.0434,0.009 0.0625,0 0.0102,-0.003 0.0206,-0.0276 0.0312,-0.0312 0.009,-0.003 0.0223,0.003 0.0312,0 -0.0625,-0.004 -0.12502,-0.0276 -0.1875,-0.0312 -0.0732,-0.004 -0.14557,0.004 -0.21875,0 -0.29632,0.16542 -0.57919,0.33124 -0.875,0.5 -0.0532,0.006 -0.10738,-0.014 -0.15625,0 0.25596,-0.16797 0.49047,-0.36911 0.75,-0.53125 -0.0522,-0.003 -0.10404,0.003 -0.15625,0 z m 14.3125,17.09375 c -0.18991,-0.1304 -0.36951,-0.21909 -0.5,-0.15625 -0.13918,0.13173 0.1099,0.16554 0.5,0.15625 z m -15.0625,-16.5 c -0.0493,0.0345 -0.0763,0.0968 -0.0937,0.15625 -0.0441,0.0271 -0.0813,0.066 -0.125,0.0937 -0.0519,0.004 -0.10435,-0.004 -0.15625,0 0.12577,-0.082 0.24957,-0.16743 0.375,-0.25 z m 6.59375,1.25 c 0.42706,0.0439 0.85419,0.0799 1.28125,0.125 -0.16715,0.13288 -0.31784,0.25182 -0.4375,0.34375 -0.98511,-0.004 -1.98493,0.009 -2.96875,-0.0312 0.0725,-0.0164 0.14628,-0.0462 0.21875,-0.0625 1.00456,-0.22638 1.33606,-0.2726 1.90625,-0.375 z m -2.625,0.125 c -0.18506,0.0484 -0.34281,0.10272 -0.5,0.1875 -0.27322,-0.0618 -0.55925,-0.0577 -0.5,0.375 -0.0808,0.0739 -0.15551,0.1213 -0.25,0.21875 -0.0668,0.0688 0.18925,0.0668 0.28125,0.0937 1.20275,0.0525 2.39003,0.035 3.59375,0.0312 -0.12195,0.0756 -0.17237,0.1168 -0.34375,0.21875 -0.0615,0.0365 -0.1222,0.0645 -0.1875,0.0937 -0.13743,0.0614 -0.27006,0.12337 -0.40625,0.1875 -1.05335,-8.9e-4 -2.1029,-2e-5 -3.15625,0 -0.38271,-4.2e-4 -0.76071,-0.0392 -1.09375,0.0625 -0.30297,0.0128 -0.55649,0.11054 -0.5625,0.4375 -0.0382,0.0528 -0.0894,0.0919 -0.125,0.15625 -0.048,0.0867 0.0519,0.10754 0.1875,0.0937 0.10496,0.0543 0.30732,-0.004 0.5,-0.0625 0.80052,0.0402 1.60543,0.0909 2.40625,0.125 -0.22705,0.0905 -0.45285,0.1828 -0.78125,0.3125 -0.10091,0.039 -0.21099,0.0565 -0.3125,0.0937 -1.54242,0.0742 -3.07997,0.15177 -4.625,0.1875 -0.27116,0.006 -0.5413,-0.004 -0.8125,0 -0.009,0.003 -0.0223,-0.003 -0.0312,0 -0.0835,10e-4 -0.16655,-0.001 -0.25,0 -0.17826,-0.0274 -0.37471,-0.11449 -0.5,0 -0.007,0.007 0.006,0.0238 0,0.0312 -0.26079,0.003 -0.52046,-0.001 -0.78125,0 -0.0316,1.6e-4 -0.0621,5.4e-4 -0.0937,0 2.29928,-1.00577 4.62956,-1.95425 7,-2.78125 0.44743,-0.0185 0.89648,-0.0408 1.34375,-0.0625 z m 4.3125,0.0625 c 0.95859,0.10261 1.91799,0.19576 2.875,0.3125 -1.09373,-0.007 -2.18752,-0.0244 -3.28125,-0.0312 0.13439,-0.092 0.27462,-0.18497 0.40625,-0.28125 z m -6.625,0.0312 c -1.82884,0.68753 -3.61405,1.44286 -5.40625,2.21875 -0.44239,0.20492 -0.79573,0.34675 -1.125,0.5 -0.32901,-0.0225 -0.67709,-0.0487 -1,0 1.11154,-0.89389 2.26182,-1.7533 3.4375,-2.5625 0.55243,-0.0173 1.10377,-0.0514 1.65625,-0.0625 0.81097,-0.0283 1.6261,-0.063 2.4375,-0.0937 z m 8.53125,1.875 c 0.83308,-2e-5 1.66693,-0.001 2.5,0 -0.33275,0.0288 -0.66711,0.0664 -1,0.0937 -0.49905,-0.026 -1.00098,-0.0673 -1.5,-0.0937 z m -5.8125,0.28125 c 0.73806,0.0319 1.48108,0.0538 2.21875,0.0937 0.44625,0.023 0.36302,0.0162 0.65625,0.0312 -1.22959,0.0743 -2.45787,0.15567 -3.6875,0.21875 0.27018,-0.11367 0.54476,-0.22419 0.8125,-0.34375 z m 6.5625,0.34375 c 0.32417,0.0182 0.24481,10e-4 0.78125,0.0312 1.1639,0.065 2.33755,0.12224 3.5,0.21875 -2.06112,0.007 -2.6212,-0.001 -4.75,0 -1.02141,-2.3e-4 -2.04109,7.6e-4 -3.0625,0 1.17447,-0.0867 2.35729,-0.15774 3.53125,-0.25 z m -16.6875,0.875 c 0.0419,-0.005 0.0831,0.005 0.125,0 0.25659,-0.001 0.51977,-0.002 0.75,0 0.17721,0.002 0.35404,-0.002 0.53125,0 0.0521,5e-4 0.10413,-5.1e-4 0.15625,0 1.28244,0.0125 2.56138,0.0444 3.84375,0.0625 -0.0495,0.0107 -0.10674,0.0205 -0.15625,0.0312 l -0.4375,0.3125 c -0.2173,0.0208 -0.43891,0.0421 -0.65625,0.0625 -0.27184,0.0255 -0.55922,-0.0394 -0.8125,0.0625 -0.0766,0.0308 -0.14662,0.0855 -0.21875,0.125 -0.0494,0.0441 -0.14472,0.0542 -0.21875,0.0937 -0.56217,0.01 -1.12496,0.0166 -1.6875,0.0312 -0.007,-0.002 -0.0233,7.9e-4 -0.0312,0 -0.31263,0.008 -0.62508,0.0261 -0.9375,0.0312 0.01,-0.0211 0.0217,-0.0414 0.0312,-0.0625 0.1142,-0.14061 0.24593,-0.30052 0.1875,-0.375 0.0229,-0.0612 0.0421,-0.12555 0.0625,-0.1875 -0.0942,0.0532 -0.18312,0.10868 -0.28125,0.15625 -0.17682,0.0225 -0.35231,0.12813 -0.53125,0.21875 0.033,-0.1416 0.0373,-0.29433 0.0625,-0.4375 0.064,-0.0308 0.15417,-0.0944 0.21875,-0.125 z m 6.78125,0.0937 c 0.59427,0.009 1.18701,0.0204 1.78125,0.0312 -0.83925,0.0468 -1.66163,0.12343 -2.5,0.1875 0.24176,-0.0701 0.47911,-0.14184 0.71875,-0.21875 z m 10.3125,0.25 c -2.80115,0.12 -5.60341,0.24098 -8.40625,0.3125 0.72725,-0.0397 1.45997,-0.0896 2.1875,-0.125 2.07306,-0.0727 4.14423,-0.15628 6.21875,-0.1875 z m 0.625,0.46875 c 0.14593,-0.005 0.2916,0.005 0.4375,0 -0.0687,0.012 -0.21474,0.0513 -0.375,0.0937 -0.003,-0.033 -0.0292,-0.0685 -0.0625,-0.0937 z m -17.90625,0.9375 c 0.0208,1.6e-4 0.0417,-1.6e-4 0.0625,0 -0.0424,0.0303 -0.0839,0.0617 -0.125,0.0937 0.0203,-0.0317 0.0456,-0.0606 0.0625,-0.0937 z m 0.53125,0 c 0.0834,7.3e-4 0.16663,-7.7e-4 0.25,0 0.0155,0.0263 0.0217,0.0674 0.0312,0.0937 -0.0168,0.0631 -0.0469,0.124 -0.0625,0.1875 -0.18968,-8e-4 -0.23382,0.001 -0.53125,0 0.10585,-0.0926 0.2061,-0.18923 0.3125,-0.28125 z m 1.09375,0.0312 c 0.41675,0.005 0.83336,-0.006 1.25,0 -0.0282,0.0225 -0.0698,0.0396 -0.0937,0.0625 -0.064,0.061 -0.0487,0.13043 -0.0312,0.21875 -0.2687,-0.007 -0.96989,0.002 -1.1875,0 0.024,-0.0916 0.042,-0.18857 0.0625,-0.28125 z m 2.21875,0 c 2.4477,0.0385 4.89513,0.10973 7.34375,0.1875 0.42412,0.0242 0.85724,0.0374 1.28125,0.0625 1.59887,0.11234 3.18645,0.23534 4.78125,0.375 -2.23827,0.029 -4.48013,0.0358 -6.71875,0.0312 -2.14189,-0.13451 -4.26209,-0.25395 -6.40625,-0.34375 -0.20157,-0.005 -0.1187,0.004 -0.28125,0 0.0142,-0.10342 0.017,-0.2254 0,-0.3125 z m 15.71875,0.84375 c 0.31253,0.0319 0.62503,0.0597 0.9375,0.0937 -0.13604,0.063 -0.25424,0.1021 -0.375,0.125 -0.0937,-0.003 -0.18755,0.003 -0.28125,0 -0.0104,-3.2e-4 -0.0208,3.2e-4 -0.0312,0 -0.10475,-0.0334 -0.18192,-0.0912 -0.25,-0.21875 z m 1.65625,0.1875 c 0.24155,0.0273 0.47739,0.0649 0.71875,0.0937 -0.56249,-0.0159 -1.12505,-0.0141 -1.6875,-0.0312 0.0935,-0.004 0.18775,-0.0266 0.28125,-0.0312 0.12387,-0.006 0.39712,-0.005 0.6875,-0.0312 z m -23.875,0.96875 c 0.0208,3e-4 0.0417,-3e-4 0.0625,0 -0.0324,0.0723 -0.0609,0.14663 -0.0937,0.21875 0.003,-0.0658 0.031,-0.17601 0.0312,-0.21875 z m 9.78125,0.8125 c 0.52793,-0.003 1.05414,0.002 1.53125,0 0.0389,-1.5e-4 0.0855,1.5e-4 0.125,0 0.006,0.007 -0.007,0.0252 0,0.0312 0.0863,0.0736 0.17604,0.12964 0.28125,0.15625 -0.63933,-0.0586 -1.26873,-0.11134 -1.90625,-0.15625 -0.004,-0.005 -0.0274,0.004 -0.0312,0 -0.006,-0.004 0.005,-0.0254 0,-0.0312 z m 5.28125,0.0312 c 0.0415,8.7e-4 0.0835,-9e-4 0.125,0 0.93921,0.0203 1.87342,0.064 2.8125,0.0937 -0.56198,0.0578 -1.12649,0.0874 -1.6875,0.15625 -0.01,-0.002 -0.0213,0.002 -0.0312,0 -0.29087,-0.0633 -0.58447,-0.12248 -0.875,-0.1875 -0.11287,-0.0237 -0.23088,-0.0388 -0.34375,-0.0625 z m -10.40625,0.5625 c 0.0941,0.004 0.18718,0.0276 0.28125,0.0312 0.25057,0.029 0.49953,0.0641 0.75,0.0937 0.008,0.005 0.0224,-0.004 0.0312,0 0.004,0.0833 0.027,0.16673 0.0312,0.25 -0.14837,-0.0443 -0.27519,-0.0102 -0.4375,0.21875 -0.11096,-0.10572 -0.2114,-0.21053 -0.3125,-0.25 -0.11735,-0.11293 -0.22648,-0.23074 -0.34375,-0.34375 z m -3.5,0.15625 c 0.14644,0.22041 0.27454,0.46342 0.40625,0.75 -0.1763,0.0657 -0.35323,0.13584 -0.53125,0.1875 -0.0357,0.22253 0.0776,0.50771 0.1875,0.75 -0.11342,-0.0437 -0.2301,-0.0805 -0.34375,-0.125 0.0123,-0.13548 0.0138,-0.2713 0.0312,-0.40625 0.0493,-0.38212 0.27435,-0.7811 0.25,-1.15625 z m 21.28125,1.40625 c 0.76846,0.13406 1.54287,0.24767 2.3125,0.375 0.22241,0.0297 -0.80882,-0.0738 -1.6875,-0.1875 -0.20861,-0.0608 -0.4162,-0.12735 -0.625,-0.1875 z M 246.90625,465 c 0.21767,0.12763 0.43609,0.25224 0.65625,0.375 -0.18724,0.17841 -0.32133,0.47879 -0.40625,0.8125 -0.0777,-0.3977 -0.16975,-0.79025 -0.25,-1.1875 z m -6.125,0.875 c -0.0125,0.072 -0.0186,0.14676 -0.0312,0.21875 -0.0533,0.0721 -0.10177,0.14768 -0.15625,0.21875 0.0129,-0.0642 0.0186,-0.0909 0.0312,-0.15625 0.0563,-0.0913 0.10336,-0.18849 0.15625,-0.28125 z m 17.375,0 c 0.95505,0.30161 1.91627,0.58515 2.875,0.875 0.50898,0.22306 1.02458,0.42702 1.53125,0.65625 0.76457,0.35072 1.52149,0.70147 2.28125,1.0625 0.11251,0.0535 0.23159,0.10204 0.34375,0.15625 -1.51785,-0.51656 -3.02619,-1.04097 -4.53125,-1.59375 -0.82968,-0.39629 -1.66667,-0.76783 -2.5,-1.15625 z m -13.71875,0.71875 c 0.10163,0.045 0.21113,0.0808 0.3125,0.125 -0.0454,0.20327 -0.0692,0.33671 -0.0937,0.46875 -0.12319,0.0922 -0.24949,0.19714 -0.34375,0.3125 -0.0134,-0.0299 -0.0178,-0.0638 -0.0312,-0.0937 -0.0212,-0.13956 -0.0634,-0.22756 -0.0937,-0.34375 0.0835,-0.15695 0.16731,-0.31137 0.25,-0.46875 z m 14.4375,0.53125 c 0.04,0.015 0.085,0.0163 0.125,0.0312 0.0435,0.0162 0.0815,0.0463 0.125,0.0625 0.50541,0.24299 0.99567,0.50466 1.5,0.75 -0.44629,-0.1707 -0.89523,-0.33528 -1.34375,-0.5 -0.138,-0.11037 -0.26819,-0.23344 -0.40625,-0.34375 z m -10.1875,1.15625 c 0.13586,0.0507 0.27033,0.10527 0.40625,0.15625 0.001,0.12557 -7e-4,0.2494 0,0.375 0.001,0.19974 -1e-4,0.36892 0,0.5625 -0.0457,0.11352 -0.08,0.22998 -0.125,0.34375 -0.0393,-0.064 -0.0855,-0.12366 -0.125,-0.1875 -0.0261,-0.27212 -0.0664,-0.54049 -0.0937,-0.8125 -0.0148,-0.14774 -0.0478,-0.28977 -0.0625,-0.4375 z m -2.4375,0.75 c 0.0903,0.17059 0.17043,0.28679 0.25,0.4375 0.0632,0.29093 0.10148,0.58286 0.15625,0.875 -0.036,0.34312 -0.0576,0.68814 -0.0937,1.03125 -0.002,0.01 0.002,0.0212 0,0.0312 -10e-4,0.0102 0.001,0.021 0,0.0312 -0.0471,0.22028 -0.10774,0.43627 -0.15625,0.65625 -0.0375,-0.0804 -0.0563,-0.16957 -0.0937,-0.25 -0.007,-0.93737 -0.0453,-1.87534 -0.0625,-2.8125 z m -8.125,0.28125 c -0.011,0.0318 -0.0201,0.0619 -0.0312,0.0937 -0.10394,0.10433 -0.20855,0.20815 -0.3125,0.3125 0.11478,-0.13476 0.22783,-0.27239 0.34375,-0.40625 z M 258.75,469.5 c 0.39569,0.16549 0.79086,0.33692 1.1875,0.5 0.39525,0.26496 0.79715,0.50925 1.1875,0.78125 0.60109,0.42817 1.18549,0.87516 1.78125,1.3125 -0.24907,-0.0649 -0.50082,-0.12397 -0.75,-0.1875 -0.54827,-0.35895 -1.09749,-0.72015 -1.65625,-1.0625 -0.59405,-0.43401 -1.17284,-0.8877 -1.75,-1.34375 z m -17.65625,0.875 c -0.002,0.0831 0.002,0.16687 0,0.25 -0.006,0.30157 0.003,0.60406 0,0.90625 -0.38256,0.6426 -0.78799,1.27355 -1.1875,1.90625 0.0952,-0.38666 0.18999,-0.76913 0.28125,-1.15625 0.3112,-0.63458 0.59877,-1.26963 0.90625,-1.90625 z m 9.125,0.5 c 0.27444,0.31622 0.48444,0.60947 0.625,0.78125 0.11832,0.23724 0.22619,0.48114 0.34375,0.71875 0.058,0.20674 0.0969,0.41866 0.15625,0.625 0.065,0.5425 0.15874,1.08195 0.21875,1.625 -0.13196,-0.27328 -0.27424,-0.53952 -0.40625,-0.8125 -0.31735,-0.66056 -0.60296,-1.27455 -0.9375,-1.90625 0.003,-0.34372 -0.003,-0.68752 0,-1.03125 z M 237.0625,471 c -1.3643,1.8067 -2.72747,3.64028 -4.0625,5.46875 -0.2444,0.34209 -0.50038,0.66265 -0.75,1 1.08429,-1.82108 2.29327,-3.58374 3.5625,-5.28125 0.41573,-0.39682 0.84116,-0.78367 1.25,-1.1875 z m 17.40625,2.25 c 0.0151,0.0166 0.0161,0.0459 0.0312,0.0625 0.047,0.16878 0.10852,0.33143 0.15625,0.5 -0.0504,-0.084 -0.10625,-0.1658 -0.15625,-0.25 -0.0107,-0.10382 -0.0204,-0.2087 -0.0312,-0.3125 z m -22.375,0.375 c -0.96028,0.97755 -1.91407,1.96056 -2.875,2.9375 0.17596,-0.39841 0.34692,-0.79338 0.53125,-1.1875 0.38625,-0.2773 0.76903,-0.55638 1.15625,-0.84375 0.0119,-0.009 0.66281,-0.50298 1.1875,-0.90625 z m 8.21875,0.0937 c -0.16609,0.46764 -0.33616,0.9301 -0.5,1.40625 -0.23974,0.44811 -0.4763,0.89706 -0.71875,1.34375 0.13914,-0.49835 0.27516,-0.99927 0.40625,-1.5 0.27489,-0.41106 0.54538,-0.83387 0.8125,-1.25 z m -2.34375,0.25 c -0.36923,1.32357 -0.66905,2.3654 -1.03125,3.5625 -0.12272,0.26197 -0.25123,0.52305 -0.375,0.78125 -0.01,0.0208 -0.0213,0.0418 -0.0312,0.0625 -0.31269,0.41658 -0.64624,0.80976 -0.96875,1.21875 0.80292,-1.87578 1.61103,-3.74599 2.40625,-5.625 z m 7,0.65625 c 0.0568,0.15783 0.12843,0.31098 0.1875,0.46875 -0.0163,0.29249 -0.0449,0.5826 -0.0625,0.875 -0.0165,-0.45507 -0.0775,-0.89156 -0.125,-1.34375 z M 248,474.9375 c 0.0721,0.36426 0.14795,0.72653 0.21875,1.09375 -0.0461,-0.1058 -0.0779,-0.20369 -0.125,-0.3125 -0.0192,-0.0424 -0.0433,-0.0826 -0.0625,-0.125 -0.007,-0.21879 -0.0209,-0.43767 -0.0312,-0.65625 z m 8.1875,0.875 c 0.10327,0.29807 0.19938,0.53324 0.28125,0.8125 -0.0163,-0.0238 -0.0463,-0.0386 -0.0625,-0.0625 -0.0766,-0.24826 -0.14339,-0.50136 -0.21875,-0.75 z m -2.75,1.03125 c 0.0451,0.0871 0.11091,0.16305 0.15625,0.25 0.005,0.0517 -0.005,0.10454 0,0.15625 -0.0481,-0.13525 -0.10899,-0.27071 -0.15625,-0.40625 z m -1.8125,0.84375 c 0.0985,0.14268 0.18235,0.295 0.28125,0.4375 0.0185,0.23025 0.0457,0.45708 0.0625,0.6875 -0.11921,-0.37366 -0.22746,-0.75041 -0.34375,-1.125 z m -3.5625,0.59375 c 0.0699,0.1479 0.14971,0.28912 0.21875,0.4375 0.13007,0.31001 0.26885,0.63032 0.40625,0.9375 0.0181,0.0529 0.0449,0.10312 0.0625,0.15625 0.004,0.1155 -0.004,0.22824 0,0.34375 -0.0281,0.53432 -0.0634,1.05931 -0.0937,1.59375 -0.0232,-0.0577 0.25821,0.6243 -0.65625,-1.6875 0.0198,-0.41568 0.0427,-0.83459 0.0625,-1.25 0.006,-0.17739 -0.004,-0.35384 0,-0.53125 z m -13.03125,0.25 c -0.37793,1.04519 -0.76634,2.08423 -1.15625,3.125 -0.34804,0.37738 -0.72559,0.73768 -1.09375,1.09375 0.63829,-1.18198 1.25298,-2.35577 1.84375,-3.5625 0.007,-0.0122 0.0238,-0.0191 0.0312,-0.0312 0.12589,-0.20646 0.24734,-0.41957 0.375,-0.625 z m -1.875,0.375 c -0.41373,0.6269 -0.82778,1.25416 -1.25,1.875 0.24054,-0.39485 0.4784,-0.79088 0.71875,-1.1875 0.17879,-0.22665 0.35407,-0.45799 0.53125,-0.6875 z m -2.875,0.90625 c -0.1481,0.27301 -0.29407,0.53671 -0.4375,0.8125 -0.11042,0.13898 -0.23297,0.26752 -0.34375,0.40625 0.23723,-0.4157 0.52147,-0.81723 0.78125,-1.21875 z m 5.125,0.6875 c -0.30913,0.5899 -0.62297,1.17946 -0.90625,1.78125 0.19801,-0.51731 0.41555,-1.01041 0.5625,-1.375 0.11575,-0.13505 0.22839,-0.27088 0.34375,-0.40625 z m 11.71875,0 c 0.005,0.0125 0.0263,0.0187 0.0312,0.0312 -0.0881,1.61701 -0.18883,3.24269 -0.4375,4.84375 -0.0216,-0.0936 -0.0412,-0.18759 -0.0625,-0.28125 0.0223,-0.16665 0.0423,-0.33309 0.0625,-0.5 0.0912,-0.75283 0.1655,-1.4964 0.25,-2.25 0.0513,-0.61434 0.10491,-1.22945 0.15625,-1.84375 z m -4.96875,2.03125 c 0.0501,0.0192 -0.027,0.0979 -0.0937,0.125 -2.4e-4,-0.0113 -0.031,-0.0202 -0.0312,-0.0312 0.0457,-0.0355 0.0869,-0.062 0.125,-0.0937 z M 234,483.46875 c -0.0254,0.0611 -0.0377,0.12623 -0.0625,0.1875 0.005,-0.0559 -0.007,-0.13206 0,-0.15625 0.0169,-0.0153 0.0461,-0.0154 0.0625,-0.0312 z m 16.125,1.25 c 0.0333,-0.009 -0.072,0.0675 -0.15625,0.125 5.4e-4,-0.0105 -5.4e-4,-0.0208 0,-0.0312 0.016,-0.0242 0.0429,-0.0432 0.0625,-0.0625 0.0279,-0.0115 0.0655,-0.0233 0.0937,-0.0312 z"
           id="path3128"
           inkscape:connector-curvature="0"
           transform="matrix(1.3611286,0,0,1.3611286,-572.4834,174.61616)" />
        <path
           inkscape:connector-curvature="0"
           d="m 248.35351,839.31715 c -5.9295,-0.0417 -11.00106,-0.10743 -1.43921,-0.80633 -18.47486,0.46509 -22.31419,0.29953 -0.19947,-1.7441 -28.58473,1.54062 -31.21327,1.20444 -0.40967,-3.54001 -34.87243,3.8307 -36.31271,3.25312 -1.12821,-5.92487 -36.20439,7.57418 -37.11381,6.85379 -4.04201,-6.25726 -0.0451,-0.0202 -0.0933,-0.0379 -0.14371,-0.0607 -29.70113,10.05636 -30.8465,9.56851 -7.08237,-2.71346 -0.163,-0.0569 -0.32602,-0.11627 -0.48903,-0.17315 -17.28338,7.78777 -17.24371,7.09645 -3.32026,-1.15388 -0.21234,-0.0733 -0.42897,-0.14913 -0.64346,-0.21864 -5.17773,2.62625 -5.08443,2.28881 -1.0467,-0.33871 -0.78181,-0.25151 -1.56254,-0.49922 -2.33791,-0.73556 -2.1556,1.20823 -2.49879,1.23098 -0.66706,-0.19968 -0.30779,-0.0923 -0.61772,-0.18452 -0.92444,-0.27425 -8.5677,5.389 -9.65622,5.55583 -2.23281,-0.63192 -0.36034,-0.0986 -0.72068,-0.20222 -1.07888,-0.29574 -10.63642,7.47433 -11.93515,7.51604 -3.73636,-0.92513 -0.49225,-0.11122 -0.98558,-0.2237 -1.47246,-0.32986 -8.48405,7.0876 -9.61439,6.97259 -3.87364,-0.75957 -0.62309,-0.10869 -1.24296,-0.21864 -1.85746,-0.31217 -3.79857,3.81427 -4.43775,3.69547 -2.18241,-0.30332 -2.76474,-0.35134 -5.45119,-0.55735 -8.03792,-0.58389 -13.12019,-0.13144 -25.03389,0.69385 -35.95666,2.19276 2.12451,3.39846 1.4864,3.4983 -2.1127,0.29447 -0.67563,0.0986 -1.33732,0.20474 -2.00223,0.31091 6.02388,7.27085 4.80451,7.353 -4.11923,0.68247 -0.52335,0.0935 -1.05314,0.18199 -1.57327,0.27552 9.1629,8.426 7.65613,8.31605 -4.27366,0.83413 -0.36678,0.0746 -0.72925,0.15166 -1.09389,0.22875 9.14896,6.76027 7.76981,6.49992 -2.76473,0.59653 -0.28527,0.0645 -0.56303,0.12892 -0.84616,0.19464 4.04094,2.67807 3.29238,2.51503 -1.10032,0.24897 -0.85366,0.19842 -1.69766,0.40443 -2.53953,0.6117 6.89577,3.86608 7.33333,4.42722 -1.58935,0.39052 -0.16837,0.0442 -0.3346,0.0885 -0.50083,0.13144 17.88825,9.24245 18.02016,9.97547 -4.45276,1.19686 -0.0901,0.0253 -0.18016,0.0493 -0.27132,0.0771 28.59331,12.7496 28.23297,13.52686 -5.47371,4.09484 35.73466,11.91166 35.51588,12.81025 -1.75023,7.12046 35.64137,7.24305 34.23647,7.89519 -0.79789,5.97921 31.02345,3.05217 28.41636,3.53369 -0.21127,3.56023 22.19623,0.82782 18.37191,1.20318 -0.10081,1.75168 9.58544,0.17567 4.52676,0.51817 -1.39202,0.88469 5.92843,0.0442 11.00213,0.10995 1.43814,0.80759 18.47487,-0.46636 22.31633,-0.29953 0.20054,1.74283 28.58366,-1.54062 31.21328,-1.20191 0.41074,3.5438 34.87243,-3.83322 36.3095,-3.25564 1.12821,5.92108 36.88968,-7.71699 37.15993,-6.83104 2.14165,7.00924 34.40807,-11.69302 33.52974,-10.43045 2.35293,5.49896 28.29088,-12.95433 26.28436,-11.2431 1.60437,3.11157 19.55696,-10.41655 16.44367,-8.1884 0.77644,1.51155 8.35321,-4.66103 4.15247,-1.8452 -0.77644,1.4155 5.13376,-2.93337 9.54039,-5.42439 1.62581,-0.0645 15.7112,-9.63044 19.10332,-11.41245 1.01024,1.33841 23.91426,-15.56795 26.34226,-16.59925 2.06658,2.75011 28.22332,-20.61446 29.74082,-20.84321 3.82646,4.41711 28.09248,-24.87738 28.74881,-24.25936 5.21097,4.88347 24.04618,-27.01327 23.89496,-25.49666 4.66724,3.54506 18.17244,-25.06948 17.26623,-22.61005 2.88271,1.89323 11.86437,-18.59484 10.25142,-15.13951 1.40597,0.92513 4.9686,-8.12142 2.70254,-3.62595 0.0236,1.60887 3.01783,-5.05283 5.62386,-9.35872 1.38666,-0.84172 8.91839,-16.02925 10.99462,-19.22929 1.56469,0.68247 13.11697,-25.1946 14.73527,-27.27235 3.22803,1.41676 14.34599,-31.70842 15.57178,-32.64492 5.67856,2.0272 12.02738,-35.39377 12.9368,-35.17639 7.19068,1.73525 7.31187,-35.30278 7.9725,-33.91129 6.0389,0.78737 3.0811,-30.72516 3.56692,-28.14314 3.5948,0.21106 0.83865,-21.98445 1.21722,-18.19421 1.7706,0.0998 0.17373,-9.49521 0.51905,-4.48283 0.89226,1.37885 0.0451,-5.87179 0.11154,-10.89554 0.81613,-1.42434 -0.4708,-18.29911 -0.30243,-22.102 1.75879,-0.19716 -1.55396,-28.31249 -1.21614,-30.916 3.57336,-0.40443 -3.86721,-34.53942 -3.28595,-35.96503 5.97883,-1.1185 -7.79125,-36.54133 -6.89791,-36.80674 7.07702,-2.12072 -11.80539,-34.08191 -10.53026,-33.21112 5.55307,-2.33304 -13.07943,-28.02181 -11.35389,-26.03253 3.14332,-1.58991 -10.51953,-19.37084 -8.26956,-16.28707 1.52501,-0.76715 -4.70586,-8.27561 -1.86283,-4.11505 1.42848,0.76715 -2.96422,-5.08315 -5.47372,-9.44971 -0.0643,-1.60886 -9.72379,-15.56164 -11.52441,-18.92218 1.35234,-1.00096 -15.71978,-23.68432 -16.76219,-26.09193 2.77332,-2.04489 -20.80956,-27.95483 -21.04443,-29.45879 4.46133,-3.79025 -25.11646,-27.82339 -24.49445,-28.47426 4.93322,-5.15899 -27.27528,-23.81954 -25.74707,-23.67041 3.57658,-4.62438 -25.31381,-17.99957 -22.82897,-17.10099 1.91322,-2.85627 -18.77408,-11.7499 -15.28973,-10.15241 0.93409,-1.39149 -8.19985,-4.92138 -3.66345,-2.6768 1.62689,-0.024 -5.10265,-2.9915 -9.45353,-5.571 -0.85259,-1.37506 -16.18307,-8.83422 -19.41539,-10.89048 0.69172,-1.55072 -25.44035,-12.99352 -27.5391,-14.59227 1.42849,-3.19499 -32.01331,-14.20932 -32.96135,-15.42387 2.04514,-5.62281 -35.73467,-11.91546 -35.51589,-12.81152 1.75343,-7.12299 -35.64136,-7.24305 -34.23969,-7.89772 0.79575,-5.97921 -31.02345,-3.0547 -28.41529,-3.53117 0.21127,-3.56023 -22.19408,-0.82908 -18.37191,-1.20697 0.10295,-1.75421 -9.58866,-0.16935 -4.52783,-0.51438 1.38988,-0.88342 z"
           id="path3130"
           style="opacity:0.39622641;fill:#8dd35f;filter:url(#filter5015)"
           transform="matrix(0.57472342,0,0,0.57472342,-346.84709,319.55101)" />
        <path
           sodipodi:type="arc"
           style="opacity:0.72075477;fill:#464646;stroke:#000000;stroke-opacity:1;filter:url(#filter3832)"
           id="path3132"
           sodipodi:cx="239.82143"
           sodipodi:cy="481.46933"
           sodipodi:rx="30.178572"
           sodipodi:ry="30.178572"
           d="m 270,481.46933 c 0,16.66716 -13.51141,30.17857 -30.17857,30.17857 -16.66717,0 -30.17858,-13.51141 -30.17858,-30.17857 0,-16.66717 13.51141,-30.17857 30.17858,-30.17857 16.66716,0 30.17857,13.5114 30.17857,30.17857 z"
           transform="matrix(0.4457894,0,0,0.4457894,-346.64565,586.24971)" />
        <path
           transform="matrix(0.4071617,0,0,0.4071617,-337.38191,604.84776)"
           d="m 270,481.46933 c 0,16.66716 -13.51141,30.17857 -30.17857,30.17857 -16.66717,0 -30.17858,-13.51141 -30.17858,-30.17857 0,-16.66717 13.51141,-30.17857 30.17858,-30.17857 16.66716,0 30.17857,13.5114 30.17857,30.17857 z"
           sodipodi:ry="30.178572"
           sodipodi:rx="30.178572"
           sodipodi:cy="481.46933"
           sodipodi:cx="239.82143"
           id="path3134"
           style="fill:#000000;stroke:#000000;stroke-opacity:1"
           sodipodi:type="arc" />
        <path
           style="opacity:0.93207547;fill:url(#linearGradient35722);fill-opacity:1;stroke:none;filter:url(#filter3868)"
           d="m 216.94222,453.93162 c -0.39814,3.06476 -0.24706,7.07215 0.24614,10.27961 0.56157,3.65204 1.71155,7.05612 3.30704,10.17525 l 17.22233,-6.60185 c -4.35017,-3.85378 -4.81932,-6.90631 -3.27983,-11.86575 l -6.6294,-4.1206 c -3.85453,0.80467 -7.71131,1.07032 -10.86628,2.13334 z"
           id="path3136"
           inkscape:connector-curvature="0"
           sodipodi:nodetypes="csccccc"
           transform="matrix(1.3611286,0,0,1.3611286,-572.4834,174.61616)" />
        <path
           style="fill:none;stroke:#000000;stroke-width:1.3011651px;stroke-linecap:round;stroke-linejoin:miter;stroke-opacity:1"
           d="m -310.60285,838.98919 c 20.89,17.03275 108.59244,31.90277 168.22208,-11.61754"
           id="path3138"
           inkscape:connector-curvature="0"
           sodipodi:nodetypes="cc" />
        <path
           style="fill:#000000;fill-opacity:1;stroke:none"
           d="m -280.28104,777.64856 c -2.76759,5.22207 -3.62216,10.35993 -6.04113,15.1028 l -17.31015,7.78377 c 9.26229,-7.29712 18.04374,-13.84479 23.35128,-22.88657 z"
           id="path3140"
           inkscape:connector-curvature="0"
           sodipodi:nodetypes="cccc" />
        <path
           sodipodi:nodetypes="cccc"
           inkscape:connector-curvature="0"
           id="path3142"
           d="m -271.63721,778.81006 c -3.02929,3.6088 -4.70746,7.50689 -7.39279,10.80213 l -13.7053,2.92699 c 7.99334,-4.03944 15.49364,-7.57653 21.09809,-13.72912 z"
           style="fill:#000000;fill-opacity:1;stroke:none" />
        <path
           style="fill:#000000;fill-opacity:1;stroke:none"
           d="m -252.37941,771.39524 c -3.95128,5.90534 -11.466,15.85739 -18.19396,19.68036 l -16.37208,2.10035 c 12.78269,-6.345 24.7885,-10.8465 34.56604,-21.78071 z"
           id="path3144"
           inkscape:connector-curvature="0"
           sodipodi:nodetypes="cccc" />
        <path
           sodipodi:nodetypes="cccc"
           inkscape:connector-curvature="0"
           id="path3146"
           d="m -243.9376,767.19274 c -4.362,6.76639 -9.24296,17.5637 -16.38672,21.20879 l -16.12293,3.53659 c 12.68369,-7.30552 24.92004,-13.45444 32.50965,-24.74538 z"
           style="fill:#000000;fill-opacity:1;stroke:none" />
        <path
           style="fill:#000000;fill-opacity:1;stroke:none"
           d="m -236.80762,768.57516 c -2.28939,5.9926 -8.86064,14.11479 -13.8905,17.43507 l -13.66689,2.90733 c 10.09257,-6.12879 18.90379,-10.26388 27.55739,-20.3424 z"
           id="path3148"
           inkscape:connector-curvature="0"
           sodipodi:nodetypes="cccc" />
        <path
           sodipodi:nodetypes="cccc"
           inkscape:connector-curvature="0"
           id="path3150"
           d="m -221.39957,764.63689 c -4.76077,4.90398 -11.44658,13.96681 -15.68401,18.42079 l -15.43153,3.07167 c 11.58059,-6.85261 22.40155,-13.00145 31.11554,-21.49246 z"
           style="fill:#000000;fill-opacity:1;stroke:none" />
        <path
           style="fill:#000000;fill-opacity:1;stroke:none"
           d="m -218.52471,770.37829 c -3.1078,3.54143 -4.87113,7.40172 -7.62817,10.63723 l -13.76625,2.62536 c 8.08009,-3.86297 15.65624,-7.23454 21.39442,-13.26259 z"
           id="path3152"
           inkscape:connector-curvature="0"
           sodipodi:nodetypes="cccc" />
        <path
           sodipodi:nodetypes="cccc"
           inkscape:connector-curvature="0"
           id="path3154"
           d="m -193.38783,772.31428 c -6.27396,4.20103 -10.43096,9.60433 -16.02707,13.48422 l -23.5767,-2.70042 c 14.58753,-2.20321 28.18442,-3.86038 39.60377,-10.7838 z"
           style="fill:#000000;fill-opacity:1;stroke:none" />
        <path
           style="fill:#000000;fill-opacity:1;stroke:none"
           d="m -124.61194,805.30813 c -5.31694,4.20103 -15.1133,10.30138 -19.85579,14.18125 l -14.4039,-6.76655 c 12.36235,-2.20322 24.58223,-0.49128 34.25969,-7.4147 z"
           id="path3156"
           inkscape:connector-curvature="0"
           sodipodi:nodetypes="cccc" />
        <path
           sodipodi:nodetypes="cccc"
           inkscape:connector-curvature="0"
           id="path3158"
           d="m -131.35012,799.96406 c -5.31694,4.20103 -15.11331,10.30137 -19.85578,14.18126 l -14.40391,-6.76655 c 12.36236,-2.20322 24.58224,-0.4913 34.25969,-7.41471 z"
           style="fill:#000000;fill-opacity:1;stroke:none" />
        <path
           style="fill:#000000;fill-opacity:1;stroke:none"
           d="m -139.77797,795.52604 c -5.31694,4.20104 -15.1133,10.30138 -19.85579,14.18126 l -14.4039,-6.76655 c 12.36236,-2.20322 24.58223,-0.49128 34.25969,-7.41471 z"
           id="path3160"
           inkscape:connector-curvature="0"
           sodipodi:nodetypes="cccc" />
        <path
           sodipodi:nodetypes="cccc"
           inkscape:connector-curvature="0"
           id="path3162"
           d="m -140.65099,790.36279 c -6.83144,4.61402 -19.41828,11.31406 -25.51163,15.57536 l -18.5068,-7.43175 c 15.88373,-2.4198 31.58439,-0.53958 44.01843,-8.14361 z"
           style="fill:#000000;fill-opacity:1;stroke:none" />
        <path
           sodipodi:nodetypes="cccc"
           inkscape:connector-curvature="0"
           id="path3164"
           d="m -178.57586,772.73483 c -5.84765,4.39318 -10.14589,10.49408 -15.38325,14.57422 l -18.98498,-6.00278 c 12.37302,-1.00329 23.84171,-1.45565 34.36823,-8.57144 z"
           style="fill:#000000;fill-opacity:1;stroke:none" />
        <path
           style="fill:#000000;fill-opacity:1;stroke:none"
           d="m -171.10074,774.93591 c -6.79497,6.71247 -11.53818,16.49462 -18.46147,19.0481 l -22.7839,-7.84548 c 7.70925,2.03463 17.03117,2.17917 41.24537,-11.20262 z"
           id="path3166"
           inkscape:connector-curvature="0"
           sodipodi:nodetypes="cccc" />
        <path
           style="fill:#000000;fill-opacity:1;stroke:none"
           d="m -206.69588,770.8356 c -6.74247,5.27597 -11.20987,12.0618 -17.22388,16.93445 l -25.33723,-3.39138 c 15.67684,-2.76695 30.28904,-4.84814 42.56111,-13.54307 z"
           id="path3168"
           inkscape:connector-curvature="0"
           sodipodi:nodetypes="cccc" />
        <path
           sodipodi:nodetypes="cccc"
           inkscape:connector-curvature="0"
           id="path3170"
           d="m -261.27122,775.01415 c -3.29345,4.32791 -9.429,11.56083 -14.41269,14.06648 l -11.40607,0.47642 c 9.37667,-4.04386 18.03746,-6.7042 25.81876,-14.5429 z"
           style="fill:#000000;fill-opacity:1;stroke:none" />
        <path
           sodipodi:nodetypes="cccc"
           inkscape:connector-curvature="0"
           id="path3172"
           d="m -159.21984,782.30975 c -6.51459,3.0733 -12.61744,9.64141 -18.45213,12.49575 l -19.83588,-6.4995 c 13.78421,-0.70186 26.56091,-1.01831 38.28801,-5.99625 z"
           style="fill:#000000;fill-opacity:1;stroke:none" />
        <path
           style="fill:#000000;fill-opacity:1;stroke:none"
           d="m -151.39556,785.46442 c -6.34989,3.34804 -12.29843,10.50332 -17.98561,13.6128 l -19.33437,-7.08052 c 13.43571,-0.76459 25.88938,-1.10934 37.31998,-6.53228 z"
           id="path3174"
           inkscape:connector-curvature="0"
           sodipodi:nodetypes="cccc" />
        <g
           id="g3176"
           transform="matrix(0.57472342,0,0,0.57472342,-343.39875,318.97629)">
          <path
             style="fill:#000000;fill-opacity:1;stroke:none"
             d="m 133.33339,925.10278 c -2.79989,-5.12625 -3.31535,-11.35405 -5.74488,-16.06984 l -19.97562,0.71599 c 10.37838,3.74372 20.25468,6.80479 25.7205,15.35385 z"
             id="path3178"
             inkscape:connector-curvature="0"
             sodipodi:nodetypes="cccc" />
          <path
             sodipodi:nodetypes="cccc"
             inkscape:connector-curvature="0"
             id="path3180"
             d="m 139.15609,923.00051 c -1.83057,-3.92419 -1.65151,-8.3052 -3.21375,-11.89566 l -16.70201,-2.17915 c 8.27557,3.9818 16.19979,7.42374 19.91576,14.07481 z"
             style="fill:#000000;fill-opacity:1;stroke:none" />
          <path
             style="fill:#000000;fill-opacity:1;stroke:none"
             d="m 161.12154,932.75919 c -1.63482,-6.51122 -5.54766,-17.40799 -12.24741,-21.2511 l -20.82916,-0.9804 c 13.30614,6.23425 26.71962,10.39507 33.07657,22.2315 z"
             id="path3182"
             inkscape:connector-curvature="0"
             sodipodi:nodetypes="cccc" />
          <path
             sodipodi:nodetypes="cccc"
             inkscape:connector-curvature="0"
             id="path3184"
             d="m 172.18836,937.17638 c -1.64945,-7.47536 -1.46809,-19.58956 -8.84211,-23.18882 l -19.58963,-2.67198 c 12.56865,7.35947 25.25885,13.41454 28.43174,25.8608 z"
             style="fill:#000000;fill-opacity:1;stroke:none" />
          <path
             style="fill:#000000;fill-opacity:1;stroke:none"
             d="m 180.69811,932.6464 c 0.69937,-6.76092 -3.26308,-15.61498 -8.20095,-19.02536 l -17.43768,-2.15972 c 10.25875,6.22297 20.01444,10.24297 25.63863,21.18508 z"
             id="path3186"
             inkscape:connector-curvature="0"
             sodipodi:nodetypes="cccc" />
          <path
             sodipodi:nodetypes="cccc"
             inkscape:connector-curvature="0"
             id="path3188"
             d="m 195.64134,935.27733 c -3.35917,-5.27511 -6.70939,-15.21228 -9.64331,-20.01103 l -18.94638,-2.1933 c 11.3609,6.93149 22.13636,13.11275 28.58969,22.20433 z"
             style="fill:#000000;fill-opacity:1;stroke:none" />
          <path
             style="fill:#000000;fill-opacity:1;stroke:none"
             d="m 201.70886,928.34756 c -1.9791,-3.83888 -1.93901,-8.16836 -3.63582,-11.683 l -16.97396,-1.82314 c 8.5038,3.76897 16.63466,7.01175 20.60978,13.50614 z"
             id="path3190"
             inkscape:connector-curvature="0"
             sodipodi:nodetypes="cccc" />
          <path
             sodipodi:nodetypes="cccc"
             inkscape:connector-curvature="0"
             id="path3192"
             d="m 240.64805,926.4273 c -5.84799,-4.32304 -8.07657,-10.23238 -13.20934,-14.24264 l -33.59249,5.24239 c 18.35033,1.25919 35.70355,1.97209 46.80183,9.00025 z"
             style="fill:#000000;fill-opacity:1;stroke:none" />
          <path
             style="fill:#000000;fill-opacity:1;stroke:none"
             d="m 354.42316,884.22886 c -4.55325,-4.40846 -13.97308,-10.62477 -17.951,-14.71119 l -23.73808,9.14998 c 15.33999,1.45774 32.94732,-1.62239 41.68908,5.56121 z"
             id="path3194"
             inkscape:connector-curvature="0"
             sodipodi:nodetypes="cccc" />
          <path
             sodipodi:nodetypes="cccc"
             inkscape:connector-curvature="0"
             id="path3196"
             d="m 341.94947,891.04148 c -4.55326,-4.40843 -13.97309,-10.62476 -17.951,-14.71119 l -23.73807,9.14999 c 15.33997,1.45773 32.94732,-1.6224 41.68907,5.5612 z"
             style="fill:#000000;fill-opacity:1;stroke:none" />
          <path
             style="fill:#000000;fill-opacity:1;stroke:none"
             d="m 327.75922,896.95178 c -4.55326,-4.40844 -13.97309,-10.62477 -17.951,-14.71118 l -23.73807,9.14999 c 15.33997,1.45771 32.94732,-1.62239 41.68907,5.56119 z"
             id="path3198"
             inkscape:connector-curvature="0"
             sodipodi:nodetypes="cccc" />
          <path
             sodipodi:nodetypes="cccc"
             inkscape:connector-curvature="0"
             id="path3200"
             d="m 323.33381,903.03094 c -6.34265,-4.75333 -19.16072,-11.41771 -24.7265,-15.82691 l -29.70665,10.28922 c 19.96775,1.39527 42.38981,-2.19104 54.43315,5.53769 z"
             style="fill:#000000;fill-opacity:1;stroke:none" />
          <path
             sodipodi:nodetypes="cccc"
             inkscape:connector-curvature="0"
             id="path3202"
             d="m 261.23652,922.90164 c -5.15052,-4.58443 -7.13187,-11.29197 -11.65343,-15.56703 l -29.45567,8.67102 c 16.10841,0.062 31.33953,-0.43543 41.1091,6.89601 z"
             style="fill:#000000;fill-opacity:1;stroke:none" />
          <path
             style="fill:#000000;fill-opacity:1;stroke:none"
             d="m 272.4464,923.67855 c -4.97475,-7.19563 -5.24496,-18.1422 -13.00662,-20.49235 l -35.75287,11.15176 c 11.70792,-3.05274 24.40987,-4.05251 48.75949,9.34059 z"
             id="path3204"
             inkscape:connector-curvature="0"
             sodipodi:nodetypes="cccc" />
          <path
             style="fill:#000000;fill-opacity:1;stroke:none"
             d="m 228.29018,927.61818 c -5.80636,-5.53062 -7.58614,-13.01921 -12.66043,-18.14605 l -36.40842,6.20255 c 19.46975,1.81724 37.93011,2.93238 49.06885,11.9435 z"
             id="path3206"
             inkscape:connector-curvature="0"
             sodipodi:nodetypes="cccc" />
          <path
             sodipodi:nodetypes="cccc"
             inkscape:connector-curvature="0"
             id="path3208"
             d="m 150.50864,927.34523 c -1.73609,-4.73648 -5.49173,-12.59584 -10.65943,-15.06347 l -15.13134,0.46398 c 10.14423,3.86354 20.18933,6.18285 25.79077,14.59949 z"
             style="fill:#000000;fill-opacity:1;stroke:none" />
          <path
             sodipodi:nodetypes="cccc"
             inkscape:connector-curvature="0"
             id="path3210"
             d="m 296.38709,914.04783 c -6.88213,-2.99082 -11.01126,-10.0804 -17.11118,-12.87737 l -30.9189,9.32427 c 18.20692,-0.41417 35.29301,-1.18637 48.03008,3.5531 z"
             style="fill:#000000;fill-opacity:1;stroke:none" />
          <path
             style="fill:#000000;fill-opacity:1;stroke:none"
             d="m 312.18866,909.68302 c -6.48668,-3.32484 -10.0381,-11.11066 -15.77814,-14.21735 l -30.60552,9.95484 c 17.69605,-0.31015 34.32733,-1.02065 46.38366,4.26251 z"
             id="path3212"
             inkscape:connector-curvature="0"
             sodipodi:nodetypes="cccc" />
        </g>
        <path
           sodipodi:nodetypes="cc"
           inkscape:connector-curvature="0"
           id="path3214"
           d="m -318.98658,799.72746 c 17.76632,-27.22718 100.96709,-67.01107 169.04357,-18.41563"
           style="fill:none;stroke:#000000;stroke-width:1.46351659px;stroke-linecap:round;stroke-linejoin:miter;stroke-opacity:1" />
        <path
           style="fill:none;stroke:#000000;stroke-width:1.46351659px;stroke-linecap:round;stroke-linejoin:miter;stroke-opacity:1"
           d="m -319.08211,797.44727 c 2.24006,-6.12738 19.74029,-23.1906 32.36385,-27.56289"
           id="path3216"
           inkscape:connector-curvature="0"
           sodipodi:nodetypes="cc" />
        <path
           style="fill:none;stroke:#000000;stroke-width:1.16844642;stroke-linecap:round;stroke-linejoin:miter;stroke-miterlimit:4;stroke-opacity:1;stroke-dasharray:none"
           d="m -320.36668,802.48765 c 17.43605,-27.22718 99.0902,-67.01107 165.90117,-18.41564"
           id="path3218"
           inkscape:connector-curvature="0"
           sodipodi:nodetypes="cc" />
        <path
           style="fill:#000000"
           inkscape:connector-curvature="0"
           d="m -356.03606,756.40632 c 1.95981,3.78168 2.32361,4.91618 1.78567,2.65235 -2.10119,-8.84442 7.05645,-13.74509 7.05645,-13.74509 -3.09374,4.84377 -1.31382,8.20936 -1.31382,8.20936 0,0 3.69145,-10.36055 11.41171,-11.14562 -5.54206,8.31855 6.39897,-0.44081 9.61512,-0.52932 -1.11841,1.16266 -1.38048,1.79027 -0.51093,2.27246 0.76956,-0.035 1.6167,-0.0989 2.49086,-0.17644 2.67418,-1.16497 5.9231,-2.21843 9.83524,-2.88626 -2.51901,0.8776 -4.49032,1.70348 -6.07425,2.47016 2.0167,-0.26381 4.20525,-0.60806 6.50644,-1.02014 3.09259,-1.62474 7.29726,-3.22994 12.76806,-4.10698 -3.42996,1.13681 -5.87196,2.18914 -7.64842,3.12019 1.30462,-0.26668 2.62648,-0.54944 3.96961,-0.85175 3.18627,-1.84601 7.94211,-3.84892 14.4882,-4.83169 -3.96444,1.25059 -6.63231,2.40292 -8.45303,3.39029 2.54546,-0.6368 5.09262,-1.32014 7.59555,-2.05004 2.48854,-1.87418 6.23229,-3.81502 11.76746,-4.96503 -3.21386,1.24599 -5.34952,2.40981 -6.7668,3.43626 0.23736,-0.0753 0.48163,-0.14828 0.71841,-0.22587 2.3305,-0.7546 4.5495,-1.51209 6.7007,-2.26728 1.87532,-1.55807 4.57307,-3.12132 8.52372,-4.33283 -2.05233,1.08219 -3.52708,2.06095 -4.57538,2.93108 1.02761,-0.37242 2.03453,-0.74484 3.02765,-1.11669 1.16726,-0.55288 2.36039,-1.123 3.58628,-1.7121 1.55348,-1.02243 3.51557,-2.01555 6.00815,-2.86614 15.11063,-5.15641 29.36435,-11.18297 44.94854,-15.56638 10.25078,-2.88281 23.31079,-5.52252 34.14146,-5.53057 50.413,-0.0368 86.892999,25.33151 90.334444,26.96488 -5.73e-4,0 -31.575874,-17.15665 -67.746094,-22.47859 -36.32884,-6.07827 -73.24505,20.39751 -101.45018,36.87828 -19.09576,13.06059 -38.74498,21.33546 -56.11714,25.33955 -10.02203,2.67017 -15.7049,2.53798 -17.93482,2.46499 -4.37767,-0.1431 -12.06057,-1.68106 -15.05028,-5.9616 -2.98914,-4.3202 -3.93284,-9.25362 -3.63858,-11.76344 z"
           id="path3220" />
        <path
           style="fill:#000000"
           inkscape:connector-curvature="0"
           d="m -333.88737,753.27235 c -1.56957,0.50002 -1.88337,2.1943 -3.21385,2.55408 -0.1661,0.0454 -0.34771,0.069 -0.55001,0.0672 -0.44196,-0.15058 -0.75002,-0.32299 -0.95749,-0.51208 -0.2069,-0.18966 -0.31322,-0.39656 -0.35173,-0.62242 -0.33507,-1.94143 1.49543,-2.69603 2.35464,-4.21617 -0.85289,0.34828 -1.79371,0.29541 -2.61614,0.73219 -0.85002,0.45174 -1.54198,1.15577 -2.14487,1.81958 -0.72702,0.80001 -1.34485,2.46556 -2.27188,3.03914 -0.20633,0.12758 -0.39139,0.25689 -0.55863,0.39081 -2.16556,1.7144 -1.20462,4.03628 -2.07015,6.46736 -0.0586,0.12241 -0.11667,0.23506 -0.17645,0.33736 -0.17873,0.30862 -0.36494,0.5253 -0.58334,0.63047 -1.49141,0.72128 -3.90352,-2.60522 -4.28284,-10.43697 -1.46842,2.84947 -2.71499,9.88064 -1.5075,12.84449 1.18278,2.90407 -1.79141,-0.41667 -4.16789,-3.31615 -0.89485,11.19388 8.21624,15.16982 20.96878,14.79798 9.00879,-0.26208 17.9762,-1.50406 26.56372,-3.82191 11.3163,-3.05352 21.87856,-7.95648 31.82473,-13.36118 2.85465,-1.5506 5.66793,-3.1558 8.4513,-4.79664 3.53284,-2.08165 7.01336,-4.22594 10.45538,-6.41276 28.17869,-16.60261 54.3947,-39.98409 100.10418,-36.30184 27.1028,2.18338 64.519018,18.77163 64.519018,18.77163 0,0 -29.050548,-18.72565 -68.544378,-23.2786 -39.58523,-4.98401 -59.75688,6.13862 -97.24494,21.95271 -28.4942,15.52155 -51.60786,22.62283 -65.52306,25.04012 -0.14828,0.0259 -0.29541,0.0512 -0.44196,0.0724 -0.1207,-0.0759 -0.23564,-0.14597 -0.34886,-0.2161 -0.16322,-1.10231 -1.34888,-2.59716 -0.16322,-3.59374 -2.96443,0 -2.96443,2.49143 -4.5725,3.34317 -0.17587,0.11839 -0.36725,0.21495 -0.5776,0.28219 -0.42242,0.13391 -0.92588,0.15231 -1.55578,-0.0247 -0.0891,-0.12874 -0.16322,-0.26265 -0.22586,-0.39885 -0.25058,-0.54484 -0.31782,-1.12761 -0.45403,-1.54428 -0.0391,-0.11093 -0.0845,-0.20864 -0.13679,-0.28851 z"
           id="path3222" />
        <path
           style="fill:#000000"
           inkscape:connector-curvature="0"
           d="m -346.64565,765.94845 c 0,0 -3.16788,-5.27826 -1.35808,-8.7605 0.0264,5.75929 4.61101,6.18172 4.61101,6.18172 -1.07416,-2.8535 -3.18052,-6.32311 -1.6006,-9.0427 0.19368,2.78281 1.19715,5.43688 4.15352,7.76509 1.09428,-1.30462 1.85981,-2.74488 1.72935,-4.2748 0.42242,0.4776 1.12703,0.93048 1.546,1.40865 0.99887,-0.59885 1.62245,-1.50175 1.67934,-2.35464 0.18047,0.66381 1.16842,1.09025 1.58624,1.56439 2.47246,-1.55577 2.22763,-4.55985 4.29031,-6.54666 -0.027,2.00233 -1.05692,4.59318 1.46899,6.39437 4.67595,-3.03856 6.33403,-8.56913 12.48644,-10.41399 -0.40977,1.50865 -1.68279,4.71791 -0.9753,5.87252 3.62822,-1.55577 6.16793,-4.91906 8.78349,-6.97541 -0.27126,1.11955 -0.77702,2.41383 -1.04197,3.53972 4.05123,-1.05749 4.66043,-4.06387 7.69727,-5.62942 -0.3569,0.79254 -0.38736,1.72417 -0.17299,2.48568 5.57424,-0.79083 7.45014,-5.44781 11.23527,-7.41681 -0.0759,0.75001 -0.3592,1.81038 -0.10748,2.69775 5.38172,-1.4414 9.34271,-5.84321 13.64566,-7.99382 0.0787,1.28852 -0.91266,2.90407 -1.97245,4.24317 4.91389,-2.04486 7.50475,-5.09722 11.82954,-7.15242 0.12183,0.41437 0.35748,1.2437 0.27127,1.94083 3.3788,-1.323 4.14318,-3.67018 6.92024,-5.0679 0.0787,0.27126 1.13738,0.93622 1.21267,1.20634 2.89373,-0.97818 3.71328,-3.12534 5.34607,-4.45928 0.19081,0.66265 0.67473,1.32416 0.57817,1.98797 1.95981,-1.19887 2.94086,-2.77592 4.62021,-3.94433 1.49314,3.12707 6.08804,-2.9558 6.12655,-2.82764 0.92243,1.12876 5.57654,-1.48738 6.98059,-2.57821 0.73794,1.83108 26.35911,-12.81115 55.34472,-12.44621 0.51954,0.0121 1.05231,0.0288 1.59198,0.0472 0.17989,0.006 0.3638,0.0138 0.54541,0.0207 0.36668,0.0138 0.73622,0.0288 1.11266,0.0454 0.22414,0.01 0.45002,0.0207 0.67703,0.0322 0.34656,0.0173 0.69714,0.0362 1.05117,0.0558 0.24541,0.0132 0.49081,0.0276 0.74025,0.0425 0.35344,0.0213 0.7138,0.046 1.07531,0.0701 0.25172,0.0172 0.49943,0.0333 0.75403,0.0511 0.52242,0.0379 1.05347,0.0805 1.59083,0.12472 0.3592,0.0299 0.72473,0.0626 1.08968,0.096 0.30805,0.0282 0.61495,0.0552 0.92703,0.0851 0.36323,0.035 0.7322,0.073 1.10117,0.11092 0.26897,0.0281 0.53908,0.0563 0.81035,0.0856 0.39714,0.0425 0.7983,0.0879 1.20234,0.13506 0.23908,0.0281 0.48046,0.0574 0.72184,0.0868 0.44138,0.0534 0.88335,0.10748 1.33279,0.1661 0.14597,0.0184 0.29483,0.0397 0.44138,0.0598 1.68682,0.22472 3.42306,0.48277 5.20872,0.78221 0.0971,0.0155 0.19368,0.0316 0.29138,0.0483 0.57186,0.0966 1.15003,0.19886 1.73223,0.30404 0.12701,0.023 0.2546,0.046 0.38276,0.069 0.59828,0.11035 1.2006,0.22415 1.80808,0.34311 0.0661,0.0121 0.13218,0.0259 0.19827,0.0385 3.40064,0.66956 6.95359,1.48337 10.64331,2.47362 0.0143,0.004 0.0299,0.008 0.0443,0.012 8.2128,2.20579 17.09974,5.28056 26.46716,9.54903 0.0448,0.0195 0.0885,0.0397 0.13277,0.0598 0.83335,0.38104 1.67014,0.77012 2.51154,1.16956 0.52242,0.24828 1.04427,0.49657 1.56899,0.75231 0.62932,0.30691 1.26152,0.62301 1.89544,0.9414 0.22299,0.1115 0.44541,0.22415 0.66897,0.33679 0.68507,0.34771 1.37245,0.70002 2.06211,1.06037 0.29196,0.15287 0.58622,0.30862 0.87875,0.46438 0.81323,0.43046 1.62877,0.87012 2.44775,1.31726 0.14713,0.081 0.29541,0.16379 0.44311,0.24598 0.75462,0.41553 1.51095,0.83507 2.27074,1.26783 1.429906,0.81497 4.949515,2.64488 6.396098,3.51846 0.01147,0.007 -2.728792,-0.84771 -7.902448,-2.48337 -8.76569,-2.7719 -16.30606,-3.61732 -16.29571,-3.66732 -0.0115,0.0443 3.4311,0.015 8.08061,0.71266 -1.3506,-0.36954 -2.71729,-0.89254 -4.4541,-1.22761 -3.87652,-0.76151 -7.87487,-1.02415 -7.87372,-1.05577 -0.006,0.0333 3.98858,-0.25172 8.05073,-0.0155 0.51208,0.0276 1.02358,0.0633 1.52761,0.10459 -0.05,-0.0161 -0.0931,-0.031 -0.12471,-0.0385 -0.0178,-0.65634 -29.51434,-5.52768 -29.58045,-5.36849 -0.002,-0.10804 13.03244,0.72358 21.67111,1.84486 -1.18681,-0.1546 -6.58576,-1.31381 -6.94381,-1.39141 -0.10805,-0.05 -6.28921,-1.57301 -12.71691,-2.32647 -7.51164,-0.8799 -14.84281,-0.007 -16.42502,-0.0362 -0.004,0.0167 9.96282,-1.27302 16.51927,-1.04197 1.10462,0.0207 2.20924,0.0707 3.2834,0.13793 -1.51094,-0.37127 -3.03282,-0.72933 -4.56159,-1.07013 -0.76208,-0.027 -5.88171,-0.21323 -11.00766,-0.005 -5.49493,0.21264 -16.97676,1.24542 -16.9848,1.20806 2.22705,-0.47184 11.33928,-1.52359 16.83249,-2.2828 1.23106,-0.17299 2.46729,-0.32242 3.6472,-0.45001 -10.59101,-1.94198 -21.17798,-2.94431 -30.44311,-2.32016 -38.18979,2.57304 -62.12759,25.15334 -87.82635,39.87144 -0.43392,0.24656 -0.86726,0.49369 -1.30233,0.73794 -24.71482,16.22618 -50.05668,21.89581 -65.91043,23.05791 -3.71214,0.26897 -8.46625,-0.38851 -11.32435,-2.3466 -4.91963,-3.81501 -4.84951,-6.15413 -5.70355,-8.5628 0.98507,1.49428 3.56443,2.40982 6.03689,2.542 z"
           id="path3224" />
        <g
           id="g3226"
           transform="matrix(-0.61825941,0,0,0.57472342,-32.132691,539.33501)"
           style="fill:#000000">
          <path
             style="fill:#000000"
             inkscape:connector-curvature="0"
             d="m 517.459,395.59 c 9.548,-9.253 7.159,-22.909 7.159,-22.909 0,0 -2.52,16.517 -17.641,19.386 -3.16,3.379 0.964,12.595 10.482,3.523 z"
             id="path3228" />
          <path
             style="fill:#000000"
             inkscape:connector-curvature="0"
             d="m 525.438,396.364 c -2.623,1.846 -5.854,3.339 -8.481,4.379 6.757,-5.14 10.458,-10.87 10.458,-10.87 0,0 -5.986,7.015 -23.176,12.03 -3.293,0.962 -23.312,3.074 -23.497,6.256 24.126,2.686 34.406,-0.737 41.627,-5.654 -1.724,0.549 -3.924,0.985 -5.993,1.316 5.352,-3.258 13.225,-10.405 9.062,-7.457 z"
             id="path3230" />
        </g>
        <path
           sodipodi:nodetypes="ccsssssc"
           inkscape:connector-curvature="0"
           id="path3232"
           d="m 397.44633,678.79502 c -34.8487,42.63089 -171.09645,313.54358 -192.78318,328.72768 -12.51118,3.854 -24.30688,25.2962 -35.13872,20.6711 C 110.79435,1003.1166 74.81271,965.18345 53.69935,933.91618 46.93056,923.89212 -5.0612418,694.80244 -3.8589438,681.19298 1.0809952,625.27515 45.635219,887.10188 116.74951,874.25801 c 20.72743,-3.74357 45.83099,57.08306 74.89697,53.85913 140.48679,-15.58245 205.79985,-313.00169 205.79985,-249.32212 z"
           style="fill:#b3b3b3;fill-opacity:1;stroke:none;filter:url(#filter5582)"
           transform="matrix(0.32922481,0,0,-0.04658933,-279.48472,799.86794)" />
        <path
           transform="matrix(0.30979357,0.11143122,0.01576888,-0.04383958,-250.36478,795.98572)"
           style="fill:#b3b3b3;fill-opacity:1;stroke:none;filter:url(#filter5582)"
           d="m 397.44633,678.79502 c -34.8487,42.63089 -171.09645,313.54358 -192.78318,328.72768 -12.51118,3.854 -24.30688,25.2962 -35.13872,20.6711 C 110.79435,1003.1166 74.81271,965.18345 53.69935,933.91618 46.93056,923.89212 -5.0612418,694.80244 -3.8589438,681.19298 1.0809952,625.27515 45.635219,887.10188 116.74951,874.25801 c 20.72743,-3.74357 45.83099,57.08306 74.89697,53.85913 140.48679,-15.58245 205.79985,-313.00169 205.79985,-249.32212 z"
           id="path3234"
           inkscape:connector-curvature="0"
           sodipodi:nodetypes="ccsssssc" />
        <g
           id="g5233"
           transform="translate(240,0)"
           style="fill:#ffffff">
          <g
             transform="translate(-240,0)"
             id="g4107"
             style="opacity:0.509434;fill:#ffffff">
            <g
               transform="matrix(0.68012195,0,0,0.68012195,-81.265887,235.28846)"
               style="fill:#ffffff"
               id="g3319">
              <path
                 style="fill:#ffffff;fill-opacity:1;stroke:none"
                 d="m -147.32811,745.42666 -35.04689,0 0,2.90511 35.04689,0 0,32.03041 2.90511,0 0,-35.04689 c -0.88803,0.0554 -2.22823,-0.13815 -2.90511,0.11137 z"
                 id="rect5845"
                 inkscape:connector-curvature="0"
                 sodipodi:nodetypes="cccccccc" />
              <path
                 sodipodi:nodetypes="cccccccc"
                 inkscape:connector-curvature="0"
                 id="path3313"
                 d="m -319.46989,745.42666 35.04689,0 0,2.90511 -35.04689,0 0,32.03041 -2.90511,0 0,-35.04689 c 0.88803,0.0554 2.22823,-0.13815 2.90511,0.11137 z"
                 style="fill:#ffffff;fill-opacity:1;stroke:none" />
              <path
                 sodipodi:nodetypes="cccccccc"
                 inkscape:connector-curvature="0"
                 id="path3315"
                 d="m -319.46989,920.23099 35.04689,0 0,-2.90511 -35.04689,0 0,-32.03041 -2.90511,0 0,35.04689 c 0.88803,-0.0554 2.22823,0.13815 2.90511,-0.11137 z"
                 style="fill:#ffffff;fill-opacity:1;stroke:none" />
              <path
                 style="fill:#ffffff;fill-opacity:1;stroke:none"
                 d="m -147.32811,920.23099 -35.04689,0 0,-2.90511 35.04689,0 0,-32.03041 2.90511,0 0,35.04689 c -0.88803,-0.0554 -2.22823,0.13815 -2.90511,-0.11137 z"
                 id="path3317"
                 inkscape:connector-curvature="0"
                 sodipodi:nodetypes="cccccccc" />
            </g>
            <g
               transform="matrix(0,1,-1,0,562.29376,1039.7193)"
               id="g3329"
               style="fill:#ffffff">
              <rect
                 style="fill:#ffffff;fill-opacity:1;stroke:none"
                 id="rect3325"
                 width="80.610176"
                 height="2.1213202"
                 x="-339.31076"
                 y="801.23877" />
              <rect
                 y="801.23877"
                 x="-217.31076"
                 height="2.1213202"
                 width="80.610176"
                 id="rect3327"
                 style="fill:#ffffff;fill-opacity:1;stroke:none" />
            </g>
            <g
               id="g3333"
               transform="matrix(-1,0,0,-1,-478.01134,1604.0131)"
               style="fill:#ffffff">
              <rect
                 y="801.23877"
                 x="-339.31076"
                 height="2.1213202"
                 width="80.610176"
                 id="rect3335"
                 style="fill:#ffffff;fill-opacity:1;stroke:none" />
              <rect
                 style="fill:#ffffff;fill-opacity:1;stroke:none"
                 id="rect3337"
                 width="80.610176"
                 height="2.1213202"
                 x="-217.31076"
                 y="801.23877" />
            </g>
          </g>
          <path
             inkscape:connector-curvature="0"
             id="path4120"
             d="m -480.00934,772.63171 c -16.05747,0 -29.08824,13.03078 -29.08824,29.08825 0,16.05747 13.03077,29.07066 29.08824,29.07066 16.05747,0 29.08825,-13.01319 29.08825,-29.07066 0,-16.05747 -13.03078,-29.08825 -29.08825,-29.08825 z m 0,0.89638 c 15.57114,0 28.19187,12.62073 28.19187,28.19187 0,15.57113 -12.62073,28.17429 -28.19187,28.17429 -15.57113,0 -28.17429,-12.60316 -28.17429,-28.17429 0,-15.57114 12.60316,-28.19187 28.17429,-28.19187 z"
             style="font-size:medium;font-style:normal;font-variant:normal;font-weight:normal;font-stretch:normal;text-indent:0;text-align:start;text-decoration:none;line-height:normal;letter-spacing:normal;word-spacing:normal;text-transform:none;direction:ltr;block-progression:tb;writing-mode:lr-tb;text-anchor:start;baseline-shift:baseline;opacity:0.509434;color:#000000;fill:#ffffff;fill-opacity:1;fill-rule:nonzero;stroke:none;stroke-width:1.60000002;marker:none;visibility:visible;display:inline;overflow:visible;enable-background:accumulate;font-family:Sans;-inkscape-font-specification:Sans" />
        </g>
      </g>
      <rect
         transform="matrix(0.32184144,0,0,0.73829051,128.80948,231.64391)"
         y="724.26465"
         x="196.57568"
         height="292.74222"
         width="12.062728"
         id="rect35551"
         style="opacity:0.509434;fill:url(#linearGradient35724);fill-opacity:1;stroke:#ffffff;stroke-width:1.47769654;stroke-miterlimit:4;stroke-opacity:1;stroke-dasharray:none;filter:url(#filter35613)" />
      <rect
         style="opacity:0.509434;fill:url(#linearGradient35726);fill-opacity:1;stroke:#ffffff;stroke-width:1.47769654;stroke-miterlimit:4;stroke-opacity:1;stroke-dasharray:none;filter:url(#filter35613)"
         id="rect35625"
         width="12.062728"
         height="292.74222"
         x="196.57568"
         y="724.26465"
         transform="matrix(0,0.32184144,-0.34653524,0,502.72279,822.29137)" />
    </g>
  </g>
</svg>
