<?xml version="1.0" encoding="UTF-8" standalone="no"?>
<svg
   xmlns:dc="http://purl.org/dc/elements/1.1/"
   xmlns:cc="http://creativecommons.org/ns#"
   xmlns:rdf="http://www.w3.org/1999/02/22-rdf-syntax-ns#"
   xmlns:svg="http://www.w3.org/2000/svg"
   xmlns="http://www.w3.org/2000/svg"
   xmlns:xlink="http://www.w3.org/1999/xlink"
   xmlns:sodipodi="http://sodipodi.sourceforge.net/DTD/sodipodi-0.dtd"
   xmlns:inkscape="http://www.inkscape.org/namespaces/inkscape"
   width="512"
   height="512"
   viewBox="0 0 135.46666 135.46667"
   version="1.1"
   id="svg1574"
   inkscape:version="1.0.1 (3bc2e813f5, 2020-09-07)"
   sodipodi:docname="Logo-DITIC-2021.svg">
  <defs
     id="defs1568">
    <filter
       height="1.0672874"
       y="-0.033643693"
       width="1.0185155"
       x="-0.0092577338"
       id="filter2744"
       style="color-interpolation-filters:sRGB"
       inkscape:collect="always">
      <feGaussianBlur
         id="feGaussianBlur2746"
         stdDeviation="0.33084788"
         inkscape:collect="always" />
    </filter>
    <linearGradient
       inkscape:collect="always"
       xlink:href="#linearGradient86253"
       id="linearGradient86270"
       gradientUnits="userSpaceOnUse"
       x1="6038.0938"
       y1="8773.7139"
       x2="5978.1455"
       y2="8548.3379" />
    <linearGradient
       inkscape:collect="always"
       id="linearGradient86253">
      <stop
         style="stop-color:#ffffff;stop-opacity:1;"
         offset="0"
         id="stop86249" />
      <stop
         style="stop-color:#ffffff;stop-opacity:0;"
         offset="1"
         id="stop86251" />
    </linearGradient>
    <linearGradient
       inkscape:collect="always"
       xlink:href="#linearGradient86253"
       id="linearGradient2277"
       gradientUnits="userSpaceOnUse"
       x1="6038.0938"
       y1="8773.7139"
       x2="5978.1455"
       y2="8548.3379" />
    <linearGradient
       inkscape:collect="always"
       xlink:href="#linearGradient86253"
       id="linearGradient2279"
       gradientUnits="userSpaceOnUse"
       x1="6038.0938"
       y1="8773.7139"
       x2="5978.1455"
       y2="8548.3379" />
  </defs>
  <sodipodi:namedview
     id="base"
     pagecolor="#ffffff"
     bordercolor="#666666"
     borderopacity="1.0"
     inkscape:pageopacity="0.0"
     inkscape:pageshadow="2"
     inkscape:zoom="0.35"
     inkscape:cx="400"
     inkscape:cy="560"
     inkscape:document-units="mm"
     inkscape:current-layer="layer1"
     inkscape:document-rotation="0"
     showgrid="false"
     units="px"
     inkscape:window-width="1920"
     inkscape:window-height="1001"
     inkscape:window-x="-9"
     inkscape:window-y="-9"
     inkscape:window-maximized="1" />
  <metadata
     id="metadata1571">
    <rdf:RDF>
      <cc:Work
         rdf:about="">
        <dc:format>image/svg+xml</dc:format>
        <dc:type
           rdf:resource="http://purl.org/dc/dcmitype/StillImage" />
        <dc:title></dc:title>
      </cc:Work>
    </rdf:RDF>
  </metadata>
  <g
     inkscape:label="Layer 1"
     inkscape:groupmode="layer"
     id="layer1">
    <g
       id="g86350"
       inkscape:export-xdpi="96"
       inkscape:export-ydpi="96"
       transform="translate(-1485.973,-1851.0889)">
      <rect
         style="fill:#f2f2f2;fill-opacity:1;stroke:none;stroke-width:1.62721;stroke-linecap:round;stroke-miterlimit:4;stroke-dasharray:none"
         id="rect2776"
         width="135.46666"
         height="135.46666"
         x="1486.0636"
         y="1992.7544" />
      <text
         xml:space="preserve"
         style="font-style:normal;font-variant:normal;font-weight:normal;font-stretch:normal;font-size:5.51374px;line-height:1.25;font-family:'Tw Cen MT';-inkscape-font-specification:'Tw Cen MT, Normal';font-variant-ligatures:normal;font-variant-caps:normal;font-variant-numeric:normal;font-variant-east-asian:normal;text-align:center;text-anchor:middle;fill:#4d4d4d;fill-opacity:1;stroke:none;stroke-width:0.392235"
         x="1555.5983"
         y="2077.4546"
         id="text2839"><tspan
           sodipodi:role="line"
           x="1555.5983"
           y="2077.4546"
           style="font-style:normal;font-variant:normal;font-weight:normal;font-stretch:normal;font-size:5.51374px;font-family:'Arial Rounded MT Bold';-inkscape-font-specification:'Arial Rounded MT Bold, Normal';font-variant-ligatures:normal;font-variant-caps:normal;font-variant-numeric:normal;font-variant-east-asian:normal;text-align:center;text-anchor:middle;fill:#4d4d4d;fill-opacity:1;stroke-width:0.392235"
           id="tspan2847">DIRETORIA DE TECNOLOGIA</tspan><tspan
           sodipodi:role="line"
           x="1555.5983"
           y="2084.3955"
           style="font-style:normal;font-variant:normal;font-weight:normal;font-stretch:normal;font-size:5.51374px;font-family:'Arial Rounded MT Bold';-inkscape-font-specification:'Arial Rounded MT Bold, Normal';font-variant-ligatures:normal;font-variant-caps:normal;font-variant-numeric:normal;font-variant-east-asian:normal;text-align:center;text-anchor:middle;fill:#4d4d4d;fill-opacity:1;stroke-width:0.392235"
           id="tspan2845">DA INFORMAÇÃO E COMUNICAÇÃO</tspan></text>
      <g
         id="g86268"
         transform="translate(-24.210797,-237.63381)">
        <path
           id="path752"
           style="fill:#000000;fill-opacity:1;stroke:none;stroke-width:1.133;stroke-linecap:round;stroke-linejoin:round;stroke-miterlimit:4;stroke-dasharray:none;stroke-dashoffset:9.24624;stroke-opacity:1;filter:url(#filter2744)"
           d="m 1790.5,2136.9553 -3.3223,23.5955 h 7.0936 l 3.0474,-21.6416 c -0.7441,-0.6397 -1.4893,-1.2782 -2.2019,-1.9539 z m 31.241,0 v 5e-4 h -22.0178 l -1.0655,7.5681 h 6.5065 l -2.2577,16.0269 h 7.4073 l 2.2577,-16.0269 h 8.1039 l -2.2567,16.0269 h 7.0936 l 3.0474,-21.6416 c -0.7441,-0.6397 -1.4889,-1.2782 -2.2014,-1.9539 z m -54.807,5e-4 -1.0904,7.7458 11.3647,-0.023 v 0.028 h 2.2629 l -1.1394,8.0899 h -6.8518 l 0.7668,-4.7098 -6.567,0.021 -1.8567,12.4489 h 19.9822 c 1.0012,-7.1098 2.0023,-14.4848 3.0035,-21.5946 l -2.6102,-2.0014 z m 64.6544,0 -3.3228,23.595 h 19.9823 l 1.0904,-7.7422 h -13.4674 l 1.1405,-8.1008 h 11.8313 l 0.7503,-5.7412 -2.128,-2.0108 z"
           transform="matrix(1.1640688,0,0,1.1791298,-524.81772,-241.90505)" />
        <path
           id="path754"
           style="fill:#a90000;fill-opacity:1;stroke:none;stroke-width:1.32739;stroke-linecap:round;stroke-linejoin:round;stroke-miterlimit:4;stroke-dasharray:none;stroke-dashoffset:9.24624;stroke-opacity:1"
           d="m 1559.2297,2277.399 -3.8674,27.8222 h 8.2574 l 3.5474,-25.5183 c -0.8662,-0.7543 -1.7336,-1.5071 -2.5632,-2.3039 z m 36.3666,0 v 6e-4 h -25.6302 l -1.2403,8.9238 h 7.574 l -2.6281,18.8978 h 8.6226 l 2.6281,-18.8978 h 9.4335 l -2.6269,18.8978 h 8.2574 l 3.5474,-25.5183 c -0.8662,-0.7543 -1.7332,-1.5071 -2.5626,-2.3039 z m -63.7991,6e-4 -1.2693,9.1333 13.2293,-0.027 v 0.033 h 2.6342 l -1.3264,9.5391 h -7.9759 l 0.8926,-5.5535 -7.6445,0.025 -2.1613,14.6788 h 23.2607 c 1.1654,-8.3833 2.3308,-17.0794 3.4963,-25.4628 l -3.0385,-2.3599 z m 75.2622,0 -3.868,27.8216 h 23.2608 l 1.2693,-9.1291 h -15.677 l 1.3276,-9.5519 h 13.7725 l 0.8734,-6.7696 -2.4772,-2.371 z" />
        <path
           id="path86243"
           style="opacity:0.422961;fill:url(#linearGradient86270);fill-opacity:1;stroke:none;stroke-width:39.9318;stroke-linecap:round;stroke-linejoin:round;stroke-opacity:0.365314;paint-order:stroke fill markers"
           d="m 6152.3379,8622.6602 a 452.472,184.51692 0 0 0 -81.0547,3.8418 l -11.9766,86.1445 h 87.9141 l 4.7969,-34.5039 h -59.25 l 5.0176,-36.1016 h 52.0527 z m -93.3262,4.9609 a 452.472,184.51692 0 0 0 -101.5801,15.2969 l -9.6953,69.7285 h 32.5879 l 9.9336,-71.4238 h 35.6543 l -9.9277,71.4238 h 31.209 z m -140.8613,24.5508 a 452.472,184.51692 0 0 0 -32.5195,9.4297 l -7.0957,51.0449 h 31.2089 z m -48.1543,14.6347 a 452.472,184.51692 0 0 0 -94.1406,45.375 l -0.072,0.4922 h 87.9141 c 2.0992,-15.101 4.1995,-30.4849 6.2988,-45.8672 z"
           transform="scale(0.26458333)" />
      </g>
    </g>
    <g
       id="g2190"
       inkscape:export-xdpi="96"
       inkscape:export-ydpi="96"
       transform="translate(-1661.2831,-1746.7368)">
      <rect
         style="fill:none;fill-opacity:1;stroke:none;stroke-width:1.11692;stroke-linecap:round;stroke-miterlimit:4;stroke-dasharray:none"
         id="rect2154"
         width="135.46666"
         height="63.825062"
         x="1661.3737"
         y="2023.8689" />
      <text
         xml:space="preserve"
         style="font-style:normal;font-variant:normal;font-weight:normal;font-stretch:normal;font-size:5.51374px;line-height:1.25;font-family:'Tw Cen MT';-inkscape-font-specification:'Tw Cen MT, Normal';font-variant-ligatures:normal;font-variant-caps:normal;font-variant-numeric:normal;font-variant-east-asian:normal;text-align:center;text-anchor:middle;fill:#4d4d4d;fill-opacity:1;stroke:none;stroke-width:0.392235"
         x="1730.9083"
         y="2072.7483"
         id="text2160"><tspan
           sodipodi:role="line"
           x="1730.9083"
           y="2072.7483"
           style="font-style:normal;font-variant:normal;font-weight:normal;font-stretch:normal;font-size:5.51374px;font-family:'Arial Rounded MT Bold';-inkscape-font-specification:'Arial Rounded MT Bold, Normal';font-variant-ligatures:normal;font-variant-caps:normal;font-variant-numeric:normal;font-variant-east-asian:normal;text-align:center;text-anchor:middle;fill:#4d4d4d;fill-opacity:1;stroke-width:0.392235"
           id="tspan2156">DIRETORIA DE TECNOLOGIA</tspan><tspan
           sodipodi:role="line"
           x="1730.9083"
           y="2079.6892"
           style="font-style:normal;font-variant:normal;font-weight:normal;font-stretch:normal;font-size:5.51374px;font-family:'Arial Rounded MT Bold';-inkscape-font-specification:'Arial Rounded MT Bold, Normal';font-variant-ligatures:normal;font-variant-caps:normal;font-variant-numeric:normal;font-variant-east-asian:normal;text-align:center;text-anchor:middle;fill:#4d4d4d;fill-opacity:1;stroke-width:0.392235"
           id="tspan2158">DA INFORMAÇÃO E COMUNICAÇÃO</tspan></text>
      <g
         id="g2168"
         transform="translate(151.09931,-242.34012)">
        <path
           id="path2162"
           style="fill:#000000;fill-opacity:1;stroke:none;stroke-width:1.133;stroke-linecap:round;stroke-linejoin:round;stroke-miterlimit:4;stroke-dasharray:none;stroke-dashoffset:9.24624;stroke-opacity:1;filter:url(#filter2744)"
           d="m 1790.5,2136.9553 -3.3223,23.5955 h 7.0936 l 3.0474,-21.6416 c -0.7441,-0.6397 -1.4893,-1.2782 -2.2019,-1.9539 z m 31.241,0 v 5e-4 h -22.0178 l -1.0655,7.5681 h 6.5065 l -2.2577,16.0269 h 7.4073 l 2.2577,-16.0269 h 8.1039 l -2.2567,16.0269 h 7.0936 l 3.0474,-21.6416 c -0.7441,-0.6397 -1.4889,-1.2782 -2.2014,-1.9539 z m -54.807,5e-4 -1.0904,7.7458 11.3647,-0.023 v 0.028 h 2.2629 l -1.1394,8.0899 h -6.8518 l 0.7668,-4.7098 -6.567,0.021 -1.8567,12.4489 h 19.9822 c 1.0012,-7.1098 2.0023,-14.4848 3.0035,-21.5946 l -2.6102,-2.0014 z m 64.6544,0 -3.3228,23.595 h 19.9823 l 1.0904,-7.7422 h -13.4674 l 1.1405,-8.1008 h 11.8313 l 0.7503,-5.7412 -2.128,-2.0108 z"
           transform="matrix(1.1640688,0,0,1.1791298,-524.81772,-241.90505)" />
        <path
           id="path2164"
           style="fill:#a90000;fill-opacity:1;stroke:none;stroke-width:1.32739;stroke-linecap:round;stroke-linejoin:round;stroke-miterlimit:4;stroke-dasharray:none;stroke-dashoffset:9.24624;stroke-opacity:1"
           d="m 1559.2297,2277.399 -3.8674,27.8222 h 8.2574 l 3.5474,-25.5183 c -0.8662,-0.7543 -1.7336,-1.5071 -2.5632,-2.3039 z m 36.3666,0 v 6e-4 h -25.6302 l -1.2403,8.9238 h 7.574 l -2.6281,18.8978 h 8.6226 l 2.6281,-18.8978 h 9.4335 l -2.6269,18.8978 h 8.2574 l 3.5474,-25.5183 c -0.8662,-0.7543 -1.7332,-1.5071 -2.5626,-2.3039 z m -63.7991,6e-4 -1.2693,9.1333 13.2293,-0.027 v 0.033 h 2.6342 l -1.3264,9.5391 h -7.9759 l 0.8926,-5.5535 -7.6445,0.025 -2.1613,14.6788 h 23.2607 c 1.1654,-8.3833 2.3308,-17.0794 3.4963,-25.4628 l -3.0385,-2.3599 z m 75.2622,0 -3.868,27.8216 h 23.2608 l 1.2693,-9.1291 h -15.677 l 1.3276,-9.5519 h 13.7725 l 0.8734,-6.7696 -2.4772,-2.371 z" />
        <path
           id="path2166"
           style="opacity:0.422961;fill:url(#linearGradient2279);fill-opacity:1;stroke:none;stroke-width:39.9318;stroke-linecap:round;stroke-linejoin:round;stroke-opacity:0.365314;paint-order:stroke fill markers"
           d="m 6152.3379,8622.6602 a 452.472,184.51692 0 0 0 -81.0547,3.8418 l -11.9766,86.1445 h 87.9141 l 4.7969,-34.5039 h -59.25 l 5.0176,-36.1016 h 52.0527 z m -93.3262,4.9609 a 452.472,184.51692 0 0 0 -101.5801,15.2969 l -9.6953,69.7285 h 32.5879 l 9.9336,-71.4238 h 35.6543 l -9.9277,71.4238 h 31.209 z m -140.8613,24.5508 a 452.472,184.51692 0 0 0 -32.5195,9.4297 l -7.0957,51.0449 h 31.2089 z m -48.1543,14.6347 a 452.472,184.51692 0 0 0 -94.1406,45.375 l -0.072,0.4922 h 87.9141 c 2.0992,-15.101 4.1995,-30.4849 6.2988,-45.8672 z"
           transform="scale(0.26458333)" />
      </g>
    </g>
    <g
       id="g2225"
       inkscape:export-xdpi="96"
       inkscape:export-ydpi="96"
       transform="translate(-1316.6396,-1991.696)">
      <rect
         style="fill:none;fill-opacity:1;stroke:none;stroke-width:0.947882;stroke-linecap:round;stroke-miterlimit:4;stroke-dasharray:none"
         id="rect2192"
         width="135.46666"
         height="45.967575"
         x="1317.2246"
         y="2035.4449" />
      <g
         id="g2206"
         transform="translate(-193.04973,-232.33921)">
        <path
           id="path2200"
           style="fill:#000000;fill-opacity:1;stroke:none;stroke-width:1.133;stroke-linecap:round;stroke-linejoin:round;stroke-miterlimit:4;stroke-dasharray:none;stroke-dashoffset:9.24624;stroke-opacity:1;filter:url(#filter2744)"
           d="m 1790.5,2136.9553 -3.3223,23.5955 h 7.0936 l 3.0474,-21.6416 c -0.7441,-0.6397 -1.4893,-1.2782 -2.2019,-1.9539 z m 31.241,0 v 5e-4 h -22.0178 l -1.0655,7.5681 h 6.5065 l -2.2577,16.0269 h 7.4073 l 2.2577,-16.0269 h 8.1039 l -2.2567,16.0269 h 7.0936 l 3.0474,-21.6416 c -0.7441,-0.6397 -1.4889,-1.2782 -2.2014,-1.9539 z m -54.807,5e-4 -1.0904,7.7458 11.3647,-0.023 v 0.028 h 2.2629 l -1.1394,8.0899 h -6.8518 l 0.7668,-4.7098 -6.567,0.021 -1.8567,12.4489 h 19.9822 c 1.0012,-7.1098 2.0023,-14.4848 3.0035,-21.5946 l -2.6102,-2.0014 z m 64.6544,0 -3.3228,23.595 h 19.9823 l 1.0904,-7.7422 h -13.4674 l 1.1405,-8.1008 h 11.8313 l 0.7503,-5.7412 -2.128,-2.0108 z"
           transform="matrix(1.1640688,0,0,1.1791298,-524.81772,-241.90505)" />
        <path
           id="path2202"
           style="fill:#a90000;fill-opacity:1;stroke:none;stroke-width:1.32739;stroke-linecap:round;stroke-linejoin:round;stroke-miterlimit:4;stroke-dasharray:none;stroke-dashoffset:9.24624;stroke-opacity:1"
           d="m 1559.2297,2277.399 -3.8674,27.8222 h 8.2574 l 3.5474,-25.5183 c -0.8662,-0.7543 -1.7336,-1.5071 -2.5632,-2.3039 z m 36.3666,0 v 6e-4 h -25.6302 l -1.2403,8.9238 h 7.574 l -2.6281,18.8978 h 8.6226 l 2.6281,-18.8978 h 9.4335 l -2.6269,18.8978 h 8.2574 l 3.5474,-25.5183 c -0.8662,-0.7543 -1.7332,-1.5071 -2.5626,-2.3039 z m -63.7991,6e-4 -1.2693,9.1333 13.2293,-0.027 v 0.033 h 2.6342 l -1.3264,9.5391 h -7.9759 l 0.8926,-5.5535 -7.6445,0.025 -2.1613,14.6788 h 23.2607 c 1.1654,-8.3833 2.3308,-17.0794 3.4963,-25.4628 l -3.0385,-2.3599 z m 75.2622,0 -3.868,27.8216 h 23.2608 l 1.2693,-9.1291 h -15.677 l 1.3276,-9.5519 h 13.7725 l 0.8734,-6.7696 -2.4772,-2.371 z" />
        <path
           id="path2204"
           style="opacity:0.422961;fill:url(#linearGradient2277);fill-opacity:1;stroke:none;stroke-width:39.9318;stroke-linecap:round;stroke-linejoin:round;stroke-opacity:0.365314;paint-order:stroke fill markers"
           d="m 6152.3379,8622.6602 a 452.472,184.51692 0 0 0 -81.0547,3.8418 l -11.9766,86.1445 h 87.9141 l 4.7969,-34.5039 h -59.25 l 5.0176,-36.1016 h 52.0527 z m -93.3262,4.9609 a 452.472,184.51692 0 0 0 -101.5801,15.2969 l -9.6953,69.7285 h 32.5879 l 9.9336,-71.4238 h 35.6543 l -9.9277,71.4238 h 31.209 z m -140.8613,24.5508 a 452.472,184.51692 0 0 0 -32.5195,9.4297 l -7.0957,51.0449 h 31.2089 z m -48.1543,14.6347 a 452.472,184.51692 0 0 0 -94.1406,45.375 l -0.072,0.4922 h 87.9141 c 2.0992,-15.101 4.1995,-30.4849 6.2988,-45.8672 z"
           transform="scale(0.26458333)" />
      </g>
    </g>
  </g>
</svg>
