<?xml version="1.0" encoding="UTF-8" standalone="no"?>
<svg
   xmlns:dc="http://purl.org/dc/elements/1.1/"
   xmlns:cc="http://creativecommons.org/ns#"
   xmlns:rdf="http://www.w3.org/1999/02/22-rdf-syntax-ns#"
   xmlns:svg="http://www.w3.org/2000/svg"
   xmlns="http://www.w3.org/2000/svg"
   xmlns:sodipodi="http://sodipodi.sourceforge.net/DTD/sodipodi-0.dtd"
   xmlns:inkscape="http://www.inkscape.org/namespaces/inkscape"
   width="512"
   height="512"
   viewBox="0 0 135.46666 135.46667"
   version="1.1"
   id="svg99"
   inkscape:version="1.0.1 (3bc2e813f5, 2020-09-07)"
   sodipodi:docname="tux.svg">
  <defs
     id="defs93">
    <clipPath
       clipPathUnits="userSpaceOnUse"
       id="clipPath1078">
      <circle
         style="fill:#000000;fill-opacity:0.457565;stroke-width:1.869;stroke-linecap:round;stroke-linejoin:round;paint-order:stroke fill markers"
         id="circle1080"
         cx="62.612373"
         cy="37.958748"
         r="45.589638" />
    </clipPath>
  </defs>
  <sodipodi:namedview
     id="base"
     pagecolor="#ffffff"
     bordercolor="#666666"
     borderopacity="1.0"
     inkscape:pageopacity="0.0"
     inkscape:pageshadow="2"
     inkscape:zoom="0.95617475"
     inkscape:cx="231.49582"
     inkscape:cy="128.93952"
     inkscape:document-units="mm"
     inkscape:current-layer="layer1"
     inkscape:document-rotation="0"
     showgrid="false"
     inkscape:window-width="1920"
     inkscape:window-height="1001"
     inkscape:window-x="-9"
     inkscape:window-y="-9"
     inkscape:window-maximized="1"
     units="px"
     showguides="false" />
  <metadata
     id="metadata96">
    <rdf:RDF>
      <cc:Work
         rdf:about="">
        <dc:format>image/svg+xml</dc:format>
        <dc:type
           rdf:resource="http://purl.org/dc/dcmitype/StillImage" />
        <dc:title></dc:title>
      </cc:Work>
    </rdf:RDF>
  </metadata>
  <g
     inkscape:label="Layer 1"
     inkscape:groupmode="layer"
     id="layer1"
     style="opacity:1">
    <g
       id="g1102"
       transform="matrix(1.4857177,0,0,1.4857177,-25.290978,11.33735)">
      <circle
         style="fill:#a1a1a1;fill-opacity:1;stroke-width:1.869;stroke-linecap:round;stroke-linejoin:round;paint-order:stroke fill markers"
         id="path231"
         cx="62.612373"
         cy="37.958748"
         r="45.589638" />
      <g
         id="g1074"
         clip-path="url(#clipPath1078)">
        <path
           id="35955624"
           class="fil1"
           d="m 32.827919,18.181949 14.826014,-1.637735 -1.740696,3.964269 -12.478545,6.370761 z"
           style="fill:#d40000;stroke-width:0.0269673" />
        <path
           id="35955360"
           class="fil1"
           d="m 94.258554,20.689855 -9.551991,-2.289261 0.476248,3.605446 8.346266,5.339815 z"
           style="fill:#d40000;stroke-width:0.0269673" />
        <path
           id="35957296"
           class="fil1"
           d="M 63.667214,5.9760886 C 74.652079,6.3703041 83.21534,15.817297 83.052679,26.982182 82.993529,31.042141 81.568668,34.545328 79.6861,38.03209 90.589634,44.008746 98.193127,56.467856 97.986103,70.677711 97.697747,90.470008 81.899258,106.15138 63.133449,105.47793 44.36764,104.80448 29.04235,88.006181 29.330707,68.213882 29.530337,54.511521 36.565932,43.085523 47.181819,37.373372 44.945061,33.73878 44.081413,30.153465 44.147953,25.586011 44.310617,14.421127 53.140057,5.5983048 63.667214,5.9760886 Z"
           style="fill:#000000;stroke-width:0.0255891" />
        <path
           id="path229"
           class="fil0"
           d="m 83.700333,110.90488 c -5.675817,2.53547 -11.884623,3.99094 -18.612583,3.83297 -9.53128,-0.22378 -17.820377,-1.93014 -24.984478,-6.90206 -0.982961,-5.36053 -2.670122,-21.292267 -2.517925,-27.159895 0.650296,-25.070779 11.814837,-44.557237 25.27076,-44.241306 14.016588,0.329096 24.15726,20.31578 23.506961,45.386558 -0.193704,7.467891 -0.814711,22.722183 -2.662735,29.083733 z"
           style="fill:#000000;stroke-width:0.029037"
           sodipodi:nodetypes="cscsssc" />
        <path
           id="35957208"
           class="fil0"
           d="m 81.656392,109.64426 c -5.141604,2.36066 -10.766033,3.71577 -16.860752,3.5687 -8.634189,-0.20835 -16.14311,-1.79707 -22.63292,-6.4262 C 41.272276,101.7958 39.743912,86.962474 39.881784,81.499386 40.470874,58.157097 50.5846,40.014122 62.774041,40.308271 c 12.697336,0.306407 21.88356,18.91512 21.294468,42.257409 -0.175473,6.953022 -0.73803,21.15561 -2.412117,27.07858 z"
           style="fill:#ffffff;stroke-width:0.026667"
           sodipodi:nodetypes="cscsssc" />
        <circle
           style="fill:#ffffff;fill-opacity:1;stroke:none;stroke-width:0.0580725;stroke-linejoin:round;stroke-miterlimit:4;stroke-dasharray:none;stroke-dashoffset:0;stroke-opacity:1"
           id="path3351"
           transform="rotate(1.4136658)"
           cx="72.696228"
           cy="21.136499"
           r="13.035973" />
        <path
           id="35956768"
           class="fil0"
           d="m 50.233108,13.064121 c 5.59936,-0.370021 11.085919,3.830998 11.455938,9.430358 0.37002,5.599363 -3.830996,11.08592 -9.430358,11.455941 -5.599362,0.370021 -11.085917,-3.830999 -11.455938,-9.43036 -0.37002,-5.599361 3.830996,-11.085918 9.430358,-11.455939 z"
           style="fill:#ffffff;stroke-width:0.0269673" />
        <path
           id="35956592"
           class="fil2"
           d="M 80.785075,32.988588 C 62.423781,35.308648 54.62505,35.741282 46.107186,32.532015 49.454958,42.3597 50.316699,42.885511 59.067279,48.43589 66.630732,39.139077 70.065005,40.860928 80.785075,32.988588 Z"
           style="fill:#ffcc00;stroke-width:0.0269673"
           sodipodi:nodetypes="cccc" />
        <path
           id="35957032"
           class="fil1"
           d="m 50.7034,14.600336 c 3.555254,0.08774 6.539944,2.702405 7.467995,6.282729 -1.486078,-1.561283 -3.492583,-2.627206 -6.032051,-2.689874 -4.57104,-0.112805 -8.214031,3.354714 -8.326836,7.925752 -0.01253,0.507894 -0.0376,1.52368 0.457758,2.044108 -1.486081,-1.561282 -1.95637,-3.097496 -1.893699,-5.636964 0.100271,-4.063146 3.755793,-8.038556 8.326833,-7.925751 z"
           style="fill:#000000;stroke-width:0.0269673" />
        <path
           id="35956328"
           class="fil1"
           d="m 81.697429,14.857009 c 2.959626,3.630455 2.821754,9.217281 0.194548,12.709867 0.06267,-2.539468 -0.370021,-5.59936 -2.338922,-8.188964 -3.442452,-4.658776 -10.527892,-5.850037 -15.186669,-2.407591 -1.040854,0.990721 -1.561283,1.486081 -2.094243,2.489333 0.570564,-2.526934 1.64902,-5.041332 4.226089,-6.502343 4.671311,-3.9503416 11.248858,-2.771616 15.199197,1.899698 z"
           style="fill:#000000;stroke-width:0.0269673" />
        <ellipse
           style="fill:#000000;fill-opacity:1;stroke:none;stroke-width:0.0508048;stroke-linejoin:round;stroke-miterlimit:4;stroke-dasharray:none;stroke-dashoffset:0;stroke-opacity:1"
           id="path3337"
           transform="rotate(1.4136658)"
           cx="52.196625"
           cy="28.602299"
           rx="2.6199617"
           ry="2.5759287" />
        <ellipse
           transform="rotate(1.4136658)"
           id="path3339"
           style="fill:#000000;fill-opacity:1;stroke:none;stroke-width:0.0616605;stroke-linejoin:round;stroke-miterlimit:4;stroke-dasharray:none;stroke-dashoffset:0;stroke-opacity:1"
           cx="68.608284"
           cy="27.259295"
           rx="3.1797826"
           ry="3.1263409" />
        <path
           style="fill:#d40000;fill-opacity:1;stroke:none;stroke-width:0.00269673;stroke-linejoin:round;stroke-miterlimit:4;stroke-dasharray:none;stroke-dashoffset:0;stroke-opacity:1"
           d="M 47.13354,8.5826146 C 38.920548,8.379932 32.004565,14.790845 31.801885,23.003838 c -0.202682,8.212993 6.38431,15.133319 14.597302,15.336 8.213044,0.202683 14.957287,-6.388652 15.159967,-14.601647 C 61.761834,15.525197 55.346583,8.7852944 47.13354,8.5826146 Z m -0.07822,3.1694084 c 6.414897,0.158308 11.49273,5.493069 11.334421,11.907953 C 58.231439,30.074859 52.896646,35.152659 46.481746,34.994351 40.066903,34.836045 34.989067,29.50128 35.147376,23.086398 35.305682,16.671512 40.640481,11.593716 47.055324,11.752023 Z"
           id="path3343" />
        <circle
           style="opacity:0.464164;fill:#000000;fill-opacity:1;stroke:none;stroke-width:0.0624544;stroke-linejoin:round;stroke-miterlimit:4;stroke-dasharray:none;stroke-dashoffset:0;stroke-opacity:1"
           id="path3359"
           transform="rotate(1.4136658)"
           cx="47.23682"
           cy="22.19919"
           r="12.018501" />
        <path
           style="fill:#d40000;fill-opacity:1;stroke:none;stroke-width:0.00269673;stroke-linejoin:round;stroke-miterlimit:4;stroke-dasharray:none;stroke-dashoffset:0;stroke-opacity:1"
           d="m 76.88889,6.437494 c -9.965475,-0.2459297 -18.161607,7.727371 -18.407536,17.692842 -0.245929,9.96547 7.55128,18.157273 17.516756,18.403201 9.965478,0.24593 18.333349,-7.546949 18.579278,-17.512419 C 94.823318,15.055648 86.854369,6.6834241 76.88889,6.437494 Z m 0.08049,3.878067 c 8.041072,0.198438 14.452262,6.934048 14.253821,14.975151 -0.198438,8.041106 -6.934068,14.452279 -14.975137,14.25384 C 68.206944,39.346112 61.795751,32.610501 61.994189,24.569397 62.19263,16.528293 68.92826,10.117121 76.96938,10.315561 Z"
           id="path3348" />
        <circle
           transform="rotate(1.4136658)"
           id="path3361"
           style="opacity:0.464164;fill:#000000;fill-opacity:1;stroke:none;stroke-width:0.0773399;stroke-linejoin:round;stroke-miterlimit:4;stroke-dasharray:none;stroke-dashoffset:0;stroke-opacity:1"
           cx="77.193298"
           cy="22.946455"
           r="14.883014" />
        <path
           id="path210"
           style="fill:#ffcc00;fill-opacity:1;stroke-width:2.7251;stroke-linecap:round;stroke-linejoin:round;paint-order:stroke fill markers"
           d="m 85.459631,109.12034 c 0.911902,1.26962 0.789269,3.06689 0.24566,4.85667 -0.22793,0.82277 -0.468715,0.72628 -1.109976,0.68009 -10.64841,0.35064 -13.980068,0.28338 -22.595515,0.0749 -0.401285,-0.01 -0.893511,-0.36725 -0.942727,-0.78205 -0.230599,-1.94353 -0.336494,-2.8608 3.428272,-4.67029 5.810649,-1.95663 17.560477,-4.4365 20.974284,-0.15936 z"
           inkscape:transform-center-x="-5.2343958"
           inkscape:transform-center-y="-5.0066823"
           sodipodi:nodetypes="cccsaccc" />
        <path
           id="path212"
           style="fill:#ffcc00;fill-opacity:1;stroke-width:2.71096;stroke-linecap:round;stroke-linejoin:round;paint-order:stroke fill markers"
           d="m 35.795193,106.98919 c -0.973701,1.21547 -0.979972,3.04735 -0.57708,4.90477 0.163882,0.85213 0.404342,0.77323 1.03003,0.77689 13.176549,1.52092 14.263515,1.46897 21.928138,1.85425 0.3903,0.0196 0.892932,-0.30203 0.969626,-0.71872 0.359351,-1.95236 0.526097,-2.87404 -3.002183,-5.00492 -5.503948,-2.4411 -16.736548,-5.8801 -20.348531,-1.81227 z"
           inkscape:transform-center-x="4.8258206"
           inkscape:transform-center-y="-5.3355641"
           sodipodi:nodetypes="cccsacc" />
      </g>
    </g>
  </g>
</svg>
